<?xml version="1.0" encoding="UTF-8"?>
<svg xmlns="http://www.w3.org/2000/svg" viewBox="0 0 1920 1920">
  <defs>
    <style>
      .cls-1, .cls-2, .cls-3, .cls-4, .cls-5, .cls-6, .cls-7, .cls-8, .cls-9, .cls-10 {
        stroke-width: 3px;
      }

      .cls-1, .cls-2, .cls-3, .cls-4, .cls-5, .cls-7 {
        stroke-miterlimit: 10;
      }

      .cls-1, .cls-5, .cls-7 {
        stroke: #0d212b;
      }

      .cls-1, .cls-11 {
        fill: #3eb0ff;
      }

      .cls-2 {
        fill: #fff;
      }

      .cls-2, .cls-3, .cls-4 {
        stroke: #000;
      }

      .cls-12 {
        fill: #001926;
      }

      .cls-3 {
        fill: #603a31;
      }

      .cls-4 {
        fill: #634131;
      }

      .cls-5 {
        fill: #163645;
      }

      .cls-13 {
        fill: #2384cc;
      }

      .cls-6 {
        stroke: #072b2e;
      }

      .cls-6, .cls-7, .cls-8 {
        fill: none;
      }

      .cls-6, .cls-8, .cls-9, .cls-10 {
        stroke-linecap: round;
        stroke-linejoin: round;
      }

      .cls-14 {
        fill: #567dff;
      }

      .cls-15 {
        fill: #072b2e;
      }

      .cls-8, .cls-9, .cls-10 {
        stroke: #0a3b4c;
      }

      .cls-16 {
        fill: #0d212b;
      }

      .cls-17 {
        fill: #f90;
      }

      .cls-18 {
        fill: #ccc;
      }

      .cls-9 {
        fill: #ffb92e;
      }

      .cls-10 {
        fill: #cffeff;
      }

      .cls-19 {
        fill: #00df8e;
      }

      .cls-20 {
        fill: #4c340c;
      }
    </style>
  </defs>
  <g id="Layer_19" data-name="Layer 19">
    <rect class="cls-11" x="660.1606165564" y="924.2029576957" width="495.6666666667" height="317.4360862465" rx="89.0066927264" ry="89.0066927264"/>
  </g>
  <g id="Boot_L" data-name="Boot L">
    <g>
      <path class="cls-9" d="M695.8324475552,1607.2096377274s-1.3851326665,9.1148991112,62.6368097657,30.1692533096c64.0219424321,21.0543541983,64.0302424082,11.4865769446,64.0302424082,11.4865769446-6.7311155866,20.4680008381-29.1097574621,56.9444357138-46.1653577645,95.8834512382-19.526903369,44.5811569192-33.5871217475,91.4872967109-35.0209853413,105.8591514545-13.4238879056,18.8873728118-131.1765528313-2.6379408088-164.6568968103-39.169447328,20.5877079541-60.9159149367,61.9778691871-46.7494762982,76.7658662185-57.9756678647,14.7879970314-11.2261915665,42.4103215237-146.2533177542,42.4103215237-146.2533177542"/>
      <path class="cls-17" d="M677.8259906789,1689.6222160293s53.7093345861,31.2308998704,113.4039450182,21.8547860674l29.75923596-59.6846340673c-46.5125731273-6.6814334398-88.5289810926-20.3561197813-125.8219314215-41.377993379l-17.3412495567,79.2078413789Z"/>
      <path class="cls-8" d="M695.8324475552,1607.2096377274s-1.3851326665,9.1148991112,62.6368097657,30.1692533096c64.0219424321,21.0543541983,64.0302424082,11.4865769446,64.0302424082,11.4865769446-6.7311155866,20.4680008381-29.1097574621,56.9444357138-46.1653577645,95.8834512382-19.526903369,44.5811569192-33.5871217475,91.4872967109-35.0209853413,105.8591514545-13.4238879056,18.8873728118-131.1765528313-2.6379408088-164.6568968103-39.169447328,20.5877079541-60.9159149367,61.9778691871-46.7494762982,76.7658662185-57.9756678647,14.7879970314-11.2261915665,42.4103215237-146.2533177542,42.4103215237-146.2533177542"/>
    </g>
  </g>
  <g id="Boot_R" data-name="Boot R">
    <g>
      <path class="cls-9" d="M1277.390972915,1569.9652012039s67.8744261516,119.9515731096,85.4015271927,126.0763557492c17.5271010412,6.1247826396,52.5404364679-20.1030608266,90.8922290224,31.5083954523-20.5985705594,45.0686508831-125.9939452639,101.8211328948-144.5833174521,87.9875194883-5.7914140698-13.2312394223-33.6174115847-53.5250299278-65.928030558-89.922878889-28.2214231472-31.7913778757-60.7484225045-59.6001575368-73.4574110874-76.9992547706,0,0,6.1886982645,6.7381058919,56.5150518723-30.0223294871,50.3263536078-36.760435379,51.1599510101-48.6278075432,51.1599510101-48.6278075432"/>
      <path class="cls-17" d="M1212.1274113208,1691.6241656367s54.1344199059-54.2647694064,93.2967143527-72.138033869l-28.3526950741-46.8374583737c-30.4690578108,34.1961119993-65.5020535818,59.3629866729-104.6306686886,76.426537177l39.68664941,42.5489550658Z"/>
      <path class="cls-8" d="M1277.390972915,1569.9652012039s67.8744261516,119.9515731096,85.4015271927,126.0763557492c17.5271010412,6.1247826396,52.5404364679-20.1030608266,90.8922290224,31.5083954523-20.5985705594,45.0686508831-125.9939452639,101.8211328948-144.5833174521,87.9875194883-5.7914140698-13.2312394223-33.6174115847-53.5250299278-65.928030558-89.922878889-28.2214231472-31.7913778757-60.7484225045-59.6001575368-73.4574110874-76.9992547706,0,0,6.1886982645,6.7381058919,56.5150518723-30.0223294871,50.3263536078-36.760435379,51.1599510101-48.6278075432,51.1599510101-48.6278075432"/>
    </g>
  </g>
  <g id="Arm_R" data-name="Arm R">
    <g>
      <path class="cls-5" d="M1338.9357753056,692.6220655562s30.6777823043-12.7746781973,59.8420024722,68.3779344438c30.6666666667,85.3333333333,48.2152364934,123.9906969535,57.8198065493,163.2029576957,7.4063108924,30.2375007066,34.141303021,93.3525627938,20.7402509362,107.2591842414-13.4010520849,13.9066214476-55.9695001241-36.4777512123-78.115613041-60.2399197149-22.146112917-23.7621685026-124.2683321638-192.6965251857-118.3020710208-222.6189634526,5.9662611431-29.922438267,36.4372252008-39.5844819496,58.0156241041-55.9811932134Z"/>
      <ellipse class="cls-10" cx="1351.0255824651" cy="757.9158307077" rx="84.5752328997" ry="57.4180480237" transform="translate(-127.6386850741 1219.7150455353) rotate(-46.6361388871)"/>
      <g>
        <path class="cls-1" d="M1188.2717276675,1174.1431723485c77.778490562,31.4051057673,189.6641893636-55.1633487538,287.9078634945-141.5728433017.5336780412-.4693925609.3272349025-1.3452131436-.3452971701-1.5750875425-4.2151899875-1.4407703425-16.6302338136-6.5758497251-28.7280816791-20.2589196943-14.8828548267-16.8330058535-71.4395456462-99.7363218101-85.2173234239-161.7363218101-16.1903057106-72.8563756976-22.9531135833-156.3779344438-22.9531135833-156.3779344438-24.8654582375,8.074415031-74.0340171727,48.4249362965-139.5276250371,97.5087896936-54.5477080253,40.8805040853-124.6470068773,79.6147406682-150.0745498377,93.8808038721-21.1838225653,11.8851338523-67.3059272498,18.1141763449-77.2042266009,21.7723116387"/>
        <path class="cls-13" d="M1447.1062051749,1010.7363197932c1.7823083118,16.52052887-76.2170110081,132.9283476298-266.9097819664,116.053019453l13.5958214171,51.066966484c92.2077553744,23.365916492,223.9033350827-86.9788650176,282.053114064-144.7439743386.5286766801-.5251794032.3428474675-1.4124560737-.3475081449-1.6930297114-11.0520574976-4.491766156-21.6973370504-9.9357988429-28.3916453697-20.682981887Z"/>
        <path class="cls-13" d="M1034.0495054453,866.4463469784l78.7777777778,35.6615416351c-114.8560930687,0-158.3333333333,78.3384583649-178.3333333333,87.7190421575-13.8589875135,14.3971939852-118.6666666667,17.0638606519-175.3333333333,1.5083050964-24.0536399241-6.6029599792,274.8888888889-124.8888888889,274.8888888889-124.8888888889Z"/>
        <path class="cls-7" d="M972.1293738298,905.7839707607c9.8982993512-3.6581352938,56.0204040356-9.8871777865,77.2042266009-21.7723116387,25.4275429604-14.2660632039,95.5268418124-53.0002997869,150.0745498377-93.8808038721,65.4936078644-49.0838533971,114.6621667996-89.4343746626,139.5276250371-97.5087896936,0,0,7.3676433971,81.3805184016,22.5938479168,154.4444641937,11.4703767777,55.0413588635,71.1834803575,147.1513003667,85.5765467638,163.6697940191,13.8819898809,15.9319617946,22.1433837504,18.3720579757,28.9628846669,20.3545102805.6344324445.1844316875.8818057479.9476484411.4705211512,1.464721506-21.1008001729,26.5282373919-200.6506869153,183.2920907935-288.2678752634,141.58762302"/>
      </g>
    </g>
  </g>
  <g id="Hood">
    <g>
      <path class="cls-1" d="M901.973338428,967.0621280544c-46.1465904415,11.8474573468-83.5540851273,1.6384094229-153.5609561825,32.6980030378-63.4382107517,28.1453012992-64.6552351725,53.6615262749-106.3367998104,61.4506893502-37.0306868491,6.9199967607-156.2557431679-28.1843464632-158.6752772592-83.963047738-2.4195340913-55.7787012748,53.7761931837-241.9928561329,80.0958229539-308.7718925068,0,0-6.8938739839-32.8979696286-14.614518141-42.8166337969-7.7207774854-9.9186299382-40.7671860555-95.8773245128,1.1638697146-142.591981187,21.7268078744-24.2055163031,132.1548513003,22.9883732406,178.7303071491,6.8913871591,46.5755891772-16.0970203115,110.9874703417-37.2906916053,175.994794985,16.390125193,65.0073246432,53.6808167984,277.1502060481,231.0248456867,277.9502419387,242.202970455.7756311357,10.8374752491,45.8805892353,38.9908437559-51.7404361727,145.6877280012-5.6413597305,6.1658387999-14.2012532604,8.7338791008-22.3241344289,6.7688576662-15.0734904326-3.6464563717-34.6072623759-6.4533385827-56.8759266167-4.5856449424-63.1977208791,5.3003134025-117.9729448748,62.4665176251-149.8069881299,70.6394393086Z"/>
      <path class="cls-13" d="M905.7526075659,965.898835622s-63.4683692431-4.6789375895-87.5320692037-2.5668685385c-24.0636999606,2.112069051-73.5753218417-9.3508118724-97.0863011476-2.6757217751l-42.9205065901,3.410626641s-40.5606372229-1.4544926769-57.2227577597-14.1385779404c0,0-9.5676065479-6.99929958-10.7625108829-10.8822058419-1.194904335-3.8829062619,3.6628993144,23.6196261468,18.7484986966,29.8365048647-18.6981057394,12.9156427003-78.1050898225,51.8147409823-143.6644394168,19.0026288104l7.5691750256,17.2314005003,37.779161036,28.3448927643,69.0384498515,24.9326006344,38.2627840261,4.9410791842,25.6591263905-7.8811776268,29.1881168088-21.9512300339,27.7984016037-20.1030068216,38.2280868875-19.3869523896,52.1775701129-14.4306824522,94.7392145616-13.6833099794Z"/>
      <path class="cls-13" d="M1145.7685981829,874.9465205206c-.5461127703.1402064094-32.4844050713-5.7924131778-57.0238030375.1519826846-.498511678-1.9417342945,15.0159736919-12.1075518369,15.0159736919-12.1075518369-15.1272579247,3.0142326194-28.8726629219,8.1537678369-41.393125916,15.1766470865-17.8555065072,8.7178774837-34.5282579702,17.1082955379-45.5745243987,23.9402901588l44.4136162016-7.3632451054,49.0789568081,5.9987067105.0000110644.000003788c6.6570493271,2.2790980433,14.029683365.1952492779,18.5087237457-5.2314246895l16.9741718405-20.5654087965Z"/>
      <path class="cls-13" d="M551.6248866769,630.1487986274c13.6176581072-2.1846120967,28.1535253718-12.4051606118,43.0284883535-25.5916185075l-31.5356352227,65.7968399574c-2.041564422-14.0073295253-5.6744138904-27.4760835654-11.4928531308-40.2052214499Z"/>
      <path class="cls-6" d="M1051.7803265579,896.4226887458c-63.1977208791,5.3003134025-117.9729448748,62.4665176251-149.8069881299,70.6394393086-46.1465904415,11.8474573468-83.5540851272,1.6384094229-153.5609561824,32.6980030378-63.4382107517,28.1453012992-64.6552351725,53.6615262749-106.3367998104,61.4506893502-37.030686849,6.9199967607-156.2557431679-28.1843464632-158.6752772591-83.963047738-2.4195340913-55.7787012748,53.7761931837-241.9928561329,80.0958229538-308.7718925068,0,0-6.8938739838-32.8979696286-14.614518141-42.8166337969-7.7207774854-9.9186299382-40.7671860555-95.8773245128,1.1638697146-142.591981187,21.7268078744-24.2055163031,132.1548513003,22.9883732406,178.7303071491,6.8913871591,46.5755891771-16.0970203115,110.9874703417-37.2906916053,175.994794985,16.390125193,65.0073246432,53.6808167984,277.1502060481,231.0248456867,277.9502419387,242.202970455"/>
      <path class="cls-16" d="M832.3749681633,961.770745914c-9.5013154655,2.5415241169-19.5043731209,2.1004559887-29.2525560923,1.9753613412-19.5495367575-.6598146626-39.0374253224-2.4875648932-58.5691599347-2.9845676634-14.5758974803-.378265583-29.2023831242-.2254864215-43.5821557314,2.1737225883-14.4693318012,3.0484822719-29.6292761094,3.3266970797-44.1789637025.6932115266-14.436145687-2.7007013947-29.105773894-7.3090572239-40.6670921978-16.6654896017-3.4907157654-3.0322331586-7.8149360747-7.6021755208-5.9851561075-12.5848912672-1.4847006449,4.9711348134,2.9668562875,9.1348540348,6.4873048343,11.9683060909,11.7710590652,8.6004381166,26.3360846138,12.6184449694,40.5429102249,14.9721241844,14.4272875424,2.2371706763,29.0358853087,1.7841697155,43.2975663872-1.2712275272,24.3140568594-4.0863949429,49.1900638957-2.1142562475,73.5052600776-.1904054602,9.7518957579.8037483664,19.4808996641,1.7611458273,29.2215612852,2.4288094015,9.7058707385.5901936047,19.5726118453,1.3804559499,29.180480957-.5149536133h0Z"/>
      <path class="cls-15" d="M1003.61782705,908.0454041172c15.959053019-9.163290299,32.1399740199-17.8648734481,48.6494616908-25.9784789983,8.2588635045-4.0324462946,16.6034679967-7.9000000056,25.1136608678-11.3794921931,8.5188274367-3.32287135,17.2067719381-6.8236215189,26.3798472428-7.6966147279-9.1317490144,1.1212794053-17.6806210296,4.8421883436-26.0880188214,8.3873972242-16.7635707265,7.4376631945-32.9048850916,16.202444184-48.8421405729,25.2563239456-7.959270368,4.5442876011-15.8703421453,9.20206348-23.6691092352,13.9832524448,0,0-1.5437011719-2.5723876953-1.5437011719-2.5723876953h0Z"/>
      <polygon class="cls-20" points="559.9479662102 673.4969727207 594.6534105461 604.5571839023 562.6532884758 674.7936035801 559.9479662102 673.4969727207 559.9479662102 673.4969727207"/>
      <path class="cls-7" d="M901.973338428,967.0621280544c-46.1465904415,11.8474573468-83.5540851273,1.6384094229-153.5609561825,32.6980030378-63.4382107517,28.1453012992-64.6552351725,53.6615262749-106.3367998104,61.4506893502-37.0306868491,6.9199967607-156.2557431679-28.1843464632-158.6752772592-83.963047738-2.4195340913-55.7787012748,53.7761931837-241.9928561329,80.0958229539-308.7718925068,0,0-6.8938739839-32.8979696286-14.614518141-42.8166337969-7.7207774854-9.9186299382-40.7671860555-95.8773245128,1.1638697146-142.591981187,21.7268078744-24.2055163031,132.1548513003,22.9883732406,178.7303071491,6.8913871591,46.5755891772-16.0970203115,110.9874703417-37.2906916053,175.994794985,16.390125193,65.0073246432,53.6808167984,277.1502060481,231.0248456867,277.9502419387,242.202970455.7734461121,10.806945094,45.6268114812,38.8323599674-50.9188080477,144.7878720693-6.0424268904,6.631356644-15.2006316123,9.5539649112-23.9292209168,7.4809134357-14.9642744434-3.5540349228-34.207661798-6.2333439098-56.0924682538-4.3978447799-63.1977208791,5.3003134025-117.9729448748,62.4665176251-149.8069881299,70.6394393086Z"/>
      <path class="cls-5" d="M935.8922870885,910.2329890364c75.9665112868-72.9279257438,133.1096935485-93.6873382612,155.1779633233-118.1009371485,9.2601781769-10.2443135752,10.3710952892-28.0829728612,5.6278378695-41.0521042718-8.4858893489-23.2023279295-28.484998076-47.8040150805-69.772859253-81.4926161486-26.4608031671-21.5905454152-51.657971937-44.7070703898-75.2081696446-69.4399218936-31.4115304358-32.9889679662-61.0352284993-62.0005908602-86.4875760183-72.1751913849-13.3403037371-5.3327993145-28.5184132272-2.7920949704-39.642750362,6.2991962272-35.5865587549,29.0828805744-84.6194540184,100.534669129-107.9629819841,194.6601530968-21.6713364554,70.5959816578-50.6260973464,125.8142479061-42.4475159059,161.6328557548,2.8773251675,12.6014251464,12.2636382,22.6439747046,24.2433203948,27.4980585884,44.2186868071,17.917104269,137.8976567763,9.5734656085,193.4859500368,9.9223550561,10.0859811362.6010856879,25.1886394471.5941355198,42.9867815435-17.7518478759Z"/>
      <path class="cls-20" d="M733.0282884758,490.0774475742c-20.291301735,7.4379596527-42.8896004352,12.1422207989-62.6556141947,20.8598779219-1.3001963522.6610266191-2.6131235983,1.350418709-3.6831919577,2.3605810625,1.0268554688-1.0561828613,2.3198242188-1.8081665039,3.5963134766-2.5264282227,13.7360325057-6.9250290886,30.7132809765-12.0083450622,45.2231263047-17.3182663447,5.5161315078-1.9660659307,11.0673400039-3.9141555303,16.3953429336-6.1572280401,0,0,1.1240234375,2.781463623,1.1240234375,2.781463623h0Z"/>
    </g>
  </g>
  <g id="Arm_L" data-name="Arm L">
    <g>
      <ellipse class="cls-10" cx="297.1458060332" cy="1040.6200621416" rx="57.4180480237" ry="84.5752328997" transform="translate(-774.473171632 1191.678032744) rotate(-82.0871565843)"/>
      <path class="cls-1" d="M766.4635638531,992.3653004828c-13.358026957.0534677016-117.1735542467,1.0858485128-130.417284805.3489161526,0,0-290.3563297679-14.0331135517-301.5094973363-24.0759025653-11.1531675683-10.0427890136-120.6463619032,173.4652768356,30.3335281879,316.4173492595,0,0,190.9849648594,2.2472457225,303.231199346-5.8836916815"/>
      <path class="cls-13" d="M364.8703202114,1285.0556263783c-96.408324068-85.9598051561-78.5734826533-205.470911682-72.0727925227-232.3558628898,113.0455351437,186.5595169064,238.8678867132,206.9670092435,375.3039815571,226.4722081596l-303.2311890344,5.8836547303Z"/>
      <path class="cls-7" d="M766.4635638531,992.3653004828c-13.358026957.0534677016-117.1735542467,1.0858485128-130.417284805.3489161526,0,0-290.3563297679-14.0331135517-301.5094973363-24.0759025653-11.1531675683-10.0427890136-118.9779957734,170.9943573012,30.3335281879,316.4173492595,0,0,187.6057337137,1.1633012746,303.231199346-5.8836916815l265.1787517071-75.5828979031"/>
    </g>
  </g>
  <g id="Eye">
    <path class="cls-2" d="M1040.1006254478,726.8739903738c8.6666453751,33.757128042-21.2728276621,12.8326599038-52.7177866691,20.905689938-31.444959007,8.0730300341-52.4878377165,42.0864660025-61.1544830917,8.3293379605-8.6666453751-33.7571280421,9.7988262688-67.6671711779,41.2437852758-75.740201212,31.444959007-8.0730300341,63.9618391098,12.7480452716,72.628484485,46.5051733136Z"/>
  </g>
  <g id="Pupil">
    <path class="cls-12" d="M1015.009723483,729.2418431373c5.865624839,21.7355476069-9.7863676582,12.5069617474-27.2605161344,17.2225917005-17.4741484762,4.7156299531-30.1533483933,21.5897625892-36.0189732323-.1457850177-5.865624839-21.735547607,3.5449429281-43.1784637542,21.0190914042-47.8940937073,17.4741484762-4.7156299531,36.3947731235,9.0817394176,42.2603979625,30.8172870246Z"/>
    <path class="cls-2" d="M850.4300847702,767.1282595709c8.6666453751,33.757128042-21.2728276621,12.8326599038-52.7177866691,20.905689938-31.444959007,8.0730300341-52.4878377165,42.0864660025-61.1544830917,8.3293379605-8.6666453751-33.7571280421,9.7988262688-67.6671711779,41.2437852758-75.740201212,31.444959007-8.0730300341,63.9618391098,12.7480452716,72.628484485,46.5051733136Z"/>
    <path class="cls-12" d="M825.1354003488,768.7409789186c6.2118062777,23.0183526958-9.6398991309,13.0497134701-27.1140475117,17.7653437766-17.4741483808,4.7156303065-29.9536352319,22.3298168817-36.1654415096-.6885358141-6.2118062777-23.0183526958,2.9181259074-45.5011881234,20.3922742882-50.2168184298,17.4741483808-4.7156303065,36.6754084554,10.1216577715,42.8872147331,33.1400104673Z"/>
  </g>
  <g id="Mouth">
    <path class="cls-2" d="M961.8591213788,807.0453041928c5.0219558367,19.5608333863-9.9355708476,40.3033414395-33.4085709112,46.3296884436-23.4730000636,6.026347004-46.5727259114-4.9455220529-51.5946817481-24.5063554392-5.0219558367-19.5608333863,15.0018048484-14.036716693,38.4748049119-20.063063697,23.4730000636-6.0263470041,41.5064919107-21.3211026936,46.5284477474-1.7602693073Z"/>
  </g>
  <g id="Cloak_L" data-name="Cloak L">
    <g>
      <path class="cls-11" d="M800.1682615142,1246.711993666c-4.3267226914,75.080905438-92.9639177364,346.183967098-111.9048297486,394.1672352036-112.7670087719,24.312083316-185.703431179-33.1059708184-211.0501370633-55.8662781431-17.1723655848-15.4200833823-27.4591426418-17.0689713214-32.3080908565-16.5287117421-1.1021367518.1227977515-1.8442946393-1.0815934358-1.2289801578-2.0041837003,22.2256384853-33.3246791724,118.8231486216-230.1543256943,186.6519119142-363.7368055595l282.1455789771-192.7413471907-112.3054530652,236.710091132Z"/>
      <path class="cls-13" d="M645.3828387786,1646.6685692006s124.6666666667-332.5555555556,146.3365546332-399.9565429688c-4.8600871844,40.4454560213-38.5392803171,175.498450964-71.993453562,309.8127588864-7.1835651831,28.8411128536-14.3567550731,57.6481660763-21.2320103052,85.4771581058l-53.1110907661,4.6666259766Z"/>
      <path class="cls-13" d="M791.7193934119,1246.7120262319c3.5228260071.5999849472,5.635667589-.1684570312,8.4488681024-.0000325659,2.4506883755,120.3871310902,57.8109751644,334.8176866458,39.7979105977,393.039908868-15.6666666667,5.1111111111-89-.8888888889-141.4722425673,2.2500406901"/>
      <path class="cls-7" d="M800.1682615142,1246.711993666c-4.3267226914,75.080905438,58.73882261,345.0566407625,39.7979105977,393.039908868-35.5170133918,7.6573157178-93.7975047223-5.0251990732-141.4722425673,2.2500406901-142.5277574327,21.7499593099-203.917108632-41.3972546761-221.2806348423-56.9889924976-17.1723655848-15.4200833823-27.4591426418-17.0689713214-32.3080908565-16.5287117421-1.1021367518.1227977515-1.8442946393-1.0815934358-1.2289801578-2.0041837003,22.2256384853-33.3246791724,118.8231486216-230.1543256943,186.6519119142-363.7368055595"/>
    </g>
  </g>
  <g id="Cloak_R" data-name="Cloak R">
    <g>
      <path class="cls-11" d="M912.4737145794,1028.2241247562l267.7227086291,98.56521449c63.1081248548,150.0111164582,276.3997927386,295.5391420798,276.3997927386,295.5391420798,0,0,1.3794125651,85.8684321795-83.4544601906,112.0772709171-84.8338727557,26.2088387375-96.9037327006,40.0029643889-110.3530052107,57.245621453,0,0-172.5989972123-205.1876190636-209.325856759-309.1608411605l-140.9891792074-254.2664077795Z"/>
      <path class="cls-13" d="M1298.4939905798,1561.3351951772c-60.0000406901-52.6666259766-171.4202880859-228.0629882812-216.5806884766-345.4875488281-.5918838958,1.1837677917-21.3330404745,30.1559784384-29.7526855469,68.6338353018,13.7432965119,16.353895175-11.0202294011,129.9951800079-20.6545610166,214.1859932499-7.3556773909,64.2785079651-2.1333081609,102.1508882031,13.4901795332,121.2328208806,106.4004925945,32.0877178638,210.5399839285-21.5512513011,210.5399839285-21.5512513011,15.860508666-14.0276975018,10.7858965783-16.6722965687,42.9577715783-37.0138493031Z"/>
      <path class="cls-7" d="M1053.4628937869,1282.4905325356c22.9542866694,64.9832622613-60.638031625,270.3567476025-6.8439642422,339.6085786572,78.8411254883,25.1137695312,207.4444647895-12.444430881,216.1698608398-30.4477539062,13.44921875-17.2426757812,25.5190926162-31.0367663059,110.3529653719-57.2456050434,84.8338727557-26.2088387375,83.4544601906-112.0772709171,83.4544601906-112.0772709171,0,0-213.2916678838-145.5280256216-276.3997927386-295.5391420798"/>
    </g>
  </g>
  <g id="Cloak_mid" data-name="Cloak mid">
    <g>
      <path class="cls-11" d="M1081.9132779427,1215.8476629826c43.1058813645,174.7662364017,177.8814415424,363.1131659609,202.8955908709,397.0534104667,1.4884810056,2.0196333127.1213136346,4.8717774575-2.3851546733,4.9818276408-6.6397150054.2915264679-17.6627461119,2.6812739164-29.2908515504,13.3403705684-18.6220696293,17.0702304935-68.798201686,40.3478175301-156.7357527133,30.0022232916-87.9375510273-10.3455942385-134.4927251005,6.724636255-229.6721920947,27.415824732-95.1794669942,20.691188477-185.7034335555-27.4157975731-185.7034335555-27.4157975731,0-75.4366518146,95.3519105392-290.1077322635,110.6979214965-414.513528443l120.7543088565-236.710091132,169.4395633633,205.8457604487Z"/>
      <path class="cls-1" d="M1081.9132779427,1215.8476629826c43.1058813645,174.7662364017,177.8814415424,363.1131659609,202.8955908709,397.0534104667,1.4884810056,2.0196333127.1213136346,4.8717774575-2.3851546733,4.9818276408-6.6397150054.2915264679-17.6627461119,2.6812739164-29.2908515504,13.3403705684-18.6220696293,17.0702304935-68.798201686,40.3478175301-156.7357527133,30.0022232916-87.9375510273-10.3455942385-134.4927251005,6.724636255-229.6721920947,27.415824732-95.1794669942,20.691188477-185.7034335555-27.4157975731-185.7034335555-27.4157975731,0-75.4366518146,95.3519105392-290.1077322635,110.6979214965-414.513528443"/>
    </g>
  </g>
  <g id="Stick">
    <g>
      <path class="cls-4" d="M1184.6428581407,208.8069102133s-77.476403256,91.8546928431-76.472506763,98.5031633561,26.1145446183,26.0285493804,25.1994616694,32.1397455048,65.0282389889,23.1014953665,65.4232778496,27.8815249624c.3950388607,4.7800295959,13.2345818299,30.3069917071,18.8648744266,30.5391277374,5.6302925966.2321360304,82.8305689855-.5100400454,91.112949051,15.3926417591,8.2823800655,15.9026818045,89.8858084495,33.2315333059,137.0639416033,17.8578780921,47.1781331538-15.3736552138-20.9859022939,140.1500977847-14.6033641606,161.3222725088,6.3825381333,21.1721747241,1.5753647749,42.89040505,6.7925226692,52.5579724612,5.2171578942,9.6675674112,8.6086285608,59.7168403079,8.2680080614,87.2135418029-.3406204994,27.496701495,1.9273379483,59.8271866957,6.635517593,75.8611488981,4.7081796447,16.0339622024,4.4360375128,56.426134693,3.9061252531,65.8996196758-.5299122597,9.4734849828-1.6597979124,75.8386809305,25.3811460274,120.7649989787,27.0409439398,44.9263180482,50.8267096964,31.1040340134,86.7541006659,117.5717614491,35.9273909696,86.4677274358,29.1757600709,45.1349033171,21.1777604804,79.2605603992-7.9979995906,34.1256570821-.8962574373,63.8475633356,20.9589296236,94.4456786852,21.8551870608,30.5981153496,5.2504208282,33.5546316346,10.121281886,48.5021589705,4.8708610578,14.9475273359,11.2524229414,53.5590307856,44.591283305,86.0988560877,33.3388603636,32.5398253021,16.9662301614,29.8660489905,29.8883115041,48.9072220018,12.9220813428,19.0411730113,11.1402146349,18.3300406624,11.2819620379,20.3506959874s-45.5807675382-25.7087156156-62.2235873728-22.8689768879c-16.6428198346,2.8397387277-23.6748859535-19.9292681967-27.8160759862-27.880609099-4.1411900328-7.9513409023-11.4836733028-1.9417099525-11.4836733028-1.9417099525,0,0-65.3200293977-151.2961699182-67.6154838616-248.7233347341-2.2954544639-97.4271648159-50.2196234021-121.2096495694-63.162638755-137.1437323891-12.9430153529-15.9340828197-52.3202909302-51.5441423784-52.3202909302-51.5441423784,0,0-40.2458229917-174.3095269237-39.1859984723-193.2564968893s-12.0668062568-30.6875277272-6.5299618734-45.4095716195c5.5368443835-14.7220438923-9.218371862-107.5723094614-11.9686982121-114.426748492-2.7503263501-6.8544390306,11.7724981903-25.5381132172,9.1342010207-56.7144955099-2.6382971695-31.1763822927-11.9975307655-94.7823188426-7.6203902841-98.7922284775,4.3771404814-4.0099096348-7.8942152088-27.3968221123-48.2863876995-27.6689642443,0,0-28.2320488571-29.5535485033-49.078860755-25.3438801031-20.8468118978,4.2096684002-73.7406141903,14.7286058983-116.6423719144-28.1295124675-42.9017577241-42.8581183658-84.6172011989-77.3187196102-83.7200580926-95.1792547093.8971431063-17.8605350991-19.3684251695-35.9532861408,18.7663109688-45.6275419671,32.2149053103-8.1724765123,40.5970676851-69.7541954191,58.2723130964-70.9183473082,10.8257539873-.7130210451,48.9260334268-27.499322366,56.7654916572-79.7281340996,1.2231912497-8.1492653724,63.1608326349-92.1497702942,67.4308372897-90.9542576742,8.5287975192,2.3878861716,37.4534400492,21.3815148256,38.0099626561,31.0176812215.5565226069,9.6361663959-25.1192823285-7.3158729228-33.4064530621.5517319388-3.9810412024,3.7794876111-30.4885471174,21.6850241533-46.0178497042,56.3324746242-16.7974117995,37.4767308518-23.2521380145,91.8023242347-43.645919194,93.2794818995Z"/>
      <path class="cls-2" d="M1393.3322455184,864.6800517868c2.0701288092,2.2512307202,16.0146405897,14.4547050242,63.7242236102-1.5345666344,1.2116961464-.4060848498,2.0210602506-1.5530202878,1.9990053328-2.8307628429-.1578990403-9.1478157079-1.0467768118-44.8951599506-5.3800567455-53.709691027l-31.3463250508,6.0809474857-29.0731334504,51.2824688581c-.1313491306.2316883975-.1039873879.5155595129.0762863036.7116041603Z"/>
      <path class="cls-18" d="M1401.0105110192,867.7409874942c20.7262554528-16.4933376013,38.721590747-34.1515485013,53.3175408924-53.2599319703,0,0,.2982068503-5.7489174623-1.9580610463-9.1998963349l-59.0822448198,55.9663541023,1.6264567834,3.6695707437s4.6245785469,3.1582631707,6.0963081903,2.8239034593Z"/>
      <path class="cls-2" d="M1450.9139856613,792.5965518117l2.7614320547,14.0084794709s-37.1987319432,45.0558754574-60.0900937628,57.4477423708c-.2720190289.1472530831-.6058085521-.0148044534-.671198127-.3171321334l-9.5662382982-44.229353654c-.1475966371-.6824107509.15687749-1.3828808114.7565368516-1.7404809376l38.6369827371-23.0407307667,26.9109865947-3.0515183576c.5966830527-.0676597003,1.1454515994.3338251698,1.2615919498.9229940076Z"/>
      <path class="cls-18" d="M1385.5034358972,824.0783943293s57.4350894875-18.5229421112,65.4614090232-25.895592414l-1.7876817194-8.2005267218-65.1946603093,26.1558500029,1.5209330055,7.940269133Z"/>
      <path class="cls-2" d="M1374.0569168391,589.6374276489c16.3575103365,5.0805693987,35.2419203687,5.4203896883,55.9028854847,2.4249066075.7130183462-.1033753448,1.1434252791.7607609457.6174875204,1.2531744893-9.5235418111,8.9164941926-56.0088503018,52.1362380566-66.3400148214,55.9659579532,0,0-2.3750238325-4.9098909096-1.3437621598-8.0878548027.9951347254-3.0666341143,10.127113515-32.8419319742,9.4728812765-50.2887873391-.0336436266-.8971974375.8331002362-1.5337084825,1.6905226997-1.2673969082Z"/>
      <path class="cls-2" d="M1380.8477529432,795.3067724743l2.1703174832,22.2100371511c.0434023201.4441595067.4665144808.7452707668.8972920883.6286856834,6.8523920944-1.8545223569,54.9048264352-15.1370696302,66.1164388924-25.8955104413.430028169-.4126464968.6630602038-.9847244464.6347871727-1.5800411631l-3.0031537017-63.2343803235c-.0396443353-.8347508072-.9258942571-1.3518518234-1.6721080007-.9756263161l-47.673835666,24.0361600992-16.9424240691,41.2305449834c-.4653455451,1.1324501354-.646386204,2.3616018524-.5273141991,3.5801303269Z"/>
      <path class="cls-18" d="M1382.2484159499,799.4508496638s64.1358933689-56.9244283588,64.7754561486-64.4698573208l-.615163086-11.4301947558-39.2674934768,34.2698857185-25.7661483933,33.9059588417.8733488076,7.7242075164Z"/>
      <path class="cls-18" d="M1364.6742923012,647.8752534543l-1.6459301585-5.2505896517s46.9891707387-36.4206298372,57.4892968519-48.3566917434l9.1582256417-1.0615569207-65.001592335,54.6688383158Z"/>
      <path class="cls-2" d="M1440.3265344196,730.6583626099c-5.548487401,7.0659067606-38.7303726779,48.807520159-58.5905121448,62.0966798761-.5685182064.3804167267-1.3405769839.1611884737-1.6338104128-.4568277018-2.1180764271-4.464039103-9.2718885793-20.8629843779-5.2398900782-30.9294758664,3.9260913224-9.8020782669,1.7516664473-22.8418736808.9280419746-26.8748107831-.1397684002-.6843861316.3057076285-1.3492506852.9923383703-1.4775386705l59.130288533-11.0477220526,4.4846286979,6.5988844449c.4341740077.6388631698.405965745,1.4832946114-.0710849399,2.0908107533Z"/>
      <path class="cls-18" d="M1377.21824534,737.6855993253c.1570592187,4.7480378832,54.4190948425.3755872138,58.3689369586-2.6164201247,1.3565832234-1.0276182323,6.1026175163-7.5359970912,5.4329921806-8.2367678465l-65.0977685586,4.0697254001,1.2958394194,6.7834625711Z"/>
      <path class="cls-2" d="M1373.4868798024,703.4427151303c-.6015150828.9852802012-.8735278899,2.1312295695-.7760384359,3.2814874867.5144368116,6.069733608,2.2214261978,25.7366909966,2.8069967378,26.5285101684.6720809311.9088001016,56.5895959817,4.602142108,70.8619718716-6.5210247545.7778581448-.606223239,1.1910033992-1.5688930647,1.1744825139-2.5549442649l-.5866329746-35.0132658361c-.0148810871-.8881796312-.6619249372-1.6390360065-1.5381635311-1.7849484134l-56.4015396889-9.392058814-15.5410764927,25.4562444277Z"/>
      <path class="cls-18" d="M1374.1493722285,711.0528234055l14.2649045232-13.5922560979c2.1782414524-2.0755284843,5.1927848212-3.0226886642,8.1686356106-2.5789923786,10.6882717466,1.5936103013,36.9695431566,4.7026791159,49.4076456797-1.0005830707l-.2391184365-10.8550316104-54.9374247903-1.2208474596-18.6097770843,21.1018318632,1.9451344977,8.145878754Z"/>
      <path class="cls-2" d="M1391.1074313122,686.1675259312s21.0453417773,8.9509305154,54.6851418209,1.7153283102c.654717772-.1408235884,1.1093416625-.7521214354,1.0537499394-1.4195015403-.5694536935-6.836306646-3.6187776691-41.726997232-7.3112893682-51.6751420182-.2777963558-.748422373-1.2627844454-.9191879217-1.7974310252-.326347388l-46.630171367,51.7056626363Z"/>
      <path class="cls-18" d="M1397.0455489196,687.0519302824s34.9875849951-30.8438181559,43.1221472761-46.5457644912l-3.1279164138-10.0288209686-46.8842595476,53.4969322693"/>
      <path class="cls-2" d="M1431.3235798736,592.645160943c.4168480766-.3985283467,1.1015693745-.1710070491,1.2052947662.3962919948,1.2742909151,6.9694026326,7.0816681125,39.0251046475,6.3123613304,40.1966513842-.863346757,1.3147564786-62.384497448,70.1915144516-66.2788271925,71.7188920348-3.5169733883,1.379376341-7.4714906579-45.1411717095-8.2048453088-54.1697051905-.0767228471-.9445563523.3119528284-1.8578525635,1.0461427613-2.4570505611,7.8463345157-6.4036671164,53.0112771803-43.3437930047,65.9198736435-55.6850796622Z"/>
    </g>
  </g>
  <g id="Fire_outer" data-name="Fire outer">
    <path class="cls-19" d="M1527.7566336864,397.7918394246c23.1713733685,51.4488173622-7.483257031,111.4641210214-61.1446491582,130.0886639467-53.6613921272,18.6245429253-115.7527111426-8.9723421311-128.5900853467-64.2364270382,0,0-4.3480397807-25.8647766176,4.1050338616-54.8581001909,8.4530736423-28.9933235733-13.1970442103-51.1960429649-13.1970442103-51.1960429649,0,0,23.2928137208,5.8597427659,31.4358322633,29.3215647746,0,0,1.4476616536,23.2711045794,16.3576396872,19.4677708015,14.9099780337-3.8033337779,9.0700088601-23.2640584995,7.9538886041-25.1625992213-1.116120256-1.8985407218-5.9023673033-18.9818841776-24.2412903363-32.9615716974-18.338923033-13.9796875197-30.7122868874-37.1162204652-25.5907525589-70.4394534287,5.1215343285-33.3232329634,27.2941338516-62.9636116231,27.2941338516-62.9636116231,0,0-20.7094810625,43.0766691129,9.9992827849,85.451724835,30.7087638474,42.3750557221,39.3419857992,22.4628810306,40.3992309654,19.5814270394,1.0572451662-2.8814539911,2.9747657349-19.0912236302-18.8373143257-37.8088522272,0,0,42.7380816354,9.8545877186,57.7783145176,49.8956804578,0,0,3.7696908695,12.1785524834,1.24540733,20.7124958079-2.5242835394,8.5339433244-3.1791784512,32.9919770168,12.2986350848,42.0212968885,15.477813536,9.0293198718,20.3728291341-3.8706195949,20.6932305101-5.5819659273.320401376-1.7113463324-1.0803189548-15.6264773297-9.0467122278-24.7483151998-7.9663932729-9.1218378701-13.2062486829-24.2190102931,3.0379576101-47.2299532336,0,0-6.1296797792,29.1012983786,17.5977624573,48.0685194947,23.7274422365,18.9672211161,30.4514986358,32.5777487061,30.4514986358,32.5777487061Z"/>
  </g>
  <g id="Fire_wisp" data-name="Fire wisp">
    <path class="cls-14" d="M1444.9005554613,293.5927343166s-.3399086174-8.8828301226-8.7894470161-14.9510081838c-8.4495383987-6.0681780612-6.0336143336-28.2514493705-1.3325694057-31.2546169612,0,0-1.0916261092,11.1798412453,5.6279829828,18.1913227838,6.719609092,7.0114815386,12.6899288841,15.5688520171,4.494033439,28.0143023611Z"/>
  </g>
  <g id="Fire_inner" data-name="Fire inner">
    <path class="cls-14" d="M1424.9317593172,533.387996889c-84.0152479895-21.8600501051-57.4387164997-101.1745199831-57.4387164997-101.1745199831,0,0,2.3261231576,22.5090286079,24.7019447788,20.4577301507,22.3758216212-2.0512984571,21.1763878395-38.4382921138,20.8006344136-46.7657757511-.3757534259-8.3274836373-10.0442885587-44.7467555552-24.6520513178-55.2210077861,0,0,42.1597048687,4.4834017119,58.0684254441,38.7940074556,9.1179869085,21.7597794985,10.560465632,43.681809841,23.6644209422,48.5060165821,13.1039553102,4.8242067412,27.8386727216-2.1185842741,28.7529355268-16.6085968536.9142628052-14.4900125795-3.0713776749-22.0217773367-3.0713776749-22.0217773367,0,0,23.6278781584,21.9734713667,25.8796694191,49.5373193879,2.2517912607,27.5638480212-15.9843394917,54.7034714212-15.9843394917,54.7034714212-21.1256923844,20.3926636176-47.4706500373,31.3411541461-80.7215455404,29.7931327131Z"/>
  </g>
  <g id="Lantern">
    <g>
      <path class="cls-9" d="M1297.0700825984,39.5990472885c-20.4970225083,7.1140099131-31.3461184596,29.497130177-24.2321085465,49.9941526853,7.1140099131,20.4970225082,29.4971631456,31.3460504407,49.9941856539,24.2320405276,20.4969720145-7.113992388,31.3460679659-29.4971126519,24.2320580527-49.9941351602-7.1140099131-20.4970225083-29.4971631456-31.3460504408-49.9941351602-24.2320580528ZM1320.8302068179,108.0571663672c-17.3114177245,6.0083652273-36.2157934044-3.1545015567-42.2241586317-20.4659192812-6.0083652273-17.3114177245,3.1545575514-36.2158128387,20.4659752759-42.2241780661,17.3113617299-6.008345793,36.2157568441,3.1545769857,42.2241220714,20.4659947102s-3.1545769857,36.2157568441-20.4659387156,42.2241026371Z"/>
      <polygon class="cls-9" points="1338.5615873782 518.6960315106 1401.3164613279 527.1311500346 1405.1399571113 559.0414718102 1340.1609964109 545.9394376645 1338.5615873782 518.6960315106"/>
      <polygon class="cls-9" points="1194.170877198 280.8540545036 1267.3549986274 271.1658625603 1258.8688943256 246.7155352475 1186.1839555022 257.8419817387 1194.170877198 280.8540545036"/>
      <polygon class="cls-9" points="1258.8688943256 246.7155352475 1301.7869657112 154.467325774 1197.1183408067 256.1681706992 1258.8688943256 246.7155352475"/>
      <polygon class="cls-9" points="1209.192481772 278.8654784906 1343.9999009812 519.4270156864 1365.8187548513 522.3597698594 1225.1711738169 276.7502022187 1209.192481772 278.8654784906"/>
      <polygon class="cls-9" points="1274.9058350034 268.5451538788 1397.1382447793 526.569540241 1401.3164613279 527.1311500346 1419.6542068125 520.7665718083 1293.9627077619 261.9309843494 1274.9058350034 268.5451538788"/>
      <polygon class="cls-9" points="1561.3112604747 441.3851254123 1517.2757342475 486.8845524292 1534.04352096 514.3022307516 1576.9336513476 463.7615011586 1561.3112604747 441.3851254123"/>
      <polygon class="cls-9" points="1460.6925390205 539.7605436538 1534.04352096 514.3022307516 1517.2757342475 486.8845524292 1450.3968977733 510.0965436048 1401.3164613279 527.1311500346 1405.1399571113 559.0414718102 1460.6925390205 539.7605436538"/>
      <polygon class="cls-9" points="1527.3065868514 165.2308833941 1463.8565262371 202.965039017 1455.3704219364 178.5147117038 1519.3196651566 142.2188106288 1527.3065868514 165.2308833941"/>
      <polygon class="cls-9" points="1356.7065624236 240.1541431584 1463.8565262371 202.965039017 1455.3704219364 178.5147117038 1348.2204581228 215.7038158453 1258.8688943256 246.7155352475 1267.3549986274 271.1658625603 1356.7065624236 240.1541431584"/>
      <polygon class="cls-9" points="1455.3704219364 178.5147117038 1364.5308203777 132.6904845834 1509.6994374089 147.6789977563 1455.3704219364 178.5147117038"/>
      <polygon class="cls-9" points="1324.2596930384 146.6675975493 1364.5308203777 132.6904845834 1351.5544777179 115.0360106259 1317.3959322069 126.8915975166 1301.035786707 132.5697996662 1301.7869657112 154.467325774 1324.2596930384 146.6675975493"/>
      <polygon class="cls-9" points="1326.6673400166 123.6737210147 1346.8029036863 116.6851645318 1330.7152839454 100.5134150746 1319.9283748366 104.257284619 1308.3970501169 108.2595224238 1305.787360737 130.9206457582 1326.6673400166 123.6737210147"/>
      <polygon class="cls-9" points="1514.2829732296 172.9761094572 1557.4951584538 445.328088521 1542.18471878 461.1475028035 1500.4295722598 181.2148153472 1514.2829732296 172.9761094572"/>
      <polygon class="cls-9" points="1456.305689861 205.5857476981 1520.2076175074 483.8552027237 1517.2757342475 486.8845524292 1498.9379887626 493.2491306547 1437.2488171022 212.1999172266 1456.305689861 205.5857476981"/>
      <polygon class="cls-9" points="1258.8688943256 246.7155352475 1455.3704219364 178.5147117038 1364.5308203777 132.6904845834 1301.7869657112 154.467325774 1258.8688943256 246.7155352475"/>
      <path class="cls-3" d="M1310.7843000315,59.7833385611c.2559518828-7.2944657803,4.3946954114-35.8877416298-7.3098421954-31.4110735354-11.6582733142,4.4589786378-24.123394387,29.1616341815-16.7031692588,34.5810654895,7.2662620394,5.3072023248,22.7127803356,5.2207176247,24.0130114542-3.1699919541Z"/>
    </g>
  </g>
</svg>