<?xml version="1.0" encoding="UTF-8"?>
<svg id="Layer_2" data-name="Layer 2" xmlns="http://www.w3.org/2000/svg" viewBox="0 0 1629.747788547257187 1532.708343918057835">
  <defs>
    <style>
      .cls-1, .cls-2, .cls-3, .cls-4, .cls-5, .cls-6, .cls-7, .cls-8, .cls-9, .cls-10 {
        stroke-width: 3px;
      }

      .cls-1, .cls-2, .cls-3, .cls-4, .cls-5, .cls-7 {
        stroke-miterlimit: 10;
      }

      .cls-1, .cls-5, .cls-7 {
        stroke: #0d212b;
      }

      .cls-1, .cls-11 {
        fill: #3eb0ff;
      }

      .cls-2, .cls-3, .cls-4, .cls-6 {
        stroke: #000;
      }

      .cls-2, .cls-6 {
        fill: #fff;
      }

      .cls-12 {
        fill: #001926;
      }

      .cls-3 {
        fill: #603a31;
      }

      .cls-4 {
        fill: #634131;
      }

      .cls-5 {
        fill: #163645;
      }

      .cls-13 {
        fill: #2384cc;
      }

      .cls-14 {
        fill: #567dff;
      }

      .cls-6, .cls-8, .cls-9, .cls-10 {
        stroke-linecap: round;
        stroke-linejoin: round;
      }

      .cls-7, .cls-8 {
        fill: none;
      }

      .cls-8, .cls-9, .cls-10 {
        stroke: #0a3b4c;
      }

      .cls-15 {
        fill: #0d212b;
      }

      .cls-16 {
        fill: #f90;
      }

      .cls-17 {
        fill: #ccc;
      }

      .cls-9 {
        fill: #ffb92e;
      }

      .cls-10 {
        fill: #cffeff;
      }

      .cls-18 {
        fill: #00df8e;
      }
    </style>
  </defs>
  <g id="Lantern">
    <g>
      <g>
        <path class="cls-9" d="M497.302524046105646,1282.577760886609212s-15.942918884071332,136.898286893308978-5.40214607294547,152.182407470991166c10.540772811235001,15.284120577638532,54.284979980464414,14.757081939027557,54.81201861815498,79.055796091390221-43.217168529719856,24.243777465337189-161.800862662423242,7.905579601618228-168.652431595410235-14.230129589359422,3.127697616930163-14.100485140392266,4.424765707510232-63.051412663491647-.197572878918436-111.501526114690932-4.037340580985983-42.318321241771628-13.900619598116464-83.960242912831745-13.900598159601941-105.506634150129685,0,0,1.023050999709085,9.091502839019086,63.345370249819098,9.091502839019086,62.322319250128203,0,69.995359838902004-9.091416547220433,69.995359838902004-9.091416547220433"/>
        <path class="cls-16" d="M372.841276901653146,1342.324175490860398s75.722222222220807-11.888888888890506,117.888888888886868-3.222222222218988l4.731492784289003-54.54572211372215c-44.774658203125,9.641967773441138-87.908935546875,9.300659179691138-129.57080078125,0l6.950419108074129,57.767944335941138Z"/>
        <path class="cls-8" d="M497.302524046105646,1282.577760886609212s-15.942918884071332,136.898286893308978-5.40214607294547,152.182407470991166c10.540772811235001,15.284120577638532,54.284979980464414,14.757081939027557,54.81201861815498,79.055796091390221-43.217168529719856,24.243777465337189-161.800862662423242,7.905579601618228-168.652431595410235-14.230129589359422,3.127697616930163-14.100485140392266,4.424765707510232-63.051412663491647-.197572878918436-111.501526114690932-4.037340580985983-42.318321241771628-13.900619598116464-83.960242912831745-13.900598159601941-105.506634150129685,0,0,1.023050999709085,9.091502839019086,63.345370249819098,9.091502839019086,62.322319250128203,0,69.995359838902004-9.091416547220433,69.995359838902004-9.091416547220433"/>
      </g>
      <g>
        <path class="cls-9" d="M680.053126680034438,1282.577760886609212s-15.942918884071332,136.898286893308978-5.402146072943651,152.182407470991166c10.540772811231363,15.284120577638532,54.284979980462595,14.757081939027557,54.812018618153161,79.055796091390221-43.217168529721675,24.243777465337189-161.800862662421423,7.905579601618228-168.652431595408416-14.230129589359422,3.127697616930163-14.100485140392266,4.424765707510232-63.051412663491647-.197572878918436-111.501526114690932-4.037340580985983-42.318321241771628-13.900619598116464-83.960242912831745-13.900598159601941-105.506634150129685,0,0,1.023050999709085,9.091502839019086,63.345370249819098,9.091502839019086,62.322319250126384,0,69.995359838900185-9.091416547220433,69.995359838900185-9.091416547220433"/>
        <path class="cls-16" d="M555.591879535583757,1342.324175490860398s75.722222222220807-11.888888888890506,117.888888888886868-3.222222222218988l4.731492784289003-54.54572211372215c-44.774658203123181,9.641967773441138-87.908935546873181,9.300659179691138-129.57080078125,0l6.950419108074129,57.767944335941138Z"/>
        <path class="cls-8" d="M680.053126680034438,1282.577760886609212s-15.942918884071332,136.898286893308978-5.402146072943651,152.182407470991166c10.540772811231363,15.284120577638532,54.284979980462595,14.757081939027557,54.812018618153161,79.055796091390221-43.217168529721675,24.243777465337189-161.800862662421423,7.905579601618228-168.652431595408416-14.230129589359422,3.127697616930163-14.100485140392266,4.424765707510232-63.051412663491647-.197572878918436-111.501526114690932-4.037340580985983-42.318321241771628-13.900619598116464-83.960242912831745-13.900598159601941-105.506634150129685,0,0,1.023050999709085,9.091502839019086,63.345370249819098,9.091502839019086,62.322319250126384,0,69.995359838900185-9.091416547220433,69.995359838900185-9.091416547220433"/>
      </g>
      <path class="cls-5" d="M1069.829251877085881,729.454810402126895s29.333333333332121-24.10022918290997,5.333333333332121,85.67350100143176c-24,109.773730184344458-80,261.773730184344458-68,317.773730184344458s-124,134-169,130-96-21.033647714888502-91-47.516823857444251,246-433.468252340055187,246-433.468252340055187l76.666666666667879-52.462154988276779Z"/>
      <ellipse class="cls-10" cx="1083.715883482629579" cy="787.331832819709007" rx="84.575232899735795" ry="57.418048023672874" transform="translate(-106.427194403530393 172.603449512547741) rotate(-8.681734862146111)"/>
      <g>
        <g>
          <path class="cls-4" d="M1323.666687499592626,200.434351352436352s-117.62663382602841,24.573413957945377-120.934228002708551,30.427454365415542c-3.307594176694693,5.854040407484717,4.519596681810071,36.59273246567318.032104389450978,40.840850613688417-4.487492292344541,4.248118148001595,36.965847630304779,58.274154332204489,34.330518902395852,62.281620007119272-2.635328727908927,4.007465674895684-8.259762326579221,32.022558124768693-3.969358181577263,35.675846250914219,4.290404144987406,3.653288126158259,65.538115542203741,50.65489818844253,62.257588602082251,68.282468954716933-3.280526940146956,17.627570766262579,50.295453695209289,81.573039075852648,96.921465692543279,98.547741657454935,46.6260119973158,16.974702581605015-102.913156571376021,97.423509527570786-110.937786553258775,118.029408906742901-8.02462998187184,20.605899379193943-25.197022819698759,34.744476691266755-27.047908055399603,45.572903169171695-1.850885235693568,10.82842647788766-30.030547171456419,52.329492054078401-47.247650664296089,73.771412741108179-17.217103492843307,21.441920687029778-35.359649603546131,48.298054612987471-41.535549601285311,63.825873477613641-6.175899997731904,15.527818864637084-31.287812010563357,47.16630073264605-37.544512312048028,54.299422493837483-6.25670030148467,7.13312176121326-48.053726107569673,58.694973051977286-54.453179380336223,110.739508791379194-6.399453272795654,52.044535739412822,20.850318135006091,55.821855792608403-4.157635434741678,146.055151022483187-25.007953569733218,90.233295229856594-4.846994674040616,53.524677633682586-32.179859044128534,75.466486904155317-27.332864370087918,21.941809270465455-40.061197241833725,49.723385814286303-41.712236969739024,87.288901014115254-1.651039727901662,37.565515199821675-16.548609734301863,29.658451390288974-21.926733324522502,44.431049250833894-5.378123590206087,14.772597860541282-24.153073810684873,49.110241561629664-17.958326176743867,95.283230882079806,6.194747633944644,46.17298932045378-5.049534246314579,33.975521365930035-6.611152664201654,56.934349815841415-1.561618417890713,22.958828449907742-2.526383561835246,21.300520155462436-3.660292693752126,22.979028525842295-1.133909131909604,1.678508370372583-20.045135753971408-48.339807204611134-34.900689169826364-56.362281934929342-14.85555341584768-8.022474730300019-6.358102087076986-30.286143591016298-4.717838617012603-39.099928974166687,1.640263470071659-8.813785383135837-7.845787361849943-8.607474120635743-7.845787361849943-8.607474120635743,0,0,41.823210795431805-159.399047397397226,100.069509551394731-237.531564549281029,58.246298755959288-78.132517151887441,35.168562508966716-126.400007652035129,34.79849538741837-146.925106727481761-.370067121570173-20.525099075442995-9.427193634739524-72.837761337923439-9.427193634739524-72.837761337923439,0,0,75.752896723977756-162.064913175414404,88.266297326954373-176.331156697804545,12.513400602976617-14.266243522386503,9.413871534434293-31.602392219294416,22.84840425211587-39.782157053952687,13.434532717699767-8.179764834661,59.048385666617833-90.388430082648483,61.107737416386954-97.481151691972627,2.059351749787311-7.092721609315959,25.011701401843311-12.853082638840533,42.151243989861541-39.028710705592857,17.139542588010954-26.175628066757781,48.976264340162743-82.03020322379416,54.894676665702718-82.489691655369825,5.918412325521786-.459488431562932,10.671136373548507-26.439200897822957-20.967345494471374-51.551112910661686,0,0-4.014195428553649-40.67366527462309-23.024541992697777-50.208737264677438-19.010346564122301-9.535071990058896-67.144645318054245-33.85567335005544-74.509391732655786-94.048194778519246-7.364746414594265-60.192521428481086-18.971552035909554-113.041299330117909-7.255927840476943-126.552321848415886,11.715624195458076-13.511022518302525,6.910115956685331-40.249533852364948,42.901943133550958-24.36124563116482,30.404649982196133,13.421876022239303,74.963854410187196-29.903013479513902,89.599549495342217-19.924738110201361,8.964086819618387,6.111505206989023,55.476596642758523,8.503922765952666,93.843351796644129-27.790677099722416,5.986367655150389-5.663049111678447,106.535930572623329-33.629844505063375,109.161373209626618-30.05643700847304,5.243991625178751,7.137432264319614,16.312663762746524,39.922754773662746,10.811184465361293,47.85365294238818-5.501479297407059,7.930898168718159-15.270331192434242-21.244230430788775-26.645512160350336-20.157187205452828-5.464478236772266.522200399632311-37.37434936567297-1.717494497962434-70.959260806808743,15.992920134518499-36.327425817911717,19.156631539527552-74.896243971328659,57.955856443746598-91.86554640720351,46.548355384979004Z"/>
          <path class="cls-2" d="M1083.717817259867843,845.527660814111186c.242440791549598,3.048720306120231,3.700657965891878,21.253525382217049,51.124616626999341,38.071053889074392,1.20444204955129.427120364354778,2.548731724673416.02287239400539,3.318961694731115-.996862007526943,5.514351690711919-7.300643106227653,26.84897682294104-35.997271733336675,28.870049803630536-45.60916733652266l-28.431486665107514-14.533429826653446-54.503581267159461,22.461040266760392c-.246241019231093.101476441002887-.399672742372786.341872325909208-.378560193094017.607365014868265Z"/>
          <path class="cls-17" d="M1087.877204025738138,852.670810696149601c26.487034111731191-.211835530495591,51.541669327431009-3.024264861956908,74.81339024143017-9.073982636236906,0,0,3.778434655767342-4.343087711124099,4.128942615378037-8.451267864216788l-81.020953340914275,7.651768695825012-.98118296559187,3.892093408328947s1.694812966856261,5.337505222403706,3.059803449697938,5.981388396299735Z"/>
          <path class="cls-2" d="M1173.491781829371575,824.259773001432222l-6.46033644414274,12.732912357703754s-57.063911704553902,12.549404463603423-82.727692771124566,8.197031211911963c-.304963805087027-.051719436993153-.467909722308832-.38507618138101-.33304589051113-.663445665068139l19.730049565350782-40.724363518347673c.304413174239016-.628332570886414.975934610782133-.992230578514864,1.668551342128922-.904189316923294l44.626370242844132,5.672635034974519,23.071612522438954,14.18498006340451c.51155464488329.314516050060774.696200359197974.968918815164216.424491433015646,1.50443983234436Z"/>
          <path class="cls-17" d="M1102.579878414336235,808.730819952616912s56.643914552594651,20.817200413279352,67.508603483427578,19.959114045832393l3.647096818556747-7.559307457733667-67.458978104317794-19.589754856646323-3.696722197666531,7.189948268547596Z"/>
          <path class="cls-2" d="M1238.075213255097879,617.06808519970582c9.748835702739598,14.083342368366175,24.409625827414857,25.991224338415122,42.525209743384039,36.367833505078124.625176201192517.358101021205584.431442792189046,1.303854172227148-.286221532147465,1.367411559497668-12.99527574620879,1.150880356428388-76.239981081373116,6.53023089438102-86.735734716428851,3.177788433946262,0,0,1.156264459419617-5.3301800578447,3.927204184052243-7.196954866348278,2.673868732934352-1.80137833657227,28.218119779263361-19.618578951207382,38.457145009961096-33.760118622411937.526537705893134-.727222922947476,1.601386127211299-.694175903154246,2.112397311178938.044039990238161Z"/>
          <path class="cls-2" d="M1116.648572531469654,783.205274830671442l-11.981217327036575,18.82674851352931c-.239602101577475.376500015514466-.092032681761339.87441080858116.319039594040078,1.04813764251594,6.538938803143537,2.763477866094036,52.564453717310244,21.92370972864228,68.024346711110411,20.362937100348063.592973535513011-.059864377068152,1.129098410572624-.366698579979129,1.473786715636379-.852899495024758l36.612698358439957-51.644129443357087c.483320613766409-.68174905045089.1041955490291-1.635214608395472-.715303932262032-1.798925278973911l-52.355888556743594-10.459088528856228-38.755453736048366,22.023132807898946c-1.064468559656234.604893768471811-1.964671940058906,1.461178497618675-2.622007827136258,2.494086681919725Z"/>
          <path class="cls-17" d="M1115.197107143215362,787.331832819710144s85.590929666301236-5.291136084681057,90.745524553371069-10.838449877857784l6.561137567092374-9.379725561200758-52.044475218706793,2.780954929698055-41.1887136863661,10.816575838402059-4.07347321539055,6.620644670958427Z"/>
          <path class="cls-17" d="M1194.789375411702167,657.143192684914538l1.940384395817091-5.149047113229244s59.450510232018132.285092261983664,75.076035857317038-2.641539104513868l7.865852346571046,4.809196072308623-84.882272599705175,2.981390145434489Z"/>
          <path class="cls-2" d="M1203.333366822868811,768.961371483176663c-8.724480182328989,2.143874142097047-60.582482834855909,14.559483692879439-84.412460566185473,12.782107267350511-.682159167165082-.050879343471024-1.154973979006172-.699402231701242-1.004933009960951-1.366798324426782,1.083772204463457-4.820718895851314,5.558868914071354-22.143419143740175,14.938763640042453-27.584819490246446,9.133516115773091-5.298472872996172,15.458988801172381-16.906779522878423,17.296328374475706-20.590136990708743.31179502456871-.625062753199018,1.072399229440634-.874010559644375,1.692152974032069-.551791877955111l53.371070513603627,27.74836962381687-.536177455338475,7.960507786025119c-.051909384317696.770687118445494-.594626655591128,1.418234899698291-1.344744470668957,1.602562006144581Z"/>
          <path class="cls-17" d="M1149.308093032133002,735.595101115632133c-2.803002741431555,3.835584306158125,42.620014869793522,33.839522480830965,47.574525289604935,33.918180956757169,1.701642643001833.027010903573682,9.45058420481655-2.172475752882747,9.355250516629894-3.137042614023812l-53.768859134124796-36.921429056238594-3.160916672110034,6.140290713505237Z"/>
          <path class="cls-2" d="M1167.477097665489964,706.331036507277531c-1.080978164649423.40507243463162-2.001530556030048,1.139765715338399-2.633779536277871,2.105611819368278-3.336280347815773,5.096620914453524-14.114791685420641,21.635264118713167-14.141767704273661,22.619714601238229-.030961372933234,1.129890169890132,41.723908318934264,38.50555232627903,59.818771094029216,38.544227144612705.986187338210584.002107814616465,1.904899448112701-.50127102262195,2.499689408843551-1.287906142344582l21.120139612303319-27.932286435421702c.535753445550654-.708556807598143.489073850723798-1.698643700604407-.110967518492544-2.353651226688271l-38.623335396550829-42.161385305611475-27.928749959581182,10.465675544846818Z"/>
          <path class="cls-17" d="M1163.307919095876969,712.731864127956214l19.610918979415146-1.910178962465579c2.994574311473116-.291683059693241,5.952159477747045.820645180099746,8.021956854343443,3.004333146384852,7.43402757307922,7.843084900950998,26.21241200552322,26.490975235541555,39.522089384259743,29.666834492400994l6.502719573818467-8.695028869022281-42.507150300742069-34.824607455380828-27.661106424035097,5.14531850415915-3.489428067059634,7.613329143923693Z"/>
          <path class="cls-2" d="M1192.000521372002368,703.589196415739934s11.05452113930005,20.020567674155245,42.003697183095937,35.058472729695495c.602351249392086.292676641391154,1.337140442992677.091547875339529,1.704736703821254-.46823747020062,3.765471494461963-5.734159963850288,22.870845823785203-35.087921869554521,26.095238636527938-45.19749744544788.242578668901842-.760567191665359-.427776506669034-1.502177836129704-1.214201370297815-1.364908766257031l-68.589471153147315,11.972170952210035Z"/>
          <path class="cls-17" d="M1196.13126155437476,707.945846197559149s46.562505374175089-2.721270935158827,62.646582331461104-10.071419957744183l3.718703733055008-9.825087971966241-69.893682592002733,13.22606098896722"/>
          <path class="cls-2" d="M1281.315057145168794,654.735485628072638c.573892676584364-.056871415494243.972823050145962.544347141835715.704818622376479,1.054994563091896-3.292497641923546,6.273424078600328-18.478604315718258,35.094871399511248-19.806521767317463,35.543190396320824-1.490241932267963.503121460799775-92.389611670139857,16.817665661166757-96.397616157944867,15.619923424090302-3.619633171452733-1.081682304839887,21.941570163646247-40.151165048047005,26.929262475063297-47.712590262072808.52180749685067-.791068918681958,1.390817639938177-1.27065219765791,2.338288740636926-1.289929417585881,10.125683923441102-.206016875745263,68.459948112398706-1.4544431120421,86.231768087185628-3.215588703844332Z"/>
        </g>
        <polygon class="cls-6" points="1299.814034293921395 270.733269868638672 1350.359284182045485 300.521525376085265 1547.130346968267077 367.940747671408644 1605.323009111462852 375.409115974975066 1471.472848891123249 616.504590965338139 1414.18736404390711 624.436488711831771 1298.069033312148349 584.651128804998734 1257.684746458823611 543.254859028723331 1299.814034293921395 270.733269868638672"/>
        <path class="cls-18" d="M1477.356885233853063,560.742121957770905c-13.466940016136505,54.795391031969302-74.598742055146431,83.158145089118079-128.333739884863462,64.747044838227339-53.734997829713393-18.411100250888012-85.617265358767327-78.414774964119715-61.661247995285521-129.844595974508593,0,0,12.519172315194737-23.046961707672381,37.046822689215333-40.666883187558597,24.527650373995129-17.619921479893492,21.165271220274008-48.448200021543016,21.165271220274008-48.448200021543016,0,0,14.729659412401816,18.971791953075808,6.679962228885415,42.465795830728894,0,0-13.204301039459097,19.216827695254324.880708458033041,25.412414854346935,14.085009497510327,6.195587159098068,21.481944721512264-12.728217847551605,21.773327017854172-14.911169440099911.291382296360098-2.18295159255922,7.052644804509328-18.585211001684002,1.228964983209153-40.897371688120984-5.823679821292899-22.31216068642243-1.305613835651457-48.157592962980743,23.267607854715607-71.240589838803317,24.573221690385253-23.082996875813478,60.302956301216909-32.75575663402924,60.302956301216909-32.75575663402924,0,0-42.859713588924933,21.154833462283932-44.798404677105282,73.45124826628944-1.938691088187625,52.296414804021879,17.13322069669448,41.938354991260894,19.741852904677216,40.321078747764659,2.608632207975461-1.617276243498964,14.110210785740492-13.199469779363426,8.472097014444444-41.383297233504891,0,0,27.579142357699311,34.103481168270264,14.741142158141884,74.904013809076787,0,0-4.53843601375047,11.913450734036815-11.786444263409066,17.077419407926755-7.24800824966951,5.163968673887211-22.83955656758917,24.019416705979893-16.21742363861631,40.669902725122483,6.622132928969222,16.650486019152595,18.428127024431888,9.50988944976416,19.735291335684451,8.359809115758253,1.307164311256201-1.150080333998631,8.781433708889381-12.970748043024287,8.131087379424571-25.064068412529195-.650346329457534-12.093320369489447,4.529458814722602-27.211201125546722,31.504601397136867-35.3179523711824,0,0-22.764682982331578,19.137077891587069-15.772193191158294,48.698067023810836,6.992489791176922,29.560989132209215,3.897760707524867,44.423090182827764,3.897760707524867,44.423090182827764Z"/>
        <path class="cls-14" d="M1476.341095341630535,427.619804613758788s5.207694548982545-7.204174230255376,2.294635583722993-17.19074379135418c-2.913058965241362-9.986569561092438,12.663029261690099-25.965295749822872,18.215942570619518-25.432386023994695,0,0-7.75080675008212,8.130528430242521-6.78140500808513,17.793565218836193.969401741993352,9.663036788610043.395905062523525,20.081501622046744-13.729173146257381,24.829564596512682Z"/>
        <path class="cls-14" d="M1312.807854472156578,604.134392969295732c-52.682115308911307-69.000133419602207,17.134396908990311-115.073463880784402,17.134396908990311-115.073463880784402,0,0-12.042827876361116,19.158223157535758,6.841102228456293,31.33534935296484,18.883930104824685,12.177126195454548,40.368290456386603-17.214610892592646,45.20544557329049-24.003580235677873,4.837155116911163-6.788969343082499,19.672540859013679-41.426452919826261,14.626168879462057-58.678433167549883,0,0,30.434491406926099,29.517509012948722,21.812624742844491,66.34098619897577-6.232838453262957,22.75472289226218-18.609655279768049,40.906046933399011-11.264763024471904,52.782038395653217,7.344892255292507,11.875991462272395,23.227047631728055,15.491428486108816,32.878572207348043,4.645027497903357,9.651524575634539-10.846400988185451,11.155647765994217-19.23391693888243,11.155647765994217-19.23391693888243,0,0,5.061045593149174,31.866846214749785-10.156089840260393,54.959595527421698-15.217135433398653,23.092749312655542-46.305696623669064,33.222753569135421-46.305696623669064,33.222753569135421-29.205098136579181,3.036091397069868-56.698670069206855-4.581634049251988-81.927408817984542-26.296356319159713Z"/>
        <g>
          <path class="cls-9" d="M1516.495106841181951,136.493891789969894c-20.525137651758996-7.03248129212443-42.864990893773211,3.905430429781518-49.897472185897641,24.430568081545061-7.032481292120792,20.525137651746263,3.905498317057209,42.864957655051512,24.430635968816205,49.897438947175942,20.525087088764849,7.032463967841068,42.864940330764512-3.905447754068518,49.897421622885304-24.430585405815691,7.032481292128068-20.525137651763544-3.905498317039019-42.864957655064245-24.430585405803868-49.897421622905313ZM1493.007286023285815,205.045914691816506c-17.335163270661724-5.939507615746152-26.573174856875994-24.807276150489997-20.633667241138028-42.142439421128984,5.939507615745242-17.335163270651719,24.807332221935212-26.573155645234692,42.142495492596936-20.63364802948854,17.335107199181948,5.939488404102121,26.573099573772197,24.807313010299367,20.633591958030593,42.142476280950177-5.939507615737966,17.335163270638986-24.807313010307553,26.573099573769468-42.142420209489501,20.633611169667347Z"/>
          <polygon class="cls-9" points="1253.853001929618586 539.327095470079257 1298.069033312148349 584.651128804998734 1281.410359993721613 612.135239834711683 1238.319677022332144 561.765390981252494 1253.853001929618586 539.327095470079257"/>
          <polygon class="cls-9" points="1286.759737506871716 263.039871794162536 1350.359284182045485 300.521525376085265 1358.748135262448159 276.037660291619432 1294.655126759017548 239.996234067603837 1286.759737506871716 263.039871794162536"/>
          <polygon class="cls-9" points="1358.748135262448159 276.037660291619432 1449.404875161689233 229.85272212601194 1304.296981889524432 245.41813917806121 1358.748135262448159 276.037660291619432"/>
          <polygon class="cls-9" points="1299.814034293921395 270.733269868638672 1257.684746458823611 543.254859028723331 1273.057944853341724 559.013291767059854 1313.700073378217894 278.916845598185319 1299.814034293921395 270.733269868638672"/>
          <polygon class="cls-9" points="1357.92047781106794 303.112199974445502 1295.125132027517793 581.633456802606815 1298.069033312148349 584.651128804998734 1316.431932125487037 590.942767115298921 1377.003490303380204 309.650569198880476 1357.92047781106794 303.112199974445502"/>
          <polygon class="cls-9" points="1476.908213986544979 615.751996127966777 1414.18736404390711 624.436488711831771 1410.490736945225763 656.36175619572532 1475.41710581767893 643.001544464597828 1476.908213986544979 615.751996127966777"/>
          <polygon class="cls-9" points="1337.039141692958765 631.195202951210376 1410.490736945225763 656.36175619572532 1414.18736404390711 624.436488711831771 1347.216791902143996 601.490513694794572 1298.069033312148349 584.651128804998734 1281.410359993721613 612.135239834711683 1337.039141692958765 631.195202951210376"/>
          <polygon class="cls-9" points="1620.352399294067254 377.337967777370068 1547.130346968267077 367.940747671408644 1555.519198049772058 343.456882587315704 1628.247788547257187 354.29433005118608 1620.352399294067254 377.337967777370068"/>
          <polygon class="cls-9" points="1439.833408805649924 331.17784146129452 1547.130346968267077 367.940747671408644 1555.519198049772058 343.456882587315704 1448.222259887158543 306.693976377207036 1358.748135262448159 276.037660291619432 1350.359284182045485 300.521525376085265 1439.833408805649924 331.17784146129452"/>
          <polygon class="cls-9" points="1555.519198049772058 343.456882587315704 1512.234793667538725 251.379994391669243 1617.306836487142391 352.663994685883154 1555.519198049772058 343.456882587315704"/>
          <polygon class="cls-9" points="1471.908427646688324 237.563063198609598 1512.234793667538725 251.379994391669243 1512.898927535962684 229.479655450339123 1478.693527786143932 217.759937027666638 1462.310941571357944 212.146808724859511 1449.404875161689233 229.85272212601194 1471.908427646688324 237.563063198609598"/>
          <polygon class="cls-9" points="1487.977652905082323 220.940935727871874 1508.140835915505704 227.849401324408973 1505.441092771611693 205.198830108815855 1494.639387587462807 201.497866396392965 1483.092245699680461 197.541495399954329 1467.069033191763992 213.777062848048445 1487.977652905082323 220.940935727871874"/>
          <polygon class="cls-9" points="1605.323009111462852 375.409115974975066 1471.472848891123249 616.504590965338139 1449.665824617531143 619.524048462377323 1589.33603540517197 373.357369185922835 1605.323009111462852 375.409115974975066"/>
          <polygon class="cls-9" points="1539.569153339357399 365.350073072715531 1418.363315275760215 623.8582756050846 1414.18736404390711 624.436488711831771 1395.824465230848546 618.144850400708492 1520.486140847347087 358.811703847411081 1539.569153339357399 365.350073072715531"/>
          <polygon class="cls-9" points="1358.748135262448159 276.037660291619432 1555.519198049772058 343.456882587315704 1512.234793667538725 251.379994391669243 1449.404875161689233 229.85272212601194 1358.748135262448159 276.037660291619432"/>
          <path class="cls-3" d="M1514.852629709409484,160.841122491860006c4.697833083424484-5.586153122379983,25.58163862643778-25.550403367295985,13.605665316128579-29.23995904361982-11.928639435460354-3.674967806487984-36.97076298500906,8.093315092919511-34.468336190817354,16.934572740729891,2.450368415204139,8.657982165162139,14.66681378726571,18.111069996510196,20.862670874688774,12.305386302889929Z"/>
        </g>
      </g>
      <polygon class="cls-11" points="279.16258521041982 534.392147143787952 245.416095276651504 590.942767115298921 217.829251877085881 917.568708254567355 584.49591854375376 904.235374921235234 797.829251877085881 938.902041587903113 828.495918543750122 590.942767115298921 279.16258521041982 534.392147143787952"/>
      <path class="cls-1" d="M825.829251877085881,624.436488711831771s111.999999999996362,123.132219542738312,130.666666666664241,125.465552876070433c9.889093117362791,1.236136639668985,21.275035663555173,3.628406216827898,29.796381641393964,5.604899854847645,8.553439082163095,1.983937510933174,17.51022350324638,1.26167345432259,25.623891011153319-2.094772247706715l55.855911219430709-23.106361329528227c.794759241194697-.328774408941172,1.60664499658742.4307181977656,1.323095395597193,1.242712340120306-5.96016516983218,17.067981011041411-46.328128955788998,133.97535159774543-51.265945934239426,183.3535213822679-5.333333333335759,53.333333333332121-57.333333333335759,122.666666666664241-70,153.333333333332121-12.666666666667879,30.666666666667879-68.951824361491163,109.659566901620565-95.4759121807474,75.496450117476343-26.5240878192526-34.163116784144222-110.5240878192526-190.163116784144222-110.5240878192526-190.163116784144222"/>
      <path class="cls-13" d="M723.162585210418001,749.484169507997649s98.182987199994386,330.164666888710599,182.328506429937988,380.601446376566855c0,0-35.661839763270109,40.816425703338609-62.328506429937988,9.483051679901109-40.984940698413993-48.157367858701036-149.88232421875-385.773829111156374-120-390.084498056467964Z"/>
      <path class="cls-7" d="M825.829251877085881,624.436488711831771s111.999999999996362,123.132219542738312,130.666666666664241,125.465552876070433c9.889093117362791,1.236136639668985,21.275035663555173,3.628406216827898,29.796381641393964,5.604899854847645,8.553439082163095,1.983937510933174,17.51022350324638,1.26167345432259,25.623891011153319-2.094772247706715l55.855911219430709-23.106361329528227c.794759241194697-.328774408941172,1.60664499658742.4307181977656,1.323095395597193,1.242712340120306-5.96016516983218,17.067981011041411-46.328128955788998,133.97535159774543-51.265945934239426,183.3535213822679-5.333333333335759,53.333333333332121-57.333333333335759,122.666666666664241-70,153.333333333332121-12.666666666667879,30.666666666667879-68.951824361491163,109.659566901620565-95.4759121807474,75.496450117476343-26.5240878192526-34.163116784144222-110.5240878192526-190.163116784144222-110.5240878192526-190.163116784144222"/>
      <path class="cls-1" d="M508.49591854375376,920.235374921235234l167.402130339363794,363.071036908637325c3.923507454212086,8.509520857543976,15.569997499143938,9.407868164631509,20.882197167265986,1.688646011185483,12.046274392116175-17.504588299292664,35.959140019622282-39.949975170056859,79.63338981551351-40.759682919822808,71.917717322146927-1.333333333335759,93.415616011188831-60,93.415616011188831-60,0,0-130.666666666667879-293.502410826473351-146.666666666667879-434.751205413237585"/>
      <path class="cls-13" d="M776.413683843230501,1244.235415611340613c-52.3936767578125-51.2000732421875-101.932617187498181-225.6177978515625-162.584411621091931-384l62.068776660978983,423.070996218531945c3.923507454212086,8.509520857543976,15.569997499143938,9.407868164631509,20.882197167265986,1.688646011185483,12.046274392116175-17.504588299292664,35.959140019622282-39.949975170056859,79.63338981551351-40.759682919822808"/>
      <path class="cls-7" d="M508.49591854375376,920.235374921235234l167.402130339363794,363.071036908637325c3.923507454212086,8.509520857543976,15.569997499143938,9.407868164631509,20.882197167265986,1.688646011185483,12.046274392116175-17.504588299292664,35.959140019622282-39.949975170056859,79.63338981551351-40.759682919822808,71.917717322146927-1.333333333335759,93.415616011188831-60,93.415616011188831-60,0,0-130.666666666667879-293.502410826473351-146.666666666667879-434.751205413237585"/>
      <path class="cls-1" d="M264.49591854375376,559.013291767059854s-97.33333333333394,154.97773584965762-138.666666666667879,294.099909501915135c-35.371448206984496,119.055308704453637-103.941703261643852,255.352876436372753-122.986834079294567,292.194830918055231-2.827462852637836,5.469600535325299-1.059245866643323,12.18744083418278,4.089259328400658,15.564417359961226l101.759431110254809,66.745433308879001c6.621063037522617,4.342847798805451,15.559357929843827,1.20920990558443,18.019203589648896-6.317274139462825l105.785606717658084-323.676275372261443"/>
      <path class="cls-13" d="M264.49591854375376,559.013291767059854s-97.33333333333394,154.97773584965762-138.666666666667879,294.099909501915135c-35.371448206984496,119.055308704453637-103.941703261645671,255.352876436376391-122.986834079294567,292.194830918058869-2.827462852636017,5.469600535321661-1.059245866641504,12.187440834179142,4.089259328400658,15.564417359957588l59.342019195339162,38.696258707575907,94.33463390223551-360.127883156997996c27.307987016689367-130.183149902910372,159.928881330404693-209.340919394992852,287.474312782642301-171.584574375778175,53.091611212466887,15.716322942657825,121.064910738266917,37.801335830703465,150.464126107062839,47.334765156142566,6.267726414474964,2.032466719061631,16.058040920583153-1.367438899660556,25.588243582136784-6.278296841706833,12.512339655828328-6.447535771751063,23.772910709623829-15.077827093157794,33.503476254105408-25.248640992514083l53.857429594036148-51.59536978914457-376.999999999996362-103.16666666666606-70,30.111250179157651s-97.33333333333394,154.97773584965762-138.666666666667879,294.099909501915135c-35.371448206984496,119.055308704453637-103.941703261643852,255.352876436372753-122.986834079294567,292.194830918055231-2.827462852637836,5.469600535325299-1.059245866643323,12.18744083418278,4.089259328400658,15.564417359961226"/>
      <path class="cls-7" d="M264.49591854375376,559.013291767059854s-97.33333333333394,154.97773584965762-138.666666666667879,294.099909501915135c-35.371448206984496,119.055308704453637-103.941703261643852,255.352876436372753-122.986834079294567,292.194830918055231-2.827462852637836,5.469600535325299-1.059245866643323,12.18744083418278,4.089259328400658,15.564417359961226l101.759431110254809,66.745433308879001c6.621063037522617,4.342847798805451,15.559357929843827,1.20920990558443,18.019203589648896-6.317274139462825l105.785606717658084-323.676275372261443"/>
      <path class="cls-1" d="M613.829251877085881,860.235374921235234l75.250666691306833,440.025084889846767c1.388571054005297,8.119610400546662-5.621258934999787,15.259816402871365-13.746666691307837,13.905581776820327-36.863999999999578-6.144000000000233-123.903999999998632-2.730666666666366-192.170666666665056,31.402666666665027-85.333333333332121,42.666666666667879-212,25.333333333335759-260,0-38.490067862514479-20.314202482994006-106.987072265617826-46.629792274103238-132.617967660438808-56.259877834534564-5.722245362338072-2.149972195205919-8.917564790448523-8.248517606698442-7.42999582603079-14.177565675574442l94.714630153135658-377.506931400312169"/>
      <path class="cls-13" d="M415.162585210421639,729.141119130190418s33.466672365213526,321.734704994788444,34.83925883230404,433.104143575917078c.276248421858327,22.414348668691673-11.725137680117768,43.164725460468617-31.253883235256581,54.169607853062189-21.723369252245902,12.241601649056975-32.225446801965518,11.203012296700763-32.225446801965518,11.203012296700763l-31.359928795083761-162.715841267967335"/>
      <path class="cls-5" d="M415.162585210421639,1214.497759835518991c6.434514363247217,7.577796582409064-51.711111398100911,21.737615085716243-115.500000000001819,21.737615085716243-63.788888601899089,0-109.083333333332121-21.308874503600236-109.083333333332121-31.25,0,0,117.250000000001819-116.891896838096727,224.58333333333394,9.512384914283757Z"/>
      <ellipse class="cls-10" cx="302.632749580758173" cy="1145.165679519584955" rx="84.575232899735539" ry="57.418048023674451" transform="translate(-863.304990766607261 1353.924392636049106) rotate(-85.347996141134857)"/>
      <path class="cls-1" d="M415.16258521041982,738.781520948174148l.000000000001819,475.716238887344844c0,.717114232586027-.802694646759846,1.138914596267568-1.3870401047825.723230571715249-12.312599071296063-8.758775591402809-105.195745132214142-69.840073322811804-222.382673702806642-9.135414096894237-.644580690213843.333902864596894-1.395670007792432-.202428317938029-1.277604310542301-.91869354836308l39.713984784795684-240.931507840741688"/>
      <path class="cls-1" d="M711.162585210418001,631.070029249326581s-76.999999999998181,25.832012338575623-96.999999999998181,27.996286615140889-122-50.164274276565266-157-74.415187059468735-91-20.74908721709653-178-25.63783703793888-65-59.111250179157651-67-98.111250179157651,101-210,103-229.138640029637827-13-37.861359970362173-25-75.861359970362173,12.470164370339262-123,12.470164370339262-123c0,0,2.212189090854736-47,83.371012360257737-26s121.158823269403001,56,176.158823269403001,60,187.999999999998181,5,263.999999999998181,114,156,278.07733447249484,159,315.53866723624742,1,82.46133276375258-53,105.46133276375258-142.6811058828971,14.901129758538445-185.34055294144855,47.450564879269223"/>
      <path class="cls-5" d="M650.16258521041982,615.752017173839704s-192-54.8499755859375-201-114.8499755859375,57-89.890318001173,96-157.4451590005865,144.999999999998181-185.5548409994135,189.999999999998181-174.5548409994135,99,37.183061867977813,147,190.091530933988906,53.7989501953125,170.212668284761094,23.6666259765625,193.908469066011094c-28.7078857421875,22.57562255859375-205.84027099609375,62.0875244140625-255.666625976560681,62.8499755859375Z"/>
      <path class="cls-13" d="M365.16258521041982,127.902041587902204c-5,19-50,103.861358642578125-50,103.861358642578125-105,338.138641357421875,30.26898193359375,268.936614990234375,142,352.887725830078125-35-24.25091552734375-91-20.74908447265625-178-25.637834293498599s-65-59.111250179157651-67-98.111250179157651,101-210,103-229.138640029637827"/>
      <g>
        <path class="cls-11" d="M822.013111515471792,624.039963677463675s59.149473694946209-12.47125542289541,88.48280702827833-35.804588756228441"/>
        <path class="cls-15" d="M821.703667222846889,622.572250572310622c17.526476976547201-3.695839705436811,34.943499772776704-8.576676542414134,51.70028856173667-14.974683030328379,13.007350559781116-4.984374398753062,25.873778313556613-11.000899994421161,37.092043073476816-19.362104382506914-19.036106517994995,14.861354959612981-42.134807915103011,23.487195607247486-64.917161308550931,30.824066792119993-7.679064369631305,2.386560952746549-15.387682533693805,4.585535562121549-23.256273842287555,6.448145425402799l-.618896484375-2.9354248046875h0Z"/>
      </g>
      <path class="cls-13" d="M365.16258521041982,127.902041587902204s-41.6018559415661,33.563892025729729-70.800927970782141,40.281946012864864c0,0,18.356483526338707,45.159922042237667,20.800927970782141,52.051387320468166,2.444444444445253,6.891465278230498-.3828125,13.41013590494822-.3828125,13.41013590494822,20.48077392578125-39.107635498046875,38.4444580078125-75.579742431640625,50.3828125-105.74346923828125Z"/>
      <path class="cls-7" d="M711.162585210418001,631.070029249326581s-76.999999999998181,25.832012338575623-96.999999999998181,27.996286615140889-122-50.164274276565266-157-74.415187059468735-91-20.74908721709653-178-25.63783703793888-65-59.111250179157651-67-98.111250179157651,101-210,103-229.138640029637827-13-37.861359970362173-25-75.861359970362173,12.470164370339262-123,12.470164370339262-123c0,0,2.212189090854736-47,83.371012360257737-26s121.158823269403001,56,176.158823269403001,60,187.999999999998181,5,263.999999999998181,114,156,278.07733447249484,159,315.53866723624742,1,82.46133276375258-53,105.46133276375258-142.6811058828971,14.901129758538445-185.34055294144855,47.450564879269223-111.891079252447526,75.127383700793871-148.275263155497669,65.838409410762324"/>
      <path class="cls-15" d="M313.881828843940639,230.982589927779372c19.85877714997514-32.854666440052824,36.723132200338114-67.560671056698993,51.280862300564877-103.080482563862461-10.199594575328774,27.006046099461855-21.847396666608802,53.467841200978-34.972133062967259,79.186524256747362-4.387952870410118,8.581336236802599-8.892072743456993,17.075049615708849-13.747205800097618,25.455573297349474.000000000001819-.000000000002728-2.561523437500909-1.561614990231647-2.5615234375-1.561614990234375h0Z"/>
      <path class="cls-2" d="M691.388846760125489,414.398526753739134c12.806251882462675,41.308826063725974-15.959396930938965,99.622311871957208-56.403841375384218,102.288978538623269-40.198797252031,2.650470148484601-70.136173971330209-17.781069686513547-82.942425853792884-59.089895750242249-12.806251882480865-41.308826063779634,34.845472438033539-29.673774995488202,73.324881604166876-41.602872310179009,38.479409166131518-11.929097314690807,53.21513374252936-42.905036541983463,66.021385625010225-1.596210478202011Z"/>
      <path class="cls-12" d="M678.985005384741271,432.687505292362403c-.12908167626847,25.579334946604831-1.777777777777374,44.444444444444343-21.957777910121877,61.889375619940438-16.991033918329776,14.688177173531585-57.446677276031551,8.077828476000832-63.375555423210244-19.222708953273468-8.154648644009285-37.549479851313663,17.65864713985502-25.349468302692912,39.111111111109494-32,21.452463971305406-6.650531697323459,46.363199196966889-38.603220955024881,46.222222222222626-10.66666666666697Z"/>
      <path class="cls-2" d="M750.93089126308314,421.983305088703673c-12.806251884318044,41.308826063151173,15.959396926464251,99.62231187267389,56.403841370789451,102.288978541155302,40.198797251912765,2.650470150289948,70.136173972128745-17.781069683364876,82.942425856446789-59.089895746517868,12.806251884336234-41.308826063204833-34.84547243670022-29.673774997053442-73.324881602298774-41.60287231347138-38.479409165594916-11.929097316418847-53.215133740601232-42.905036544372706-66.021385624937466-1.596210481166054Z"/>
      <path class="cls-12" d="M762.668065970979114,432.938950294550523c.129081675120688,25.579334946611198,1.777777775783761,44.444444444524379,21.95777790734428,61.88937562092633,16.991033917667664,14.688177174294651,57.446677275667753,8.077828478580159,63.375555424074264-19.222708950427659,8.154648645693669-37.549479850948046-17.658647138719971-25.349468303485992-39.111111109676131-32.000000001756234-21.452463971007091-6.650531698286613-46.363199195231573-38.603220957106714-46.222222221742413-10.666666668742437Z"/>
      <path class="cls-2" d="M692.564317883642616,538.122187133743864c0-8.448753146461968,11.630065393537734-15.297820824329392,25.976478103753834-15.297820824329392,14.34641271019791,0,25.976478103704721,6.849067677867424,25.976478103704721,15.297820824329392,0,8.448753146461058-10.668291978046909,4.12718660583505-25.014704688244819,4.12718660583505-14.346412710212462,0-26.938251519213736,4.321566540626009-26.938251519213736-4.12718660583505Z"/>
    </g>
  </g>
</svg>