<?xml version="1.0" encoding="UTF-8"?>
<svg id="Layer_2" data-name="Layer 2" xmlns="http://www.w3.org/2000/svg" viewBox="0 0 1162.82 1465.03">
  <defs>
    <style>
      .cls-1, .cls-2, .cls-3 {
        stroke-miterlimit: 10;
      }

      .cls-1, .cls-2, .cls-3, .cls-4, .cls-5, .cls-6 {
        stroke-width: 3px;
      }

      .cls-1, .cls-3 {
        stroke: #0d212b;
      }

      .cls-1, .cls-7 {
        fill: #3eb0ff;
      }

      .cls-2 {
        fill: #fff;
        stroke: #000;
      }

      .cls-8 {
        fill: #001926;
      }

      .cls-3 {
        fill: #163645;
      }

      .cls-9 {
        fill: #2384cc;
      }

      .cls-4 {
        fill: none;
        stroke: #072b2e;
      }

      .cls-4, .cls-5, .cls-6 {
        stroke-linecap: round;
        stroke-linejoin: round;
      }

      .cls-10 {
        fill: #0d212b;
      }

      .cls-11 {
        fill: #f90;
      }

      .cls-5 {
        fill: #ffb92e;
      }

      .cls-5, .cls-6 {
        stroke: #0a3b4c;
      }

      .cls-6 {
        fill: #cffeff;
      }

      .cls-12 {
        fill: #4c340c;
      }
    </style>
  </defs>
  <g id="Layer_1-2" data-name="Layer 1">
    <g>
      <path class="cls-5" d="M722.63,1220.26s-15.94,136.9-5.4,152.18c10.54,15.28,54.28,14.76,54.81,79.06-43.22,24.24-161.8,7.91-168.65-14.23,3.13-14.1,4.42-63.05-.2-111.5-4.04-42.32-13.9-83.96-13.9-105.51,0,0,1.02,9.09,63.35,9.09s70-9.09,70-9.09"/>
      <path class="cls-5" d="M412.64,1220.26s1.53,9.09,68.93,9.09,64.41-9.09,64.41-9.09c0,21.55-9.86,63.19-13.9,105.51-4.62,48.45-3.33,97.4-.2,111.5-6.85,22.14-125.44,38.47-168.65,14.23.53-64.3,44.27-63.77,54.81-79.06,10.54-15.28-5.4-152.18-5.4-152.18"/>
      <path class="cls-11" d="M421.28,1304.17s60.78,12.89,114.56-14.67l3.11-21.33-119.11,9.11,1.44,26.89Z"/>
      <path class="cls-11" d="M598.17,1280.01s75.72-11.89,117.89-3.22l2.94-33.94-124.33,13.83,3.5,23.33Z"/>
      <path class="cls-3" d="M1115.91,633.79s25.34,7.3,17.4,93.16c-7.93,85.87-17.59,147.6-18.97,187.94-.34,10.09-15.17,83.15-34.49,82.96s-78.63-77.44-76.56-109.86c2.07-32.42,6.22-241.74,32.07-257.95,25.85-16.21,53.8-.69,80.53,3.74Z"/>
      <ellipse class="cls-6" cx="1076.75" cy="687.41" rx="84.58" ry="57.42"/>
      <g>
        <path class="cls-1" d="M375.85,763.44c2.07,71.38-273.73,362.31-273.73,362.31-40.48-9.18-113.03-103.54-98.8-108.33,14.23-4.78,169.02-250.84,169.02-250.84,7.14-11.18,63.06-114.85,69.57-126.51,14.61-26.17,22.27-33.04,35.39-49.54,6.33-7.95,2.62-28.09-5.82-50.32l272.64-5.01,214.5-33.08c4.24,11.25-3.89,45.29,19.3,52.53,27.83,8.69,104.12,33.06,171.3,44.64,80.65,13.91,143.75,21.95,166.69,34.49,0,0-37.08,20.08-41.74,94.57-4.66,74.49-4.66,128.29-1.03,141.22,3.62,12.93,4.14,69.83,1.03,92.08-3.1,22.24-.52,39.31,5.69,36.21,0,0-52.25,7.24-72.94-3.1-20.69-10.35-200.08-168.63-230.65-246.74"/>
        <path class="cls-9" d="M249.99,624.52l-10.27,23.84-11.97,21.64s101.25-94.51,314.31-97.54c7.67-.11,15.27-1.42,22.53-3.89,35.61-12.13,131.66-51.05,210.59-13.21l-81.6-58.01-382.27,57.32-31.24,34.76-14.99,19.05"/>
      </g>
      <g>
        <path class="cls-1" d="M549.89,560.67c-47.64,0-81.34-19.19-156.87-6.52-68.44,11.49-75.97,35.9-118.28,33.08-37.59-2.51-144.34-66.16-132.81-120.78,11.53-54.63,112.26-221.02,154.36-279.16,0,0,1.5-33.58-3.51-45.11-5.01-11.53-15.64-103,36.59-137.82,27.06-18.04,122.29,55.13,171.4,51.12,49.12-4.01,116.77-8.52,166.39,59.64,49.62,68.16,211,292.69,208.99,303.71-2,11.03,37.09,51.62-98.23,135.82-14.17-8.78-36.5-20.27-65.37-25.15-62.53-10.58-129.8,31.17-162.67,31.17Z"/>
        <path class="cls-9" d="M553.84,560.49s-60.31-20.31-84.14-24.25c-23.83-3.94-68.94-27.35-93.37-26.73l-42.42-7.37s-38.92-11.5-51.91-27.92c0,0-7.53-9.16-7.72-13.22-.19-4.06-2.33,23.79,10.74,33.56-21.32,7.86-88.54,30.76-143.88-17.32l3.05,18.57,29.54,36.85,60.67,41.32,35.83,14.3,26.81-1.25,33.73-14,31.92-12.56,41.85-9.27,54.13-1,95.17,10.31Z"/>
        <path class="cls-9" d="M808.93,532.08c-.56,0-30.02-13.69-55.27-14.03,0-2,17.56-7.99,17.56-7.99-15.4-.84-29.99.72-43.87,4.41-19.46,4-37.7,7.98-50.1,11.86l44.85,3.91,46.05,18.01,9.77,6.42,31.01-22.58Z"/>
        <path class="cls-9" d="M294.32,147.22c13.73,1.27,30.35-5.01,48.04-14.09l-46.91,55.89c1.51-14.08,1.34-28.02-1.13-41.8Z"/>
        <path class="cls-4" d="M549.89,560.67c-47.64,0-81.34-19.19-156.87-6.52-68.44,11.49-75.97,35.9-118.28,33.08-37.59-2.51-144.34-66.16-132.81-120.78,11.53-54.63,112.26-221.02,154.36-279.16,0,0,1.5-33.58-3.51-45.11-5.01-11.53-15.64-103,36.59-137.82,27.06-18.04,122.29,55.13,171.4,51.12,49.12-4.01,116.77-8.52,166.39,59.64,49.62,68.16,211,292.69,208.99,303.71-2,11.03,37.09,51.62-98.23,135.82-14.17-8.78-36.5-20.27-65.37-25.15-62.53-10.58-129.8,31.17-162.67,31.17Z"/>
        <path class="cls-10" d="M483.79,538.24c-9.83.1-19.41-2.82-28.82-5.36-18.77-5.5-37.19-12.12-55.99-17.46-14.02-3.99-28.23-7.48-42.75-8.73-14.77-.65-29.53-4.15-42.96-10.31-13.31-6.21-26.37-14.32-35.25-26.25-2.63-3.81-5.68-9.31-2.67-13.68-2.67,4.45.6,9.59,3.31,13.21,9.26,11.26,22.37,18.77,35.55,24.58,13.42,5.75,27.68,8.95,42.25,9.54,24.57,2.09,48.17,10.18,71.24,18.09,9.25,3.2,18.43,6.55,27.7,9.62,9.25,2.99,18.61,6.2,28.39,6.76h0Z"/>
        <path class="cls-12" d="M663.01,528.79c17.74-4.91,35.57-9.31,53.58-13.06,9-1.85,18.05-3.52,27.15-4.78,9.08-1.1,18.36-2.33,27.47-.89-9.12-1.18-18.33.29-27.35,1.64-18.09,3.04-35.9,7.51-53.59,12.32-8.84,2.42-17.66,4.97-26.4,7.66,0,0-.86-2.88-.86-2.88h0Z"/>
        <polygon class="cls-12" points="291.61 191.28 342.37 133.13 293.9 193.21 291.61 191.28 291.61 191.28"/>
      </g>
      <path class="cls-3" d="M596.87,514.06c91.72-51.75,152.23-57.64,179.67-75.8,11.52-7.62,17.03-24.62,15.66-38.36-2.45-24.58-15.7-53.39-47.32-96.28-20.26-27.49-38.92-56.15-55.58-85.96-22.22-39.76-43.7-75.23-65.82-91.41-11.6-8.48-26.93-9.8-39.96-3.76-41.7,19.32-106.96,76.33-152.98,161.7-38.55,62.99-80.32,109.27-81.31,146-.35,12.92,6.25,24.98,16.64,32.66,38.37,28.35,131.19,43.56,184.94,57.72,9.62,3.09,24.25,6.84,46.05-6.5Z"/>
      <path class="cls-12" d="M504.86,56.66c-21.53,2.16-44.53,1.09-65.87,4.62-1.42.32-2.87.66-4.15,1.37,1.26-.77,2.7-1.17,4.11-1.55,15.03-3.29,32.73-3.99,48.11-5.53,5.83-.53,11.69-1.04,17.41-1.89l.4,2.97h0Z"/>
      <g>
        <ellipse class="cls-2" cx="500.51" cy="369.58" rx="58.78" ry="63.1"/>
        <ellipse class="cls-8" cx="517.08" cy="371.77" rx="30.74" ry="41.34"/>
      </g>
      <g>
        <ellipse class="cls-2" cx="674.43" cy="371.69" rx="58.78" ry="63.1"/>
        <ellipse class="cls-8" cx="661.81" cy="372.35" rx="32.77" ry="40.76"/>
      </g>
      <path class="cls-2" d="M619.59,434.8c0,11.96-11.63,21.65-25.98,21.65s-25.98-9.69-25.98-21.65,10.67-5.84,25.01-5.84,26.94-6.12,26.94,5.84Z"/>
      <path class="cls-9" d="M1074.18,961.65c-10.79,12.64-139.97-89.8-258.64-240.02l81.63,196.66,165.33,79.56,12.89.44c-4.59-11.58-4.57-23.85-1.21-36.64Z"/>
      <rect class="cls-7" x="293.08" y="700.25" width="506.93" height="191.05"/>
      <path class="cls-9" d="M56.06,1095.06c61.33-47.56,132.72-182.37,209.61-297.48l-152.28,333.48c-18.04-5.42-37.1-17.14-57.33-36Z"/>
      <path class="cls-1" d="M435.51,841.55c-4.33,75.08-92.96,346.18-111.9,394.17-112.77,24.31-185.7-33.11-211.05-55.87-17.17-15.42-27.46-17.07-32.31-16.53-1.1.12-1.84-1.08-1.23-2,22.23-33.32,118.82-230.15,186.65-363.74"/>
      <path class="cls-9" d="M280.72,1241.51s124.67-332.56,146.34-399.96c-5.9,49.13-54.33,237.86-93.23,395.29l-53.11,4.67Z"/>
      <path class="cls-1" d="M688.8,877.33c36.73,103.97,209.33,309.16,209.33,309.16,13.45-17.24,25.52-31.04,110.35-57.25,84.83-26.21,83.45-112.08,83.45-112.08,0,0-213.29-145.53-276.4-295.54"/>
      <path class="cls-9" d="M933.83,1156.17c-60-52.67-171.42-228.06-216.58-345.49-3,6,147.25,399.49,147.25,399.49,14.11-15.67,37.16-33.66,69.33-54Z"/>
      <path class="cls-1" d="M427.06,841.55c-15.35,124.41-110.7,339.08-110.7,414.51,0,0,90.52,48.11,185.7,27.42,95.18-20.69,141.73-37.76,229.67-27.42,87.94,10.35,138.11-12.93,156.74-30,11.63-10.66,22.65-13.05,29.29-13.34,2.51-.11,3.87-2.96,2.39-4.98-25.01-33.94-159.79-222.29-202.9-397.05"/>
    </g>
  </g>
</svg>