<?xml version="1.0" encoding="UTF-8"?>
<svg id="Layer_2" data-name="Layer 2" xmlns="http://www.w3.org/2000/svg" viewBox="0 0 508.279480077530025 907.431460990763298">
  <defs>
    <style>
      .cls-1 {
        fill: #ffbfed;
      }

      .cls-1, .cls-2, .cls-3, .cls-4, .cls-5 {
        stroke: #000;
        stroke-miterlimit: 10;
      }

      .cls-2 {
        fill: #00df8e;
      }

      .cls-4 {
        fill: #567dff;
      }

      .cls-5 {
        fill: #f2f2f2;
      }
    </style>
  </defs>
  <g id="Layer_1-2" data-name="Layer 1">
    <g>
      <g>
        <g>
          <rect class="cls-4" x="204.120005676346409" y="819.192028039449724" width="31.565928266520132" height="34.666666666658784"/>
          <path class="cls-2" d="M199.595030252925426,847.808395777259648c-.258420763049799,7.013217738629464-.819688860579845,24.741754044649497-.255231987110164,33.383632262190076,0,0-17.333333333330302,2.666666666669698-18,14.333333333328483-.666666666658784,11.666666666671517,20,11.333333333341216,20,11.333333333341216,0,0,23.07864889260054.147226518529351,37.313454648219704.022843598479085,1.242893468650436-.010860332178709,2.237633532020482-1.018131282859031,2.242264488511864-2.261063572039347.047626919858885-12.782896299990171.798486711259102-46.231463448710201,1.038078573439634-56.630407499860667.039683928989689-1.722391376290034-1.345906352989914-3.131372526589985-3.06875482785108-3.131372526589985h-36.202698599659925c-1.651360703399405,0-3.006304760949206,1.299460295849713-3.067112295550032,2.949701071151139Z"/>
        </g>
        <g>
          <rect class="cls-4" x="272.593546137335579" y="819.192028039648903" width="31.565928266520132" height="34.666666666664241" transform="translate(576.753020503832659 1673.05072275884072) rotate(-180)"/>
          <path class="cls-2" d="M308.684449826776472,847.808395778369231c.258420762729656,7.013217738649473.819688859470261,24.741754044689515.255231985598584,33.383632262199171,0,0,17.333333333210248,2.666666667450045,17.999999999361535,14.333333334139752.666666666138553,11.666666666700621-20.000000000511136,11.333333332440816-20.000000000511136,11.333333332440816,0,0-23.078648892598721.147226517499803-37.31345464820879.022843596809253-1.24289346866135-.01086033222964-2.237633531980464-1.018131282959075-2.242264488410001-2.261063572139392-.047626919300455-12.782896299990171-.798486709200006-46.231463448739305-1.038078570911239-56.630407499909779-.039683928909653-1.722391376290034,1.345906353129976-3.131372526520863,3.068754828000237-3.131372526449923l36.202698599659925.000000001629815c1.651360703399405.000000000070941,3.006304760880084,1.29946029598068,3.067112295420884,2.949701071280288Z"/>
        </g>
      </g>
      <g>
        <path class="cls-2" d="M506.881561684756889,571.68246610092865c12.625670380368319,141.351812614180744-109.711052352929983,258.686416293870934-252.572649962930882,258.686416293870934-142.860863374009568,0-267.637671705429966-116.781730970429635-252.571850607189845-258.686416293870934,0,0,10.991263247400639-65.042120533200432,55.006500392999442-126.9657100484892,43.990382383170072-61.922862272031125,10.865521400370199-132.523638755319553,10.865521400370199-132.523638755319553,0,0,50.504115029860259,33.12486797551901,50.504115029860259,95.601330200068332,0,0-15.744858714320799,56.490299116281676,22.812572416949479,59.734894957651704,38.557445116710369,3.269489937858452,40.745426416529881-47.788190080891582,39.638967740209409-53.220781207530308-1.08152262349904-5.432563155740354,1.635122576011781-49.97618536616028-30.40820879057901-98.317248156310598-32.043331366579878-48.341790033409779-42.355619932430272-113.509248146809114-2.716645199509003-188.48600121518939C187.078851845146346,52.55349486025807,264.218664145966613.414250261668712,264.218664145966613.414250261668712c0,0-84.735448674440704,85.26410558139105-46.705954199591361,211.298573632149782,38.028767231589882,126.009525005199976,74.951831001000755,85.81697129793065,79.855744242500805,79.856457500320175,4.879690446490713-5.986163108260371,22.812558431509387-42.909226877680339-13.581827452770085-105.385689102229662,0,0,93.413334914810548,58.65409957743941,96.130008085210648,166.202106683380407,0,0-1.082277837660513,32.042590137869411-14.110477367021304,50.252621720779644-13.028227500250068,18.18435430136924-34.75926330826951,75.78185332268913-5.432591126629632,109.988243921709,29.326672181630784,34.231284695510112,51.61058069891078,7.595608402720245,53.773653916779949,3.797440579730392,2.163045246990805-3.797440579730392,10.312281573129439-38.028781217029973-1.081522623489946-66.273930775168992-11.418754234890002-28.245876801411214-11.418754234890002-68.437703265421078,46.178716815540611-109.711807567080541,0,0-38.557431131270278,64.08666273317067,2.163073217880083,128.726198175589161,40.745426416529881,64.639535442431225,45.499024068660219,102.518001070080572,45.499024068660219,102.518001070080572h-.024950038279712Z"/>
        <path class="cls-4" d="M150.73140112256624,809.097576215899608c-181.594500654269723-121.232459772219954-53.044802322059695-287.761602159151153-53.044802322059695-287.761602159151153,0,0-13.028213514809977,55.408776492789912,41.826949040019826,68.990548003779622,54.855903783540271,13.582554696040461,82.019516732749253-73.869511206998141,87.980771759070194-93.966151682279815,5.960499812159469-20.095969173789854,13.028213514809977-114.615748779469868-13.028954743520444-151.538057334719269,0,0,96.481224627450501,45.423502652340176,105.98914717497064,140.069430994170034,3.721919163399434,59.231894354070391-10.941402941960405,112.502519696370655,16.222196021788477,134.762205418630401,27.163626934659987,22.258958478980276,67.884131283801253,17.932867985018675,82.019530718200258-15.74487269976089,14.109750123740014-33.67846792804994,10.8651542823809-54.855903783549365,10.8651542823809-54.855903783549365,0,0,38.029508460289435,71.707249145079913,20.649513184518582,139.037780476350235-17.379268032498658,67.35542542776966-83.100326098419828,116.80517058039004-83.100326098419828,116.80517058039004-67.004222870989906,31.038015446340069-138.635922628849585,35.312807319000058-216.37917901694891,4.223437309559813v-.021985123419654Z"/>
      </g>
      <g>
        <circle class="cls-5" cx="340.889812173898008" cy="620.192028039446541" r="53.444444444445253"/>
        <circle class="cls-3" cx="334.389812173801147" cy="622.358694705821563" r="46.944444444445473"/>
        <circle class="cls-5" cx="345.334256618950803" cy="606.60869470631178" r="19.805555555556111"/>
        <path class="cls-5" d="M316.875923284826058,624.277738343398596l-.624270696900567,2.536321421261164c-1.263823347610014,5.134731207399454-5.272932633479286,9.143840492899471-10.407663840989699,10.407663840049281l-2.536321421319371.624270696680469,2.536321421270259.624270696898748c5.13473120738854,1.263823347610014,9.143840492888557,5.272932633481105,10.407663840049281,10.407663840980604l.624270696669555,2.536321421319371.624270696900567-2.536321421259345c1.263823347619109-5.134731207390359,5.272932633479286-9.143840492899471,10.407663840980604-10.407663840049281l2.536321421328466-.624270696680469-2.53632142126844-.624270696900567c-5.134731207390359-1.263823347610014-9.14384049290129-5.272932633470191-10.4076638400511-10.407663840980604l-.624270696669555-2.536321421319371Z"/>
      </g>
      <g>
        <circle class="cls-5" cx="169.907676423043085" cy="620.192028039446996" r="53.444444444444798"/>
        <circle class="cls-3" cx="176.407676423043085" cy="622.358694706111237" r="46.944444444447527"/>
        <circle class="cls-5" cx="165.463231978598287" cy="606.608694706111237" r="19.805555555555429"/>
        <path class="cls-5" d="M193.92156531193541,624.277738344479076l.624270696789608,2.536321421290268c1.263823347380821,5.134731207450386,5.272932633070013,9.143840493128664,10.407663840511304,10.407663840520399l2.536321421290268.624270696778694-2.536321421290268.624270696789608c-5.134731207450386,1.263823347380821-9.143840493130483,5.272932633070013-10.407663840511304,10.407663840520399l-.624270696789608,2.536321421290268-.624270696789608-2.536321421290268c-1.263823347380821-5.134731207450386-5.272932633070013-9.143840493139578-10.407663840520399-10.407663840520399l-2.536321421290268-.624270696789608,2.536321421290268-.624270696778694c5.134731207450386-1.263823347391735,9.143840493139578-5.272932633070013,10.407663840520399-10.407663840520399l.624270696789608-2.536321421290268Z"/>
      </g>
      <g>
        <ellipse class="cls-1" cx="121.403480760973252" cy="683.094812223758709" rx="12.777777777779013" ry="25.166666666665012" transform="translate(-570.910410639408155 637.720773369440963) rotate(-76.172511480031488)"/>
        <ellipse class="cls-1" cx="386.875999316353045" cy="683.094812223763711" rx="25.166666666670334" ry="12.777777777774956" transform="translate(-152.047442056687828 112.259384387785417) rotate(-13.827488517400742)"/>
      </g>
      <circle class="cls-3" cx="254.139740038763193" cy="687.28046690624933" r="19.477327755983652"/>
      <path class="cls-4" d="M407.310619014366239,154.705705178428616l8.987814994869041,27.661650245670899,29.085180293330268-.000000000240107c3.929077544000393-.000000000030923,5.562708384310099,5.027798742989035,2.384017878970553,7.337252578439802l-23.530405141900701,17.095840036490699,8.98781499532015,27.661650245518103c1.214151733351173,3.736774801240244-3.06274933163877,6.844125313020413-6.241439836929203,4.534671477520533l-23.530405141620577-17.095840036879963-23.530405141629672,17.095840036879963c-3.178690505290433,2.30945383549988-7.455591570269462-.797896676280288-6.241439836931022-4.534671477520533l8.98781499532015-27.661650245518103-23.530405141898882-17.095840036490699c-3.178690505330451-2.309453835450768-1.545059665029839-7.337252578470725,2.384017878968734-7.337252578439802l29.085180293330268.000000000240107,8.98781499487086-27.661650245670899c1.214151733289327-3.736774801260253,6.5006921826498-3.736774801260253,7.714843915930032,0Z"/>
    </g>
  </g>
</svg>