<?xml version="1.0" encoding="UTF-8"?>
<svg id="Layer_2" data-name="Layer 2" xmlns="http://www.w3.org/2000/svg" viewBox="0 0 508.279480077527296 907.431460991268068">
  <defs>
    <style>
      .cls-1 {
        fill: none;
        stroke-linecap: round;
        stroke-linejoin: round;
        stroke-width: 5px;
      }

      .cls-1, .cls-2, .cls-3, .cls-4, .cls-5 {
        stroke: #000;
      }

      .cls-2 {
        fill: #00df8e;
      }

      .cls-2, .cls-3, .cls-4, .cls-5 {
        stroke-miterlimit: 10;
      }

      .cls-4 {
        fill: #567dff;
      }

      .cls-5 {
        fill: #f2f2f2;
      }
    </style>
  </defs>
  <g id="Layer_1-2" data-name="Layer 1">
    <g>
      <g>
        <g>
          <rect class="cls-4" x="204.12000567634459" y="819.192028039950856" width="31.565928266521951" height="34.66666666666606"/>
          <path class="cls-2" d="M199.595030252922697,847.808395777760779c-.25842076304707,7.01321773863674-.819688860582573,24.741754044654954-.255231987105617,33.383632262190076,0,0-17.33333333333394,2.666666666667879-18,14.33333333333394s20,11.333333333337578,20,11.333333333337578c0,0,23.078648892596902.147226518529351,37.313454648212428.022843598479085,1.242893468659531-.010860332180528,2.237633532025939-1.018131282859031,2.242264488511864-2.261063572037529.04762691986798-12.782896299986533.798486711266378-46.231463448708382,1.03807857344691-56.630407499858848.039683928984232-1.722391376290034-1.345906352991733-3.131372526588166-3.068754827854718-3.131372526588166h-36.202698599659925c-1.651360703397586,0-3.006304760943749,1.299460295844256-3.067112295550942,2.949701071143863Z"/>
        </g>
        <g>
          <rect class="cls-4" x="272.593546137332851" y="819.192028040153673" width="31.565928266521951" height="34.666666666666515" transform="translate(576.753020503612106 1673.050722759927339) rotate(-180)"/>
          <path class="cls-2" d="M308.684449826771015,847.808395778874001c.258420762731475,7.013217738649473.819688859470261,24.741754044693153.25523198560586,33.383632262202809,0,0,17.333333333214796,2.666666667446407,17.999999999356078,14.333333334141571.666666666142191,11.666666666693345-20.000000000507498,11.33333333243354-20.000000000507498,11.33333333243354,0,0-23.078648892604178.147226517499803-37.313454648214247.022843596809253-1.242893468659531-.01086033222964-2.237633531980464-1.018131282959075-2.242264488410001-2.261063572137573-.047626919294999-12.782896299988352-.798486709190911-46.231463448744762-1.038078570903963-56.630407499906141-.039683928907834-1.722391376291853,1.345906353131795-3.13137252652632,3.06875482799478-3.131372526449923l36.202698599659925.000000001626177c1.651360703397586.00000000007276,3.006304760885541,1.299460295978861,3.067112295419065,2.949701071280288Z"/>
        </g>
      </g>
      <g>
        <path class="cls-2" d="M506.881561684753251,571.682466100927741c12.625670380371957,141.351812614182563-109.711052352922707,258.686416293869115-252.572649962929063,258.686416293869115-142.86086337400684,0-267.63767170542269-116.781730970433273-252.571850607188935-258.686416293869115,0,0,10.991263247407005-65.042120533198613,55.006500392999442-126.965710048496476,43.99038238317371-61.922862272019302,10.865521400370199-132.523638755317734,10.865521400370199-132.523638755317734,0,0,50.50411502985753,33.124867975526286,50.50411502985753,95.601330200073789,0,0-15.744858714309885,56.490299116279857,22.812572416954936,59.734894957648066,38.557445116713097,3.26948993786209,40.745426416528971-47.788190080887944,39.638967740205771-53.220781207524851-1.081522623492674-5.432563155740354,1.635122576010872-49.97618536615937-30.408208790575372-98.317248156308779-32.043331366585335-48.341790033415236-42.35561993243391-113.509248146810933-2.716645199505365-188.486001215193028C187.078851845149984,52.553494860260798,264.218664145969342.414250261667803,264.218664145969342.414250261667803c0,0-84.735448674438885,85.264105581394688-46.705954199590451,211.298573632151601,38.028767231586244,126.009525005199066,74.951831001000755,85.816971297925193,79.855744242500805,79.856457500314718,4.879690446487984-5.986163108256733,22.812558431507568-42.909226877675792-13.581827452775542-105.385689102223296,0,0,93.413334914810548,58.654099577434863,96.130008085212467,166.202106683372222,0,0-1.082277837658694,32.042590137873049-14.110477367014937,50.252621720788738-13.028227500254616,18.184354301365602-34.759263308272239,75.78185332268913-5.432591126634179,109.988243921707181,29.326672181634422,34.231284695508293,51.610580698903505,7.595608402722064,53.773653916781768,3.797440579724935,2.163045246985348-3.797440579724935,10.312281573123983-38.028781217024516-1.081522623489946-66.273930775168083-11.418754234897278-28.245876801403938-11.418754234897278-68.437703265414711,46.178716815536973-109.711807567079632,0,0-38.55743113126664,64.086662733172489,2.163073217878264,128.726198175594618,40.745426416529881,64.639535442423949,45.4990240686584,102.518001070076934,45.4990240686584,102.518001070076934h-.024950038279712Z"/>
        <path class="cls-4" d="M150.73140112256624,809.097576215902336c-181.594500654266994-121.232459772223592-53.044802322059695-287.761602159158429-53.044802322059695-287.761602159158429,0,0-13.02821351480452,55.408776492797188,41.826949040021645,68.990548003779622,54.855903783542999,13.582554696044099,82.019516732747434-73.869511206998141,87.980771759069285-93.96615168227072,5.960499812160378-20.095969173793492,13.028213514807248-114.615748779474416-13.028954743521354-151.538057334726545,0,0,96.481224627446863,45.423502652338357,105.98914717497064,140.069430994168215,3.721919163404891,59.231894354070391-10.941402941964043,112.502519696372474,16.222196021793934,134.762205418630401,27.163626934652711,22.258958478985733,67.884131283795796,17.932867985020494,82.019530718194801-15.744872699757252,14.109750123745471-33.67846792804994,10.865154282377262-54.855903783545727,10.865154282377262-54.855903783545727,0,0,38.029508460293073,71.707249145072637,20.64951318452222,139.037780476348416-17.379268032500477,67.355425427767841-83.100326098419828,116.805170580388221-83.100326098419828,116.805170580388221-67.00422287098263,31.03801544633825-138.635922628845947,35.312807319001877-216.37917901694891,4.223437309563451v-.021985123419654Z"/>
        <path class="cls-4" d="M395.938671118963612,255.78348624181217s6.514085779233938-21.379078037069121-8.551793446014926-42.783092126974225c-15.065879225254321-21.379092022518307,8.954322595003759-72.109778294056923,22.611671464093888-75.35437413542877,0,0-11.82131135477357,25.654611138447763-1.635122576009962,47.863725482664449,10.186160807868873,22.208387100949949,17.304445888554255,47.46116836278452-12.424755442068999,70.273740779738546Z"/>
      </g>
      <path class="cls-1" d="M224.907676423044904,678.080916928333863v5.62005872680129c0,8.555471990683145,6.935580393625969,15.491052384310024,15.491052384310024,15.491052384310024h.573450786935609c8.555471990684055,0,15.491052384310024-6.935580393626879,15.491052384310024-15.491052384310024v-2.731169837912603,2.731169837912603c0,8.555471990683145,6.935580393625969,15.491052384310024,15.491052384310024,15.491052384310024h.000030982137105c8.555471990684055,0,15.491052384310024-6.93558039362506,15.491052384310024-15.491052384310024v-5.62005872680129"/>
      <g>
        <circle class="cls-5" cx="340.889812173897553" cy="620.192028039446996" r="53.444444444444798"/>
        <circle class="cls-3" cx="334.389812173801374" cy="622.358694705820199" r="46.944444444445594"/>
        <circle class="cls-5" cx="345.33425661895194" cy="606.608694706311326" r="19.805555555554406"/>
        <path class="cls-5" d="M316.875923284824239,624.277738343397687l-.624270696900567,2.536321421264802c-1.263823347611833,5.134731207392178-5.272932633477467,9.143840492897652-10.407663840982423,10.407663840047462l-2.536321421323009.624270696675012,2.536321421266621.624270696902386c5.134731207392178,1.263823347610014,9.143840492897652,5.272932633477467,10.407663840047462,10.407663840982423l.624270696673193,2.53632142132119.624270696902386-2.536321421266621c1.263823347613652-5.134731207390359,5.272932633477467-9.143840492897652,10.407663840982423-10.407663840047462l2.53632142132119-.624270696675012-2.536321421262983-.624270696900567c-5.134731207392178-1.263823347611833-9.143840492899471-5.272932633477467-10.407663840049281-10.407663840984242l-.624270696675012-2.536321421319371Z"/>
      </g>
      <g>
        <circle class="cls-5" cx="169.907676423046496" cy="620.192028039446996" r="53.444444444445132"/>
        <circle class="cls-3" cx="176.407676423046269" cy="622.358694706111237" r="46.944444444445473"/>
        <circle class="cls-5" cx="165.463231978602153" cy="606.608694706111237" r="19.80555555555463"/>
        <path class="cls-5" d="M193.92156531193541,624.277738344474528l.624270696787789,2.536321421292087c1.263823347380821,5.134731207449477,5.272932633068194,9.14384049313594,10.407663840516761,10.407663840516761l2.536321421292087.624270696787789-2.536321421292996.624270696787789c-5.134731207448567,1.263823347380821-9.143840493135031,5.272932633066375-10.407663840515852,10.407663840516761l-.624270696787789,2.536321421292087-.624270696787789-2.536321421292087c-1.263823347379912-5.134731207448567-5.272932633068194-9.14384049313594-10.407663840516761-10.407663840516761l-2.536321421292996-.624270696787789,2.536321421292996-.624270696787789c5.134731207449477-1.263823347380821,9.14384049313685-5.272932633066375,10.407663840516761-10.407663840516761l.624270696787789-2.536321421292087Z"/>
      </g>
    </g>
  </g>
</svg>