<?xml version="1.0" encoding="UTF-8"?>
<svg id="Layer_2" data-name="Layer 2" xmlns="http://www.w3.org/2000/svg" viewBox="0 0 508.279480077525477 907.431460990762389">
  <defs>
    <style>
      .cls-1 {
        fill: none;
        stroke-linecap: round;
        stroke-linejoin: round;
        stroke-width: 5px;
      }

      .cls-1, .cls-2, .cls-3, .cls-4, .cls-5, .cls-6 {
        stroke: #000;
      }

      .cls-2 {
        fill: #ffbfed;
      }

      .cls-2, .cls-3, .cls-4, .cls-5, .cls-6 {
        stroke-miterlimit: 10;
      }

      .cls-3 {
        fill: #00df8e;
      }

      .cls-5 {
        fill: #567dff;
      }

      .cls-6 {
        fill: #f2f2f2;
      }
    </style>
  </defs>
  <g id="Layer_1-2" data-name="Layer 1">
    <g>
      <g>
        <g>
          <rect class="cls-5" x="204.1200056763455" y="819.192028039445177" width="31.565928266521951" height="34.66666666666606"/>
          <path class="cls-3" d="M199.595030252922697,847.8083957772551c-.258420763046161,7.01321773863674-.819688860581664,24.741754044654954-.255231987103798,33.383632262190076,0,0-17.333333333334849,2.666666666667879-18,14.33333333333394-.66666666666697,11.666666666662422,20,11.333333333332121,20,11.333333333332121,0,0,23.078648892595993.147226518540265,37.313454648211518.022843598480904,1.242893468659531-.010860332169614,2.237633532025939-1.018131282849936,2.242264488511864-2.261063572033891.04762691986798-12.782896299986533.798486711266378-46.231463448708382,1.03807857344691-56.630407499858848.039683928984232-1.722391376290034-1.345906352991733-3.131372526588166-3.068754827854718-3.131372526588166h-36.202698599659925c-1.651360703397586,0-3.006304760943749,1.299460295844256-3.067112295551851,2.949701071143863Z"/>
        </g>
        <g>
          <rect class="cls-5" x="272.59354613733376" y="819.192028039647994" width="31.565928266521951" height="34.66666666666606" transform="translate(576.753020503638027 1673.050722758907341) rotate(-180)"/>
          <path class="cls-3" d="M308.684449826771925,847.808395778368322c.258420762731475,7.013217738649473.819688859470261,24.741754044693153.25523198560586,33.383632262202809,0,0,17.333333333212067,2.666666667446407,17.99999999935244,14.333333334141571.666666666149467,11.666666666698802-20.00000000050386,11.333333332438997-20.00000000050386,11.333333332438997,0,0-23.078648892604178.147226517499803-37.313454648214247.022843596800158-1.242893468659531-.01086033222964-2.237633531980464-1.01813128294998-2.242264488410001-2.261063572133935-.047626919294999-12.782896299988352-.798486709190911-46.231463448744762-1.038078570903963-56.630407499906141-.039683928907834-1.722391376291853,1.345906353131795-3.13137252652632,3.06875482799478-3.131372526449923l36.202698599659925.000000001626177c1.651360703397586.00000000007276,3.006304760885541,1.299460295978861,3.067112295419065,2.949701071280288Z"/>
        </g>
      </g>
      <g>
        <path class="cls-3" d="M506.881561684750523,571.682466100927741c12.625670380370138,141.351812614182563-109.711052352920888,258.686416293869115-252.572649962927244,258.686416293869115-142.860863374007749,0-267.63767170542269-116.781730970433273-252.571850607188026-258.686416293869115,0,0,10.991263247406096-65.042120533198613,55.006500392997623-126.965710048496476,43.99038238317371-61.922862272019302,10.865521400370199-132.523638755317734,10.865521400370199-132.523638755317734,0,0,50.50411502985844,33.124867975526286,50.50411502985844,95.601330200073789,0,0-15.744858714309885,56.490299116279857,22.812572416954936,59.734894957648066,38.557445116714007,3.26948993786209,40.745426416529881-47.788190080887944,39.638967740205771-53.220781207524851-1.081522623491765-5.432563155740354,1.635122576012691-49.97618536615937-30.408208790575372-98.317248156308779-32.043331366585335-48.341790033415236-42.35561993243391-113.509248146810933-2.716645199505365-188.486001215193028C187.078851845149075,52.553494860260798,264.218664145967523.414250261667803,264.218664145967523.414250261667803c0,0-84.735448674437066,85.264105581394688-46.705954199588632,211.298573632151601,38.028767231585334,126.009525005199066,74.951831000999846,85.816971297925193,79.855744242499895,79.856457500314718,4.879690446487075-5.986163108256733,22.812558431511206-42.909226877675792-13.581827452775542-105.385689102223296,0,0,93.41333491480691,58.654099577434863,96.130008085217924,166.202106683372222,0,0-1.082277837660513,32.042590137873049-14.110477367021304,50.252621720788738-13.028227500250068,18.184354301365602-34.75926330826951,75.78185332268913-5.432591126629632,109.988243921707181,29.326672181630784,34.231284695508293,51.610580698899867,7.595608402722064,53.773653916779949,3.797440579724935,2.163045246979891-3.797440579724935,10.312281573120345-38.028781217024516-1.081522623489946-66.273930775168083-11.418754234899097-28.245876801403938-11.418754234899097-68.437703265414711,46.178716815529697-109.711807567079632,0,0-38.557431131259364,64.086662733172489,2.163073217880083,128.726198175594618,40.745426416529881,64.639535442423949,45.499024068660219,102.518001070076934,45.499024068660219,102.518001070076934h-.024950038279712Z"/>
        <path class="cls-5" d="M150.73140112256533,809.097576215902336c-181.594500654266085-121.232459772223592-53.044802322059695-287.761602159158429-53.044802322059695-287.761602159158429,0,0-13.02821351480452,55.408776492797188,41.826949040021645,68.990548003779622,54.85590378354209,13.582554696044099,82.019516732747434-73.869511206998141,87.980771759068375-93.96615168227072,5.960499812161288-20.095969173793492,13.028213514808158-114.615748779474416-13.028954743520444-151.538057334726545,0,0,96.481224627446863,45.423502652338357,105.989147174976097,140.069430994168215,3.721919163399434,59.231894354070391-10.9414029419695,112.502519696372474,16.222196021788477,134.762205418630401,27.163626934650893,22.258958478985733,67.884131283801253,17.932867985020494,82.019530718191163-15.744872699757252,14.109750123749109-33.67846792804994,10.865154282379081-54.855903783545727,10.865154282379081-54.855903783545727,0,0,38.029508460291254,71.707249145072637,20.649513184520401,139.037780476348416-17.379268032500477,67.355425427767841-83.100326098419828,116.805170580388221-83.100326098419828,116.805170580388221-67.004222870978992,31.03801544633825-138.635922628842309,35.312807319001877-216.379179016945272,4.223437309563451v-.021985123419654Z"/>
      </g>
      <path class="cls-1" d="M224.907676423044904,678.080916928333863v5.62005872680129c0,8.555471990683145,6.93558039362415,15.491052384310024,15.491052384310024,15.491052384310024h.573450786935609c8.555471990683145,0,15.491052384310024-6.935580393626879,15.491052384310024-15.491052384310024v-2.731169837912603,2.731169837912603c0,8.555471990683145,6.93558039362506,15.491052384310024,15.491052384310024,15.491052384310024h.000030982135286c8.555471990684964,0,15.491052384310024-6.93558039362506,15.491052384310024-15.491052384310024v-5.62005872680129"/>
      <g>
        <circle class="cls-6" cx="340.889812173898463" cy="620.192028039446996" r="53.444444444443889"/>
        <circle class="cls-4" cx="334.389812173802056" cy="622.358694705820199" r="46.944444444446617"/>
        <circle class="cls-6" cx="345.334256618950349" cy="606.608694706311326" r="19.805555555552015"/>
        <path class="cls-6" d="M316.875923284819692,624.277738343397687l-.624270696898748,2.536321421264802c-1.263823347610014,5.134731207392178-5.272932633475648,9.143840492897652-10.407663840980604,10.407663840047462l-2.536321421323009.624270696675012,2.536321421266621.624270696902386c5.134731207392178,1.263823347610014,9.143840492895833,5.272932633477467,10.407663840047462,10.407663840982423l.624270696669555,2.53632142132119.624270696909662-2.536321421266621c1.263823347610014-5.134731207390359,5.272932633470191-9.143840492897652,10.407663840980604-10.407663840047462l2.536321421319371-.624270696675012-2.536321421259345-.624270696900567c-5.134731207401273-1.263823347611833-9.14384049290129-5.272932633477467-10.4076638400511-10.407663840984242l-.624270696680469-2.536321421319371Z"/>
      </g>
      <g>
        <circle class="cls-6" cx="169.907676423045814" cy="620.192028039446996" r="53.444444444445246"/>
        <circle class="cls-4" cx="176.407676423045814" cy="622.358694706111237" r="46.944444444445253"/>
        <circle class="cls-6" cx="165.463231978600561" cy="606.608694706111237" r="19.805555555554744"/>
        <path class="cls-6" d="M193.921565311934501,624.277738344474528l.624270696787789,2.536321421292087c1.263823347380821,5.134731207449477,5.272932633068194,9.14384049313594,10.407663840516761,10.407663840516761l2.536321421292087.624270696787789-2.536321421292087.624270696787789c-5.134731207450386,1.263823347380821-9.14384049313594,5.272932633066375-10.407663840516761,10.407663840516761l-.624270696787789,2.536321421292087-.624270696787789-2.536321421292087c-1.263823347380821-5.134731207448567-5.272932633068194-9.14384049313594-10.407663840516761-10.407663840516761l-2.536321421292087-.624270696787789,2.536321421292087-.624270696787789c5.134731207450386-1.263823347380821,9.14384049313594-5.272932633066375,10.407663840516761-10.407663840516761l.624270696787789-2.536321421292087Z"/>
      </g>
      <g>
        <ellipse class="cls-2" cx="121.403480760971888" cy="683.09481222376121" rx="12.777777777776937" ry="25.166666666666938" transform="translate(-570.910410639404063 637.720773369327731) rotate(-76.172511480022067)"/>
        <ellipse class="cls-2" cx="386.875999316353045" cy="683.094812223761437" rx="25.166666666665591" ry="12.777777777777365" transform="translate(-152.047442056810951 112.25938438790206) rotate(-13.827488517413144)"/>
      </g>
      <path class="cls-5" d="M431.658690571951411,205.44560910202199l-10.799342734930178,13.699480400416178-16.016168316271433,20.317430987874104c-1.285173451438823,1.630172215895072-2.965109587919869,2.505071317342299-4.662891357978879,2.609772581819925-.194503014519796.007485181940865-.394906601430193.014924722528121-.589481574139427,0-1.691737281271344-.104701264477626-3.365916761751578-.979600365924853-4.656846869191213-2.609772581819925l-26.815511051190697-34.016911388290282c-6.955911358189041-8.823888475261811-6.955911358189041-23.256186444295054,0-32.080074919557774,3.471983148501749-4.41196705830771,8.058167065311864-6.617950587463383,12.644350982121978-6.617950587463383,4.580283344419513,0,9.166467261238722,2.205983529155674,12.644350982129254,6.617950587463383l6.484297315590084,8.225667257529494,6.478396743199482-8.225667257529494c3.478027637289415-4.41196705830771,8.064139595910092-6.617950587463383,12.644422940329605-6.617950587463383,4.580283344421332,0,9.166395303031095,2.205983529155674,12.644422940331424,6.617950587463383,6.955839399979595,8.82388847526272,6.955839399979595,23.256186444295963,0,32.080074919557774Z"/>
    </g>
  </g>
</svg>