<?xml version="1.0" encoding="UTF-8"?>
<svg id="Layer_2" xmlns="http://www.w3.org/2000/svg" version="1.1" viewBox="0 0 1471 1527.9">
  <!-- Generator: Adobe Illustrator 30.1.0, SVG Export Plug-In . SVG Version: 2.1.1 Build 136)  -->
  <defs>
    <style>
      .st0, .st1, .st2, .st3, .st4 {
        stroke-miterlimit: 10;
      }

      .st0, .st1, .st2, .st3, .st4, .st5, .st6, .st7 {
        stroke-width: 3px;
      }

      .st0, .st4 {
        stroke: #0d212b;
      }

      .st0, .st8 {
        fill: #3eb0ff;
      }

      .st1 {
        fill: #fff;
      }

      .st1, .st2, .st3 {
        stroke: #000;
      }

      .st9 {
        fill: #001926;
      }

      .st2 {
        fill: #603a31;
      }

      .st3 {
        fill: #634131;
      }

      .st4 {
        fill: #163645;
      }

      .st10 {
        fill: #2384cc;
      }

      .st5 {
        fill: none;
        stroke: #072b2e;
      }

      .st5, .st6, .st7 {
        stroke-linecap: round;
        stroke-linejoin: round;
      }

      .st11 {
        fill: #567dff;
      }

      .st12 {
        fill: #0d212b;
      }

      .st13 {
        fill: #f90;
      }

      .st14 {
        fill: #ccc;
      }

      .st6 {
        fill: #ffb92e;
      }

      .st6, .st7 {
        stroke: #0a3b4c;
      }

      .st7 {
        fill: #cffeff;
      }

      .st15 {
        fill: #00df8e;
      }

      .st16 {
        fill: #4c340c;
      }
    </style>
  </defs>
  <g id="Layer_1-2">
    <g>
      <path class="st6" d="M722.6,1283.2s-15.9,136.9-5.4,152.2c10.5,15.3,54.3,14.8,54.8,79.1-43.2,24.2-161.8,7.9-168.7-14.2,3.1-14.1,4.4-63.1-.2-111.5-4-42.3-13.9-84-13.9-105.5,0,0,1,9.1,63.3,9.1s70-9.1,70-9.1"/>
      <path class="st6" d="M412.6,1283.2s1.5,9.1,68.9,9.1,64.4-9.1,64.4-9.1c0,21.5-9.9,63.2-13.9,105.5-4.6,48.5-3.3,97.4-.2,111.5-6.9,22.1-125.4,38.5-168.7,14.2.5-64.3,44.3-63.8,54.8-79.1,10.5-15.3-5.4-152.2-5.4-152.2"/>
      <path class="st13" d="M421.3,1367.1s60.8,12.9,114.6-14.7l3.1-21.3-119.1,9.1,1.4,26.9h0Z"/>
      <path class="st13" d="M598.2,1342.9s75.7-11.9,117.9-3.2l2.9-33.9-124.3,13.8,3.5,23.3h0Z"/>
      <path class="st4" d="M1115.9,696.7s25.3,7.3,17.4,93.2c-7.9,85.9-17.6,147.6-19,187.9-.3,10.1-15.2,83.2-34.5,83s-78.6-77.4-76.6-109.9c2.1-32.4,6.2-241.7,32.1-258,25.9-16.2,53.8-.7,80.5,3.7h0Z"/>
      <ellipse class="st7" cx="1076.7" cy="750.3" rx="84.6" ry="57.4"/>
      <g>
        <path class="st0" d="M375.8,826.3c2.1,71.4-273.7,362.3-273.7,362.3-40.5-9.2-113-103.5-98.8-108.3,14.2-4.8,169-250.8,169-250.8,7.1-11.2,63.1-114.8,69.6-126.5,14.6-26.2,22.3-33,35.4-49.5,6.3-8,2.6-28.1-5.8-50.3l272.6-5,214.5-33.1c4.2,11.2-3.9,45.3,19.3,52.5,27.8,8.7,104.1,33.1,171.3,44.6,80.7,13.9,143.7,22,166.7,34.5,0,0-37.1,20.1-41.7,94.6s-4.7,128.3-1,141.2,4.1,69.8,1,92.1-.5,39.3,5.7,36.2c0,0-52.2,7.2-72.9-3.1-20.7-10.3-200.1-168.6-230.7-246.7"/>
        <path class="st10" d="M250,687.4l-10.3,23.8-12,21.6s101.3-94.5,314.3-97.5c7.7-.1,15.3-1.4,22.5-3.9,35.6-12.1,131.7-51,210.6-13.2l-81.6-58-382.3,57.3-31.2,34.8-15,19.1"/>
      </g>
      <g>
        <path class="st0" d="M549.9,623.6c-47.6,0-81.3-19.2-156.9-6.5-68.4,11.5-76,35.9-118.3,33.1-37.6-2.5-144.3-66.2-132.8-120.8,11.5-54.6,112.3-221,154.4-279.2,0,0,1.5-33.6-3.5-45.1-5-11.5-15.6-103,36.6-137.8,27.1-18,122.3,55.1,171.4,51.1,49.1-4,116.8-8.5,166.4,59.6,49.6,68.2,211,292.7,209,303.7-2,11,37.1,51.6-98.2,135.8-14.2-8.8-36.5-20.3-65.4-25.2-62.5-10.6-129.8,31.2-162.7,31.2h0Z"/>
        <path class="st10" d="M553.8,623.4s-60.3-20.3-84.1-24.3c-23.8-3.9-68.9-27.4-93.4-26.7l-42.4-7.4s-38.9-11.5-51.9-27.9c0,0-7.5-9.2-7.7-13.2s-2.3,23.8,10.7,33.6c-21.3,7.9-88.5,30.8-143.9-17.3l3,18.6,29.5,36.8,60.7,41.3,35.8,14.3,26.8-1.3,33.7-14,31.9-12.6,41.8-9.3,54.1-1,95.2,10.3h0Z"/>
        <path class="st10" d="M808.9,595c-.6,0-30-13.7-55.3-14,0-2,17.6-8,17.6-8-15.4-.8-30,.7-43.9,4.4-19.5,4-37.7,8-50.1,11.9l44.8,3.9,46,18,9.8,6.4,31-22.6h0Z"/>
        <path class="st10" d="M294.3,210.1c13.7,1.3,30.4-5,48-14.1l-46.9,55.9c1.5-14.1,1.3-28-1.1-41.8Z"/>
        <path class="st5" d="M549.9,623.6c-47.6,0-81.3-19.2-156.9-6.5-68.4,11.5-76,35.9-118.3,33.1-37.6-2.5-144.3-66.2-132.8-120.8,11.5-54.6,112.3-221,154.4-279.2,0,0,1.5-33.6-3.5-45.1-5-11.5-15.6-103,36.6-137.8,27.1-18,122.3,55.1,171.4,51.1,49.1-4,116.8-8.5,166.4,59.6,49.6,68.2,211,292.7,209,303.7-2,11,37.1,51.6-98.2,135.8-14.2-8.8-36.5-20.3-65.4-25.2-62.5-10.6-129.8,31.2-162.7,31.2h0Z"/>
        <path class="st12" d="M483.8,601.1c-9.8,0-19.4-2.8-28.8-5.4-18.8-5.5-37.2-12.1-56-17.5-14-4-28.2-7.5-42.8-8.7-14.8-.6-29.5-4.1-43-10.3-13.3-6.2-26.4-14.3-35.2-26.3-2.6-3.8-5.7-9.3-2.7-13.7-2.7,4.4.6,9.6,3.3,13.2,9.3,11.3,22.4,18.8,35.5,24.6,13.4,5.8,27.7,8.9,42.3,9.5,24.6,2.1,48.2,10.2,71.2,18.1,9.2,3.2,18.4,6.6,27.7,9.6,9.3,3,18.6,6.2,28.4,6.8h0Z"/>
        <path class="st16" d="M663,591.7c17.7-4.9,35.6-9.3,53.6-13.1,9-1.9,18-3.5,27.2-4.8,9.1-1.1,18.4-2.3,27.5-.9-9.1-1.2-18.3.3-27.4,1.6-18.1,3-35.9,7.5-53.6,12.3-8.8,2.4-17.7,5-26.4,7.7l-.9-2.9h0Z"/>
        <polygon class="st16" points="291.6 254.2 342.4 196 293.9 256.1 291.6 254.2 291.6 254.2"/>
      </g>
      <path class="st4" d="M596.9,577c91.7-51.7,152.2-57.6,179.7-75.8,11.5-7.6,17-24.6,15.7-38.4-2.4-24.6-15.7-53.4-47.3-96.3-20.3-27.5-38.9-56.1-55.6-86-22.2-39.8-43.7-75.2-65.8-91.4-11.6-8.5-26.9-9.8-40-3.8-41.7,19.3-107,76.3-153,161.7-38.5,63-80.3,109.3-81.3,146-.3,12.9,6.2,25,16.6,32.7,38.4,28.4,131.2,43.6,184.9,57.7,9.6,3.1,24.2,6.8,46.1-6.5h0Z"/>
      <path class="st16" d="M504.9,119.6c-21.5,2.2-44.5,1.1-65.9,4.6-1.4.3-2.9.7-4.2,1.4,1.3-.8,2.7-1.2,4.1-1.6,15-3.3,32.7-4,48.1-5.5,5.8-.5,11.7-1,17.4-1.9l.4,3h0Z"/>
      <g>
        <ellipse class="st1" cx="500.5" cy="432.5" rx="58.8" ry="63.1"/>
        <ellipse class="st9" cx="517.1" cy="434.7" rx="30.7" ry="41.3"/>
      </g>
      <g>
        <ellipse class="st1" cx="674.4" cy="434.6" rx="58.8" ry="63.1"/>
        <ellipse class="st9" cx="661.8" cy="435.3" rx="32.8" ry="40.8"/>
      </g>
      <path class="st1" d="M619.6,497.7c0,12-11.6,21.6-26,21.6s-26-9.7-26-21.6,10.7-5.8,25-5.8,26.9-6.1,26.9,5.8h0Z"/>
      <path class="st10" d="M1074.2,1024.6c-10.8,12.6-140-89.8-258.6-240l81.6,196.7,165.3,79.6,12.9.4c-4.6-11.6-4.6-23.9-1.2-36.6Z"/>
      <rect class="st8" x="293.1" y="763.2" width="506.9" height="191"/>
      <path class="st10" d="M56.1,1158c61.3-47.6,132.7-182.4,209.6-297.5l-152.3,333.5c-18-5.4-37.1-17.1-57.3-36Z"/>
      <path class="st0" d="M435.5,904.5c-4.3,75.1-93,346.2-111.9,394.2-112.8,24.3-185.7-33.1-211.1-55.9-17.2-15.4-27.5-17.1-32.3-16.5-1.1.1-1.8-1.1-1.2-2,22.2-33.3,118.8-230.2,186.7-363.7"/>
      <path class="st10" d="M280.7,1304.4s124.7-332.6,146.3-400c-5.9,49.1-54.3,237.9-93.2,395.3l-53.1,4.7Z"/>
      <path class="st0" d="M688.8,940.2c36.7,104,209.3,309.2,209.3,309.2,13.4-17.2,25.5-31,110.4-57.2s83.5-112.1,83.5-112.1c0,0-213.3-145.5-276.4-295.5"/>
      <path class="st10" d="M933.8,1219.1c-60-52.7-171.4-228.1-216.6-345.5-3,6,147.2,399.5,147.2,399.5,14.1-15.7,37.2-33.7,69.3-54Z"/>
      <path class="st0" d="M427.1,904.5c-15.3,124.4-110.7,339.1-110.7,414.5,0,0,90.5,48.1,185.7,27.4,95.2-20.7,141.7-37.8,229.7-27.4,87.9,10.3,138.1-12.9,156.7-30,11.6-10.7,22.7-13,29.3-13.3,2.5-.1,3.9-3,2.4-5-25-33.9-159.8-222.3-202.9-397.1"/>
    </g>
    <g>
      <path class="st3" d="M1131.5,144.9s-103.3,61.4-104.5,68c-1.2,6.6,16.1,33.2,13.3,38.6s53.9,43.1,52.7,47.8,2.6,33,7.8,35,78.4,26.7,81,44.4c2.6,17.7,74,60.9,123.6,61.8s-65.8,125.5-66.7,147.6c-.9,22.1-12.6,41-10.8,51.9,1.8,10.8-11.4,59.2-20.8,85.1-9.3,25.9-17.8,57.2-18.6,73.8-.8,16.7-14.3,54.8-17.9,63.5s-26.4,71.1-15.6,122.4,37.8,46,43.4,139.5,12.8,52.2-6,81.8c-18.7,29.6-21.8,60-11.2,96.1,10.6,36.1-6,33.4-6.3,49.1s-6.9,54.3,13.9,96,6.2,33.8,12.2,56,4.5,21,4,22.9c-.5,2-34.6-39.2-51.3-42-16.7-2.8-15.8-26.6-17.1-35.5s-10.2-5.6-10.2-5.6c0,0-12.1-164.3,17.7-257.1s-7.7-131-14.7-150.3c-7-19.3-32.5-65.8-32.5-65.8,0,0,19.1-177.9,26.3-195.4,7.2-17.6-1.3-32.9,8.7-45s26.6-104.6,26.2-112c-.4-7.4,19.5-20.3,27.2-50.6s19.7-93.5,25.2-95.8c5.4-2.4,1.5-28.5-36.5-42,0,0-17-37.2-38.1-40-21.1-2.9-74.5-10.3-101-64.8-26.5-54.6-54.6-100.8-47.9-117.4,6.7-16.6-6.5-40.3,32.7-37,33.1,2.8,61.2-52.6,78.3-47.9,10.5,2.9,55.2-9.9,79.8-56.7,3.8-7.3,89.9-66.3,93.5-63.8,7.3,5.1,28.4,32.5,25.7,41.8-2.6,9.3-21.3-15.1-31.7-10.4-5,2.3-35.9,10.5-61.9,38.1-28.2,29.9-52.1,79.1-71.8,73.8h0Z"/>
      <path class="st1" d="M1113.6,832.9c1.2,2.8,10.4,18.9,60.7,19.4,1.3,0,2.4-.8,2.8-2,2.9-8.7,13.7-42.8,12.5-52.5l-31.6-4.5-44.3,38.9c-.2.2-.3.5-.2.7h0Z"/>
      <path class="st14" d="M1119.9,838.3c25-8.8,47.8-19.6,67.8-32.8,0,0,2.2-5.3,1.2-9.3l-74.2,33.5.3,4s3.3,4.5,4.8,4.7h0Z"/>
      <path class="st1" d="M1191.7,783.7l-2,14.1s-49.9,30.4-75.6,34.6c-.3,0-.6-.2-.5-.5l5.5-44.9c0-.7.6-1.3,1.3-1.4l44.1-9.1,26.4,5.9c.6.1,1,.7.9,1.3h0Z"/>
      <path class="st14" d="M1119.6,792s60.3,1.3,70.3-3l1-8.3-70.2,3.3-1.2,8h0Z"/>
      <path class="st1" d="M1185.6,566.7c13.8,10.2,31.5,16.7,52,20.6.7.1.8,1.1.2,1.4-11.9,5.3-70,30.9-81,31.1,0,0-.6-5.4,1.4-8.1,1.9-2.6,20.3-27.7,25.4-44.4.3-.9,1.3-1.2,2-.6Z"/>
      <path class="st1" d="M1124.6,763.3l-5.2,21.7c-.1.4.2.9.6.9,7.1.5,56.8,3.7,71-2.8.5-.2.9-.7,1.1-1.3l17.9-60.7c.2-.8-.4-1.6-1.3-1.5l-52.9,7.1-29.5,33.4c-.8.9-1.4,2-1.7,3.2h0Z"/>
      <path class="st14" d="M1124.6,767.6s79.3-32.7,82.3-39.7l3.2-11-48.3,19.5-35.5,23.6-1.7,7.6h0Z"/>
      <path class="st14" d="M1157.7,618.7l.2-5.5s56.3-19,70.2-26.8l9,2-79.3,30.3h0Z"/>
      <path class="st1" d="M1202,721.7c-7.6,4.9-52.6,33.4-75.7,39.5-.7.2-1.3-.3-1.4-1-.5-4.9-1.9-22.7,5.2-30.9,6.9-8,9.1-21,9.7-25.1,0-.7.7-1.2,1.4-1.1l59.5,9,2.1,7.7c.2.7-.1,1.5-.8,2h0Z"/>
      <path class="st14" d="M1140.1,707.6c-1.4,4.5,51.3,18.2,56,16.7,1.6-.5,8.2-5.1,7.8-6l-62.8-17.5-1,6.8Z"/>
      <path class="st1" d="M1147.8,674.1c-.9.7-1.5,1.7-1.8,2.8-1.5,5.9-6.3,25-6,26,.3,1.1,52,22.9,69.1,17.1.9-.3,1.6-1.1,1.9-2l10.9-33.3c.3-.8,0-1.8-.9-2.2l-50.2-27.4-23,19Z"/>
      <path class="st14" d="M1145.9,681.5l17.9-8.2c2.7-1.2,5.9-1.2,8.6.2,9.6,5,33.4,16.6,47,15.3l3.3-10.3-51.5-19.2-24.5,13.8-.8,8.3h0Z"/>
      <path class="st1" d="M1170.1,663.5s16.9,15.4,51.1,19.6c.7,0,1.3-.3,1.5-1,1.7-6.6,10.3-40.6,10-51.2,0-.8-.9-1.3-1.6-.9l-61,33.6h0Z"/>
      <path class="st14" d="M1175.4,666.3s43.2-17.7,56-29.8l.3-10.5-61.8,35.2"/>
      <path class="st1" d="M1238.7,588.4c.5-.2,1.1.2,1,.8-1.1,7-6.1,39.2-7.2,40-1.2,1-82,45.9-86.1,46-3.8.1,7.7-45.1,10-53.9.2-.9.9-1.7,1.8-2,9.5-3.5,64.3-23.6,80.5-31Z"/>
      <g>
        <g>
          <path class="st15" d="M1393.7,435.9c5,56.2-43.6,102.8-100.4,102.8s-106.4-46.4-100.4-102.8c0,0,4.4-25.9,21.9-50.5s4.3-52.7,4.3-52.7c0,0,20.1,13.2,20.1,38,0,0-6.3,22.5,9.1,23.8,15.3,1.3,16.2-19,15.8-21.2s.6-19.9-12.1-39.1-16.8-45.1-1.1-74.9c15.8-29.8,46.4-50.5,46.4-50.5,0,0-33.7,33.9-18.6,84,15.1,50.1,29.8,34.1,31.7,31.7,1.9-2.4,9.1-17.1-5.4-41.9,0,0,37.1,23.3,38.2,66.1,0,0-.4,12.7-5.6,20-5.2,7.2-13.8,30.1-2.2,43.7s20.5,3,21.4,1.5c.9-1.5,4.1-15.1-.4-26.3s-4.5-27.2,18.4-43.6c0,0-15.3,25.5.9,51.2s18.1,40.8,18.1,40.8h0Z"/>
          <path class="st11" d="M1252.1,530.3c-72.2-48.2-21.1-114.4-21.1-114.4,0,0-5.2,22,16.6,27.4s32.6-29.4,35-37.4,5.2-45.6-5.2-60.3c0,0,38.4,18.1,42.1,55.7,1.5,23.5-4.3,44.7,6.5,53.6s27,7.1,32.6-6.3,4.3-21.8,4.3-21.8c0,0,15.1,28.5,8.2,55.3s-33,46.4-33,46.4c-26.6,12.3-55.1,14-86,1.7h0Z"/>
          <path class="st11" d="M1349.6,310.3s2.6-8.5-3.4-17c-6-8.5,3.6-28.7,9-30,0,0-4.7,10.2-.6,19s6.9,18.9-4.9,27.9h0Z"/>
        </g>
        <path class="st6" d="M1293.2,21.9c-21.7,0-39.3,17.6-39.3,39.3s17.6,39.3,39.3,39.3,39.3-17.6,39.3-39.3-17.6-39.3-39.3-39.3ZM1293.2,94.3c-18.3,0-33.2-14.9-33.2-33.2s14.9-33.2,33.2-33.2,33.2,14.9,33.2,33.2-14.9,33.2-33.2,33.2Z"/>
        <polygon class="st6" points="1175.3 488.1 1231.9 516.6 1225 548 1167.9 514.3 1175.3 488.1"/>
        <polygon class="st6" points="1116.9 216 1189.2 230.9 1189.2 205 1116.9 191.7 1116.9 216"/>
        <polygon class="st6" points="1189.2 205 1260 131.9 1127.8 193.7 1189.2 205"/>
        <polygon class="st6" points="1131.8 219.1 1180.2 490.6 1199.9 500.5 1147.5 222.3 1131.8 219.1"/>
        <polygon class="st6" points="1197.2 230.9 1228.1 514.7 1231.9 516.6 1251.3 516.6 1217.4 230.9 1197.2 230.9"/>
        <polygon class="st6" points="1411.1 488.1 1354.6 516.6 1361.5 548 1418.5 514.3 1411.1 488.1"/>
        <polygon class="st6" points="1283.8 548 1361.5 548 1354.6 516.6 1283.8 516.6 1231.9 516.6 1225 548 1283.8 548"/>
        <polygon class="st6" points="1469.5 216 1397.2 230.9 1397.2 205 1469.5 191.7 1469.5 216"/>
        <polygon class="st6" points="1283.8 230.9 1397.2 230.9 1397.2 205 1283.8 205 1189.2 205 1189.2 230.9 1283.8 230.9"/>
        <polygon class="st6" points="1397.2 205 1326.4 131.9 1458.7 193.7 1397.2 205"/>
        <polygon class="st6" points="1283.8 131.9 1326.4 131.9 1320 111 1283.8 111 1266.5 111 1260 131.9 1283.8 131.9"/>
        <polygon class="st6" points="1293.6 111 1314.9 111 1305 90.4 1293.6 90.4 1281.4 90.4 1271.5 111 1293.6 111"/>
        <polygon class="st6" points="1454.7 219.1 1406.2 490.6 1386.6 500.5 1438.9 222.3 1454.7 219.1"/>
        <polygon class="st6" points="1389.2 230.9 1358.4 514.7 1354.6 516.6 1335.2 516.6 1369.1 230.9 1389.2 230.9"/>
        <polygon class="st6" points="1189.2 205 1397.2 205 1326.4 131.9 1260 131.9 1189.2 205"/>
      </g>
      <path class="st2" d="M1299.6,45.4c2.6-6.8,15.9-32.5,3.4-32.1-12.5.4-32.4,19.6-27.1,27.2,5.1,7.4,19.7,12.4,23.7,4.9h0Z"/>
    </g>
  </g>
</svg>