<?xml version="1.0" encoding="UTF-8"?>
<svg id="Layer_2" data-name="Layer 2" xmlns="http://www.w3.org/2000/svg" viewBox="0 0 1664.824640643712883 1530.827022404823765">
  <defs>
    <style>
      .cls-1, .cls-2, .cls-3, .cls-4, .cls-5, .cls-6, .cls-7, .cls-8, .cls-9, .cls-10 {
        stroke: #000;
        stroke-width: 3px;
      }

      .cls-1, .cls-2, .cls-3, .cls-5, .cls-7, .cls-8, .cls-10 {
        stroke-miterlimit: 10;
      }

      .cls-1, .cls-11 {
        fill: #fff;
      }

      .cls-2 {
        fill: #634131;
      }

      .cls-12 {
        fill: #0c0c0c;
      }

      .cls-4, .cls-6, .cls-9 {
        stroke-linecap: round;
        stroke-linejoin: round;
      }

      .cls-4, .cls-7 {
        fill: #b3b3b3;
      }

      .cls-5, .cls-13 {
        fill: #e6e6e6;
      }

      .cls-6, .cls-10 {
        fill: none;
      }

      .cls-14 {
        fill: #f90;
      }

      .cls-8, .cls-15 {
        fill: #161616;
      }

      .cls-16 {
        fill: #ccc;
      }

      .cls-9 {
        fill: #ffb92e;
      }
    </style>
  </defs>
  <g id="Layer_19" data-name="Layer 19">
    <rect class="cls-7" x="506.565567685376664" y="1164.640739634186502" width="22" height="175.287145792612137"/>
    <circle class="cls-7" cx="517.565567685377573" cy="1253.937976761673326" r="15.63401794563765"/>
    <rect class="cls-7" x="693.467420082002718" y="1119.558209276706293" width="22" height="265.452206507572555"/>
    <circle class="cls-7" cx="704.467420082003628" cy="1253.937976761673326" r="15.63401794563765"/>
  </g>
  <g id="Boot_L" data-name="Boot L">
    <g>
      <path class="cls-9" d="M450.970759692710089,1286.05509342732239s1.531706049271634,9.091416550239956,68.926772215110759,9.091416550239956c67.395066165792741,0,64.413957873548497-9.091502836019572,64.413957873548497-9.091502836019572.000021437600481,21.546391237250646-9.863257581439939,63.188312907910586-13.90059816430221,105.506634149500314-4.622338588587809,48.450113450979188-3.325270500210536,97.401040974169518-.197572883868816,111.50152611466001-6.851568934028364,22.135709190710259-125.435263067442975,38.47390704909958-168.652431596065071,14.230129581810615.52703864056457-64.298714152340835,44.27124580977943-63.771675511739886,54.812018621662901-79.055796088950956,10.540772811855277-15.284120577189242-5.402146066086061-152.182407471240367-5.402146066086061-152.182407471240367"/>
      <path class="cls-14" d="M459.611381351826822,1369.968174701622956s60.777777777778283,12.888888888890506,114.555555555555657-14.666666666669698l9.62418619791697-65.994262695310681c-46.27191162109375,8.18359375-90.4573974609375,8.3193359375-132.45111083984375,0l8.271369086371124,80.660929361980379Z"/>
      <path class="cls-6" d="M450.970759692710089,1286.05509342732239s1.531706049271634,9.091416550239956,68.926772215110759,9.091416550239956c67.395066165792741,0,64.413957873548497-9.091502836019572,64.413957873548497-9.091502836019572.000021437600481,21.546391237250646-9.863257581439939,63.188312907910586-13.90059816430221,105.506634149500314-4.622338588587809,48.450113450979188-3.325270500210536,97.401040974169518-.197572883868816,111.50152611466001-6.851568934028364,22.135709190710259-125.435263067442975,38.47390704909958-168.652431596065071,14.230129581810615.52703864056457-64.298714152340835,44.27124580977943-63.771675511739886,54.812018621662901-79.055796088950956,10.540772811855277-15.284120577189242-5.402146066086061-152.182407471240367-5.402146066086061-152.182407471240367"/>
    </g>
  </g>
  <g id="Boot_R" data-name="Boot R">
    <g>
      <path class="cls-9" d="M760.961517385169827,1286.055093430703891s-15.942918884071332,136.898286893308978-5.40214607294547,152.182407470989347c10.540772811235001,15.284120577640351,54.284979980464414,14.757081939029376,54.81201861815498,79.055796091390221-43.217168529719856,24.243777465339008-161.800862662423242,7.905579601620047-168.652431595410235-14.230129589359422,3.127697616930163-14.100485140390447,4.424765707510232-63.051412663491647-.197572878918436-111.501526114690932-4.037340580985983-42.318321241769809-13.900619598117373-83.960242912829926-13.900598159601941-105.506634150129685,0,0,1.023050999709085,9.091502839019086,63.345370249819098,9.091502839019086,62.322319250128203,0,69.995359838902004-9.091416547218614,69.995359838902004-9.091416547218614"/>
      <path class="cls-14" d="M636.500270240716418,1345.801508034953258s75.722222222221717-11.888888888890506,117.888888888887777-3.222222222218988l4.731492784289003-54.545722113720331c-44.774658203125,9.641967773439319-87.908935546875,9.300659179689319-129.57080078125,0l6.95041910807322,57.767944335939319Z"/>
      <path class="cls-6" d="M760.961517385169827,1286.055093430703891s-15.942918884071332,136.898286893308978-5.40214607294547,152.182407470989347c10.540772811235001,15.284120577640351,54.284979980464414,14.757081939029376,54.81201861815498,79.055796091390221-43.217168529719856,24.243777465339008-161.800862662423242,7.905579601620047-168.652431595410235-14.230129589359422,3.127697616930163-14.100485140390447,4.424765707510232-63.051412663491647-.197572878918436-111.501526114690932-4.037340580985983-42.318321241769809-13.900619598117373-83.960242912829926-13.900598159601941-105.506634150129685,0,0,1.023050999709085,9.091502839019086,63.345370249819098,9.091502839019086,62.322319250128203,0,69.995359838902004-9.091416547218614,69.995359838902004-9.091416547218614"/>
    </g>
  </g>
  <g id="BG">
    <rect class="cls-15" x="424.816883673709526" y="627.273737038859508" width="368.666702392200932" height="513.02777099609375" rx="97.585895922716205" ry="97.585895922716205"/>
  </g>
  <g id="Arm_R" data-name="Arm R">
    <g>
      <ellipse class="cls-4" cx="1115.079403063587051" cy="753.203701052551878" rx="84.575232899736875" ry="57.418048023673691"/>
      <g>
        <path class="cls-8" d="M732.918075404232695,972.670911344924207c30.57321434917867,78.109236500689804,291.653639757127166,77.529460393539921,312.344828234136003,87.875054632029787,20.691188476979733,10.345594238498961,72.936439381421224,3.103678271549143,72.936439381421224,3.103678271549143-6.207356543100104,3.103678271549143-8.793755102740761-13.966552221980237-5.690076831189799-36.209579834749093,3.103678271549143-22.243027612770675,2.586398559638837-79.143795924521328-1.034559423840619-92.075788722640937-3.620957983490371-12.931992798130523-3.620957983490371-66.7290828383193,1.034559423840619-141.217361355525099,4.655517407320076-74.488278517198523,41.738006755889728-94.565197336301935,41.738006755889728-94.565197336301935-22.943510555949615-12.533256353502111-86.039221361370437-20.573345415230506-166.693387167821129-34.485314128331083-67.174492761809233-11.586871332391638-143.466806787790119-35.95356178824386-171.29763821358938-44.644092410108897-23.186015089540888-7.240127722075158-59.383357089776837-36.494220478773059-68.839310655688678-41.178580203656566l-207.622525105085515-73.666666666644232s-52.544141561573269.444444444445253-73.433030450462866,9.777777777778283"/>
        <path class="cls-12" d="M1112.509262753738767,1027.440057839642577c-10.786770290798813,12.639227973091693-139.973145170859425-89.795537191819676-258.639852527629046-240.017779759088626l-88.688577648154023,122.754229954399307c90.980041503904431,54.797241210939319,186.557312011724207,105.7236328125,286.664367675783069,152.8359375,20.297241210941138,3.963745117189319,40.950927734371362,4.014038085939319,61.877319335941138,1.06689453125-4.591430664069776-11.576538085939319-4.571655273441138-23.85400390625-1.213256835941138-36.639282226560681Z"/>
        <path class="cls-12" d="M747.750270240724603,577.273730257189527l65.760545794575592,43.87545042147849c-78.93529695410507-37.838824889108764-212.526028379219497,9.265791711753991-218.482754453438247,6.124556360191491-107.87939453125,6.610107421875-132.09271240234375-132.30633544921875-58-119.5606689453125,24.5823974609375,4.228759765625,210.722208658862655,69.560662163642519,210.722208658862655,69.560662163642519Z"/>
      </g>
    </g>
    <path class="cls-3" d="M1154.24727294448985,699.581716999286073s25.335929223709172,7.295799270292264,17.40430697418924,93.164231449838553c-7.931622249509019,85.868432179538104-17.587510205450599,147.597144469259547-18.966922770559904,187.944961999409315-.344941199069581,10.089530072678826-15.17353821648976,83.152713691939425-34.485314128329264,82.958733799969195-19.311775911890436-.19397989197023-78.626516212620118-77.441083539439205-76.557397364909775-109.857278820059946,2.069118847699428-32.41619528064075,6.220884604759704-241.742052039619921,32.071342139339322-257.950149679945753,25.850457534619636-16.208097640309461,53.797090040210605-.6897062825592,80.533985150270382,3.739501250788635Z"/>
  </g>
  <g id="Arm_L" data-name="Arm L">
    <g>
      <path class="cls-8" d="M582.457369748249221,507.713081471591977l-216.623766174202501,104.810648785583908c-22,9.041666666672427-43.866743516901806,35.85943798496919-50.193733605922716,43.811247493054907-13.12606215028336,16.496935247476358-20.777401762323279,23.36380032193847-35.391922844154578,49.536600485937015-6.512492695573201,11.663069144507972-62.427826012988589,115.33553102949918-69.572752033960569,126.510928139196039,0,0-206.063813738182034,292.474557215144159-209.174924849292438,363.585668326255472-.216968364708919,4.959276907635285,130.278676350911155-83.31327311197856,158.666676839192405-66.66666666666606,6.124364126444561,3.591305501642637,11.602315775696297,7.565759779863583,16.668671554364664,11.775273906427174,9.544465877209404,7.930268953829,30.91618207441843-16.383894385679014,39.109089954263254-7.775273906428993,25.784485338294871,27.092804140545923,39.362692849053929,85.720265315254437,116.249978969887707,78.861083984376819,0,0,95.735327361208874-165.272654235524897,143.767331047323751-267.048171534155699"/>
      <path class="cls-12" d="M582.457382870924448,507.713068093547008c43.07196044921875,41.41925048828125,57.056087516417392,110.373103860931224-19.2626953125,118.5606689453125-213.05487060546875,3.025146484375-297.116668701171875,109.517578125-297.116668701171875,109.517578125,9.691314697265625-21.80938720703125,23.363128662109375-44.35650634765625,39.688507080078125-67.39544677734375,18.393798828125-22.9229736328125,38.48883056640625-41.35540771484375,60.06707763671875-55.87213134765625l216.623779296875-104.8106689453125Z"/>
      <path class="cls-12" d="M88.025146894166028,1146.835912922663738c61.333346896700277-47.555541992189319,139.087080055218394-168.348586125861402,215.975975725791614-283.459724363710848l100.820579098623057-1.808201031810313c-36.397216796875,91.4365234375-57.07000732421875,215.679077148441138-72.62701416015625,350.594604492191138-68.407491912251317,23.382959414764628-102.533685896012685-50.441549544215377-140.472195095486313-78.63886176215965-4.964988554424963-3.690164304864084-16.150721534258082,33.349380268788082-21.089083057506286,29.967842981541253-24.746990173607628-16.945472627965501-49.879206396275549-28.283787370526625-82.608262511265821-16.655660316051581Z"/>
    </g>
  </g>
  <g id="Hood">
    <g>
      <path class="cls-8" d="M588.22100643002068,626.466336555862654c-47.643153285254812,0-81.336915477373623-19.19051087169737-156.868347993911811-6.515217878310978-68.444407258938554,11.485977693285349-75.968340706594063,35.898050749990944-118.277544246107027,33.077556479273881-37.588282528897253-2.505821264206133-144.338828716056014-66.155250610791882-132.811830657109567-120.783503162588204,11.526998058980098-54.628252551828155,112.263518151126846-221.018831471486919,154.362389077416992-279.15528885411004,0,0,1.503437697622758-33.578885914795137-3.508204830793147-45.105883973774326-5.011780180670939-11.526998058950994-15.644726981097847-103.003239426272557,36.585761310068847-137.823473185508192,27.063530384261867-18.042353589499726,122.287078512437802,55.129306682863898,171.402359100331523,51.119910068794525,49.115418240104191-4.009396614086654,116.774244200747489-8.519985011465906,166.390716571902885,59.64003273245271,49.616472371139025,68.160017743951357,210.995271110139583,292.687054046229605,208.99050397694009,303.712997974145765-2.004767133130372,11.02580627567113,37.087090745630121,51.621101852068023-98.230561175680123,135.818843704608298-14.168819730170071-8.77601816634342-36.49628735808983-20.268190210177636-65.368017485647215-25.153880944668344-62.530591990180255-10.581602517196188-129.800782422094926,31.167907039684906-162.667223647411447,31.167907039684906Z"/>
      <path class="cls-12" d="M592.170838243664548,626.279378957254266s-60.311191216233055-20.314688415522141-84.144213933828723-24.252901159057728c-23.833022717584754-3.938212743517397-68.938906691362718-27.35311336896666-93.371260510484717-26.734192866460944l-42.420414129843266-7.369581066096544s-38.924860051134601-11.495047232495381-51.909430771102052-27.924082595912296c0,0-7.526548788547188-9.158621784939896-7.7183537807623-13.216696236430835-.191804992169637-4.058074451472748-2.325668877668249,23.788544196219846,10.740107165389418,33.561485723886108-21.322504568592194,7.860266123142537-88.536468186817729,30.764691453719024-143.877061202174445-17.31942015412551l3.046467906253383,18.572361375600849,29.543900150768422,36.849096573499992,60.669811885653871,41.317261018328281,35.832174845838381,14.300704554414551,26.812942139983534-1.252941221489891,33.729890296080157-14.003469693539046,31.924229710162763-12.55888420212159,41.848236797922254-9.271765039065031,54.127060768486444-1.002352977201554,95.165912661656876,10.305377965771186Z"/>
      <path class="cls-12" d="M847.264644050589595,597.869000340912862c-.563823549669905,0-30.023604020030689-13.688382844830812-55.270369633120936-14.032941680720796,0-2.004705954382189,17.555086813750677-7.993197380386846,17.555086813750677-7.993197380386846-15.401633136139935-.84215636639874-29.993320528610639.717856399325683-43.866876217285608,4.406660960854424-19.462511685676873,4.003890524755661-37.697991359225853,7.984724300312337-50.09619040596408,11.855229810497804l44.849522793114375,3.912414576147967,46.045589889894472,18.01477547086597,9.774840272100846,6.420368362674708,31.008396487510254-22.58331011993323Z"/>
      <path class="cls-12" d="M332.65815268840106,213.014698540683639c13.733150410187591,1.2703236396992,30.353969381181741-5.014533225330524,48.040767250768113-14.087811390590105l-46.906788148638952,55.888045795636572c1.505777785560895-14.075009732850958,1.336327885772334-28.024067671797638-1.13397910212916-41.800234405046467Z"/>
      <path class="cls-6" d="M750.888230077415756,595.298429516177748c-62.530591990163884-10.581602517196188-129.800782422096745,31.167907039684906-162.667223647440551,31.167907039684906-47.643153285209337,0-81.336915477328148-19.19051087169737-156.868347993866337-6.515217878310978-68.444407258954016,11.485977693285349-75.968340706594063,35.898050749990944-118.277544246125217,33.077556479273881-37.588282528879063-2.505821264206133-144.338828716071475-66.155250610791882-132.811830657091377-120.783503162588204,11.526998058950994-54.628252551828155,112.263518151126846-221.018831471486919,154.362389077388798-279.15528885411004,0,0,1.503437697633672-33.578885914795137-3.508204830810428-45.105883973774326-5.011780180625465-11.526998058950994-15.644726981052372-103.003239426272557,36.585761310097041-137.823473185508192,27.063530384260957-18.042353589499726,122.287078512455082,55.129306682863898,171.402359100330614,51.119910068794525,49.115418240076906-4.009396614086654,116.774244200747489-8.519985011465906,166.390716571904704,59.64003273245271,49.616472371140844,68.160017743951357,210.995271110155954,292.687054046229605,208.990503976956461,303.712997974145765"/>
      <path d="M522.124680234205698,604.034113015422008c-9.834888505261006.098928336057725-19.414020210351737-2.815660717401443-28.824857170491669-5.361005961989576-18.77143949247511-5.500384614479117-37.192558488364739-12.116907517619438-55.987278837731537-17.455207417598103-14.02391094822724-3.991006286993979-28.228973576195131-7.48016697849107-42.753653367789411-8.732160443198154-14.772936487511288-.645423759411642-29.525745808338797-4.145701432494207-42.963609796262972-10.314600463142597-13.311139365570853-6.205747303381941-26.373948102243958-14.31715194147182-35.245421407517824-26.254697532604041-2.627099751551214-3.805020365620294-5.679041626412072-9.306708471074671-2.667713215661024-13.677913552321115-2.674222045477109,4.445813628554788.602099759709745,9.585682837015156,3.307360266714568,13.205563607093609,9.262622162678781,11.257349734761192,22.37095431644866,18.771147541551727,35.546217228074056,24.583629712510628,13.417885903441856,5.754605819970493,27.680128016208982,8.94847566198041,42.253721610240973,9.53556834336996,24.566412531596143,2.088169650083728,48.170624856433278,10.184298944074726,71.243595991451002,18.094203493230452,9.245691433348838,3.203463476367688,18.431055202880088,6.550143163867688,27.699731960692588,9.619051855273938,9.254253424425769,2.985240368265295,18.61450920707739,6.204179621883668,28.39190673828125,6.757568359375h0Z"/>
      <path d="M701.348374081861948,594.579462136515758c17.736360311460885-4.906987920126994,35.572846509588999-9.311364139053694,53.581352938117561-13.064724279936854,9.002265225944939-1.852084802094396,18.046454679069939-3.523044274750646,27.154547940790508-4.777011559906896,9.077505936389571-1.100154992862372,18.363228118918414-2.330505925031503,27.465149925979858-.894983430922366-9.123713212689836-1.184728320657086-18.329337131430293.293415962059953-27.354255740910958,1.636602159686845-18.086586610101222,3.035468933317134-35.90026592553113,7.511002247948454-53.588442592590582,12.317361580612669-8.839285088573888,2.422342932810352-17.660085869823888,4.966532385935352-26.402822686230138,7.658182776560352l-.85552978515625-2.87542724609375h0Z"/>
      <polygon points="329.940354062330698 257.070917214641668 380.698960019361948 198.926874245891668 332.238266659986948 258.999567116984508 329.940354062330698 257.070917214641668 329.940354062330698 257.070917214641668"/>
      <path class="cls-10" d="M588.22100643002068,626.466336555862654c-47.643153285254812,0-81.336915477373623-19.19051087169737-156.868347993911811-6.515217878310978-68.444407258938554,11.485977693285349-75.968340706594063,35.898050749990944-118.277544246107027,33.077556479273881-37.588282528897253-2.505821264206133-144.338828716056014-66.155250610791882-132.811830657109567-120.783503162588204,11.526998058980098-54.628252551828155,112.263518151126846-221.018831471486919,154.362389077416992-279.15528885411004,0,0,1.503437697622758-33.578885914795137-3.508204830793147-45.105883973774326-5.011780180670939-11.526998058950994-15.644726981097847-103.003239426272557,36.585761310068847-137.823473185508192,27.063530384261867-18.042353589499726,122.287078512437802,55.129306682863898,171.402359100331523,51.119910068794525,49.115418240104191-4.009396614086654,116.774244200747489-8.519985011465906,166.390716571902885,59.64003273245271,49.616472371139025,68.160017743951357,210.995271110139583,292.687054046229605,208.99050397694009,303.712997974145765-2.004767133130372,11.02580627567113,37.087090745630121,51.621101852068023-98.230561175680123,135.818843704608298-14.168819730170071-8.77601816634342-36.49628735808983-20.268190210177636-65.368017485647215-25.153880944668344-62.530591990180255-10.581602517196188-129.800782422094926,31.167907039684906-162.667223647411447,31.167907039684906Z"/>
      <path class="cls-3" d="M635.206238898024822,579.856959283757533c91.715297413317785-51.746472447674023,152.225760804275524-57.643955577243105,179.671771162164987-75.802943900355785,11.516759073199864-7.619784835864266,17.028732439790474-24.621845050921365,15.659513112550485-38.363100413094799-2.449591636550394-24.583690532594119-15.702770674950443-53.385784309502014-47.316332159800368-96.283244056443436-20.260682050737159-27.492372004167009-38.917956445315212-56.148560743859889-55.578061212583634-85.960750611782714-22.221443507946788-39.76384916250754-43.700263160672876-75.230707724073-65.822978353066901-91.414958172573279-11.595148146424435-8.482628825461688-26.928282884327018-9.796084331107522-39.96392119871598-3.756664982797702-41.700777597906381,19.31999622798503-106.961423435614961,76.334301541819514-152.977938503864607,161.698271523498988-38.545751963069051,62.989399549389418-80.322154427380156,109.272952814748351-81.307517010264746,146.000203231517844-.346662630856372,12.92109673597588,6.247520248728506,24.982291789641749,16.643829097686648,32.662895812552961,38.374233762320728,28.350186445303734,131.185386223718524,43.563854621373139,184.940785960940048,57.724965826455445,9.619688707374735,3.090292648987088,24.249671850978302,6.83914975193602,46.050849104954068-6.504674256977523Z"/>
      <path d="M543.194992734205698,122.452966775187633c-21.526766585914629,2.160318694260241-44.527579267165493,1.092653114717905-65.874726971771452,4.624021042330241-1.423795977447298.316927443998793-2.866850176666048.658175002591634-4.154508868072298,1.370516311185384,1.25726318359375-.76763916015625,2.69659423828125-1.17449951171875,4.111572265625-1.552764892578125,15.026607717248226-3.291713356080436,32.734651648492218-3.993653430515224,48.109114433337709-5.528605584148863,5.831803535412291-.532612677569887,11.693070625256041-1.039082404132387,17.411454414318541-1.886769171709602l.3970947265625,2.973602294920966h0Z"/>
    </g>
  </g>
  <g id="Eye">
    <path class="cls-1" d="M654.619663909576957,439.366376418124673c-21.325321165019886-27.566013729080623,7.824167794748064-35.319357560698336,33.502068196083201-55.184016930150392,25.677900401336956-19.864659369454785,38.160513747297955-44.318291895393486,59.485834912316932-16.752278166311044,21.325321165042624,27.566013729115184,17.796858533238264,66.016171335608306-7.881041868098691,85.880830705062181-25.677900401336046,19.864659369452966-63.781540075256089,13.621478120515349-85.106861240301441-13.944535608600745Z"/>
    <path class="cls-1" d="M485.641442444378299,388.128843200252049c12.522450134211795-32.52449351395444,34.26067665874416-11.613813114814548,64.557429510394286.050921238408591,30.296752851654674,11.66473435322132,57.679268075374239,9.666325065515593,45.156817941160625,42.190818579470033-12.522450134227256,32.524493513996276-47.234272586543739,49.43466946065837-77.531025438196593,37.769935107437959-30.296752851652855-11.664734353224048-44.705672147587393-47.487181411322126-32.183222013358318-80.011674925316584Z"/>
  </g>
  <g id="Mouth">
    <path class="cls-1" d="M605.966138533765843,514.834656647127304c0-11.955343925187663,11.630065393537734-21.647065086451221,25.976478103753834-21.647065086451221,14.34641271019791,0,25.976478103704721,9.691721161263558,25.976478103704721,21.647065086451221,0,11.955343925191301-10.668291978046909,5.840144037924802-25.014704688244819,5.840144037924802-14.346412710212462,0-26.938251519213736,6.115199887266499-26.938251519213736-5.840144037924802Z"/>
  </g>
  <g id="Cloak_L" data-name="Cloak L">
    <g>
      <path class="cls-12" d="M327.594467831861948,1288.033563699015758s116.128024631076187-313.287611219622704,137.79791259765625-380.6885986328125c-4.860087184444637,40.445456021330756-38.53928031711439,175.498450963950745-71.993453561987735,309.812758886389929-7.183565183077917,28.841112853649975-14.356766164574765,57.648178613610071-21.232010305199765,85.477158105797571-16.18463134765625,3.3206787109375-31.02764892578125-1.6358642578125-44.57244873046875-14.601318359375Z"/>
      <path class="cls-12" d="M465.392380429518198,907.344965066203258c3.522826007078947.599984947190023,5.63566758899924-.168457031209982,8.448868102357665-.000032565880247,2.45068837553481,120.387131090230469,5.005419608786724,251.734353312409439-13.007644957826415,309.956575534630247-15.66666666666606,5.111111111120408-74.66666666666697,30.66666666666606-88.66668701171875,85.333374023439319"/>
      <path class="cls-8" d="M304.001145077955698,863.376215066203258c-67.82879638671875,133.58251953125-164.42626953125,330.412109375-186.65191650390625,363.73681640625-.6153564453125.922607421875.1268310546875,2.126953125,1.22894287109375,2.004150390625,4.84893798828125-.540283203125,99.08306884765625-33.9024658203125,116.25543212890625-18.482421875,10.90887451171875,9.7958984375,4.572998046875,21.542724609375-4.64007568359375,58.782958984375-1.3614501953125,5.503173828125,5.36865234375,9.28369140625,9.38604736328125,5.283935546875,31.38714599609375-31.249755859375,43.53070068359375-1.158935546875,64.58734130859375.599853515625,22.09393310546875,1.845458984375,31.12646484375,31.954833984375,57.76953125,26.210693359375,18.94085693359375-47.9833984375,107.57806396484375-319.08642578125,111.90478515625-394.167236328125l112.30548095703125-236.71014404296875-282.14556884765625,192.74139404296875ZM210.329270077955698,1183.902338113078258c-16.85546875,11.9619140625-46.2166748046875,10.330810546875-32.07977294921875,0,14.1368408203125-10.330810546875-2.7186279296875-10.87451171875-2.7186279296875-10.87451171875,0,0,17.94293212890625-39.3856201171875,21.7490234375-24.0426025390625,3.8060302734375,15.343017578125,29.9049072265625,22.9552001953125,13.04937744140625,34.9171142578125Z"/>
    </g>
  </g>
  <g id="Cloak_R" data-name="Cloak R">
    <g>
      <path class="cls-12" d="M972.166977597488767,1221.968134011513939c-60.000040690109017-52.666625976560681-171.420288085939319-228.06298828125-216.580688476564319-345.487548828121362-.591883895847786,1.183767791690116-21.333040474539303,30.155978438431703-29.752685546875,68.633835301779982,13.743296511900553,16.353895174970603-11.020229401143297,129.99518000792159-20.654561016628577,214.185993249910098-7.355677390887649,64.278507965111203,44.378302326393168-54.414171710914161,60.001790020534827-35.332239033463338,106.400492594520983,32.087717863769285,164.028373441213262,135.013808612973662,164.028373441213262,135.013808612973662,15.860508666020905-14.027697501820512,10.785896578319807-16.672296568700403,42.957771578319807-37.013849303079041Z"/>
      <path class="cls-8" d="M853.869492245924448,787.422235574015758l-267.7227783203125-98.565185546875,140.98919677734375,254.2664794921875c36.726806640625,103.97314453125,209.32586669921875,309.1607666015625,209.32586669921875,309.1607666015625,99.371826171875-10.1217041015625,21.810546875-216.3526611328125,65.371826171875-138.9827880859375,67,119,128.435546875-30.340087890625,128.435546875-30.340087890625,0,0-213.2916259765625-145.528076171875-276.399658203125-295.5391845703125ZM1046.780625058424448,1130.072870339640758c-7.2066650390625-13.0946044921875-6.0982666015625-16.0784912109375-1.6015625-30.7965087890625,4.4967041015625-14.7178955078125,7.64599609375-49.5751953125,14.84716796875-24.023681640625,3.893671958216146,13.815829507284434,10.053318893111282,22.665100385333062,14.890177231029156,27.879502879040956,3.796269325091998,4.092589621732259,3.695432454715046,10.426639955188875-.213187678749819,14.412068320221806-8.880625496112771,9.055138525338407-23.100038020314969,21.291119857538433-27.922595021029338,12.528619230424738Z"/>
    </g>
  </g>
  <g id="Cloak_mid" data-name="Cloak mid">
    <path class="cls-8" d="M958.481796933424448,1273.533929909953258c-25.01416015625-33.940185546875-159.7896728515625-222.287109375-202.8955078125-397.0533447265625l-169.4395751953125-205.84576416015625-120.75433349609375,236.71014404296875c-15.34600830078125,124.40576171875-110.69793701171875,339.076904296875-110.69793701171875,414.513427734375,0,0,51.25494384765625-60.1956787109375,90.0074462890625-50.556884765625,33.5906982421875,8.35498046875,51.50189208984375,87.580078125,95.696044921875,77.97265625,30.77789306640625-6.6907958984375,22.09637451171875-36.84375,45.748779296875-41.97265625,49.49169921875-10.732177734375,102.686688210754255-76.66666666666606,164.6868896484375-32.66666666666606,20.879727441979412,14.817822944825821,42.64990234375-29.33333333333394,46-105.33333333333394.9622802734375-21.83056640625,79.898193359375,147.92919921875,94.203125,142.712646484375,16.8115234375-6.130859375,5.311767578125-53.174072265625,12.463623046875-59.7298583984375,11.6280517578125-10.6590576171875,45.9566650390625,26.5230712890625,52.596435546875,26.2315673828125,2.50634765625-.110107421875,3.87353515625-2.962158203125,2.385009765625-4.98193359375ZM571.692673398268198,1278.140497292765758c-18.072509765625,19.3048095703125-32.85906982421875,63.66455078125-48.87786865234375,20.5369873046875-16.01885986328125-43.127685546875-20.94769287109375-62.2723388671875-20.94769287109375-62.2723388671875,0,0,6.9825439453125-35.4835205078125,32.4483642578125-28.0902099609375s2.87518310546875,13.1435546875,15.60809326171875,37.7879638671875c12.73284912109375,24.6444091796875,39.84161376953125,12.73291015625,21.76910400390625,32.03759765625Z"/>
    <path class="cls-15" d="M287.833603574049448,820.107077153882528s28,79.168161168923689,43,106.681296024997209,120.55877685546875-47.44340811267648,134.55877685546875-19.44340811267648,312.872860643532476,14.95654296875,344.157041894031863-38.04345703125,66.284181250499387-134.290309836953384,66.284181250499387-134.290309836953384l-292.04248046875-93.709690163046616-295.95751953125,178.80556911892927Z"/>
  </g>
  <g id="Stick">
    <path class="cls-7" d="M1294.958956667788698,30.340623796926593s432.891202530840019,69.871161433343332,360.121146771651183,514.686632566196749c-.008574421461162.052412153288969-.085736614020789.054854242585861-.091640822140107.002074560489746-1.000121050490634-8.940415048157774-23.245057636189813-195.178697544593888-153.172844386190263-313.45141135571339-52.221373885209687-47.536895400471622-123.690467620830532-71.734282792930571-216.315347990390364-81.387522644057753l-45.777777777779193-22.222222222222626,55.236464204848744-97.627550904692725Z"/>
    <path class="cls-5" d="M1260.284527640819761,160.791747789607143s55.737934276088708,15.633099300695903,54.99993289944905,58.293382919215219c0,0,210.441956113190827,9.678667575274631,339.658868017801069,326.078465199911989.018650477610208.045667453682654.086167801558986.039869181132417.087386247829272-.009444833401176.239090147661045-9.676663863151589,6.032102070430483-351.651149002444981-367.678310094090193-407.323790023360743l-47.629912248869005-9.862186350353113,20.562035177879807,32.823573087987825Z"/>
    <path class="cls-11" d="M1357.500270240719146,152.190396923841035l4.888875325519621,76.666653103300632c19.273803710941138,5.807830810545966,39.73095703125,15.537658691405341,60.77783203125,27.222229003905341l-4.439826868549062-81.646703081602027s-38.851397758509847-16.136669117159727-61.226880488220559-22.242179025603946Z"/>
    <path class="cls-13" d="M1344.9876425083703,42.855728751093011l12.957072176788643,110.223557061637621s42.406452047511266,12.802536200704708,60.782436043780763,21.35329013671435l-8.897928927061002-107.139093493155997s-44.337202192869881-18.572671761603488-64.841579293508403-24.437753705195973Z"/>
    <path class="cls-10" d="M1260.284527640819761,160.791747789607143s55.737934276088708,15.633099300695903,54.99993289944905,58.293382919215219c0,0,210.441956113190827,9.678667575274631,339.658868017801069,326.078465199911989.018650477610208.045667453682654.086167801558986.039869181132417.087386247829272-.009444833401176.239090147661045-9.676663863151589,6.032102070430483-351.651149002444981-367.678310094090193-407.323790023360743l-47.629912248869005-9.862186350353113,20.562035177879807,32.823573087987825Z"/>
    <path class="cls-10" d="M1287.352404711808958,137.830361051972432l-47.629912248869005-9.862186350353113,55.236464204848744-97.627550904692725s433.109415454451664,69.906382270180075,360.066034168550686,515.022997243250757"/>
    <g>
      <path class="cls-2" d="M1308.222395842510196,2.735835869765651c-3.558989108400056-2.178346781862274-8.18473947827988-1.41675195373773-10.830604312941432,1.809855777680241-13.655043800919884,16.652199811479477-45.869657323979482,66.901417314882565-49.125492455259518,73.108948906470687-24.531257398439266,46.770966324198525-29.925005070570478,50.173417774005429-37.545122258070478,57.896074024005429-19.041381835939319,19.2977294921875,41.387299868680202,35.446206811123375,28.41798231337998,48.991317911755687-5.744944043188298,6,5.472222222211713,10.537253323053847,13.027777777761003,40.759475545275563,4.337277404220004,17.349109616849091-37.460259255780329,12.260498640537662-7.333333333330302,64.888888888888687,18.512586475309945,32.339430449586871-4.358662434420694,71.740046324387549,7.447911534889499,97.092709303888114,8.978352038680896,19.279524605498409-5.447911534889499,35.351735140556229-5.447911534889499,35.351735140556229,38.069926595009747,13.501198054404085,7.420130446620533,49.039503515265096,1.970172392489985,51.392520999664157-5.449958054139643,2.353017484415432-17.46374508783083,65.511384618201191-25.193657382660604,95.829298146834844-7.729912294838869,30.317913528630015-27.576015680979253,43.206834900392096-27.225223510549768,50.584136189466335.350792170451314,7.377301289075149-16.154179004788602,99.932550460614038-26.212106873999801,112.025246978387258-10.057927869200284,12.092696517769582-1.50656669035925,27.488259322584781-8.720281006539153,45.040274154369399-7.213714316179903,17.552014831787346-26.346782915721633,195.421245252884546-26.346782915721633,195.421245252884546,0,0,25.524264324420074,46.552745400900676,32.527155218400367,65.84979597497113,7.002890893960284,19.297050574079549,44.479665412971372,57.478511011298906,14.703040125279585,150.272229234758925-29.776625287689967,92.793718223460019-17.675873959808087,257.143373196440734-17.675873959808087,257.143373196440734,0,0,8.907051054189651-3.269887802500307,10.212154582228322,5.599722212169581,1.305103528051404,8.869610014680802.482733872520839,32.685599147489484,17.136598905970459,35.45982832638947,16.653865033460534,2.7742291789109,50.756564465091287,43.962483290801174,51.285201573209633,42.007059276231303.528637108120165-1.955424014580785,1.978824664271087-.699353063409944-3.985512533208748-22.924859529410242s8.626460832820158-14.331159606170331-12.199904356441039-56.003480804280116c-20.826365189259377-41.672321198109785-14.194891900549919-80.241688482850805-13.895363584470033-95.959962678471129.2995283160908-15.718274195629419,16.955733414521092-13.06684403386862,6.341522807480942-49.139443019808823-10.61421060704015-36.072598985951117-7.577894151560031-66.47995394057034,11.167336239659562-96.096584510491084,18.745230391219593-29.616630569929839,11.571079604560509,11.644954832310759,5.981587952099289-81.822702102328549-5.589491652459401-93.467656934661136-32.592459462588522-88.208577356741444-43.407698082019124-139.517614729571505-10.815238619450611-51.309037372810053,12.012521732220193-113.634868551318505,15.61937889030014-122.410875967229003,3.606857158089042-8.77600741589049,17.108055212489489-46.845934010883866,17.917500116929659-63.537240083858705.809444904449265-16.691306072961197,9.267638634441028-47.97809030614917,18.605261642989717-73.842997264851874,9.337623008550509-25.864906958700885,22.544190451761096-74.259311254456406,20.785331894610863-85.103065803443315-1.758858557150234-10.843754549004188,9.903701156170428-29.785115247732392,10.816108919269027-51.879578075447171.912407763120427-22.094462827697498,20.969200427709438-112.313826593534031,44.90516405560993-135.052992040042227,20-19-30.278681832820439-58.038557748445783-32.888888888890506-75.777777777778283-2.610207056099171-17.739220029336138,11.44444444445071-35.388888888889596,12.44444444445071-50.222222222222626.379032413929963-5.622314140037815-19.887833471118938-32.770753571516252-19.555555555560204-37.555555555554747,1.111111111109494-16,8.687274746000185-32.304473467699609,11.555555555560204-37.777777777778283,2.868280809570933-5.473304310097774-8.564887996069956-36.056580325108371-7.333333333339397-42.66666666666697,1.231554662719645-6.610086341542228-16.333333333330302-40.33333333333303-16.333333333330302-40.33333333333303-7.444444444439796-27.66666666666606-11-53.888888888888687,4.011748944200008-88.33333333333303,11.768718797769907-27.003314691633932,41.081721996170018-47.600434679061436,50.054189758389839-60.637367368338346,2.721399413179824-3.954174248423442,1.560841096519653-9.377467601366334-2.533299923190498-11.883364259980226l-13.143846510938602-8.044940536869035Z"/>
      <path class="cls-1" d="M1151.972377671379036,835.781097428302928c1.217534091470952,2.805545183820868,10.389776399169932,18.906606171609383,60.704502003271045,19.444665232840634,1.277859818959769.013665264899828,2.418545725338845-.804483141660967,2.816666280779828-2.01881937178041,2.850287373079482-8.693867161638991,13.731668024009196-42.756431352028812,12.528123497429988-52.504495449706155l-31.607264346530428-4.533305311004369-44.280770050299907,38.914677238328295c-.200055513709231.175812112966014-.267284296740399.452961469592992-.161257384650526.697277661322005Z"/>
      <path class="cls-16" d="M1158.222519589679905,841.190424050583715c24.988403320308862-8.785644531255457,47.77880859375-19.567199707036707,67.833251953119543-32.833374023442957,0,0,2.166720920149601-5.333319769957598,1.166720920149601-9.333319769959417l-74.166666666669698,33.5.333333333339397,4.000000000001819s3.333360460061158,4.500006781679986,4.833360460061158,4.666693793400555Z"/>
      <path class="cls-1" d="M1230.006108167129241,786.562963864994344l-1.984438714269345,14.139483974662653s-49.915534345220294,30.368025988647787-75.604527514009533,34.569030812357596c-.30526340157121.049920719517104-.567463238161508-.212623251391051-.530108299630228-.519677694679558l5.464880973719119-44.920860585795708c.084317160919454-.693079949693129.601634536100391-1.25499233879782,1.28539545231979-1.396202146294854l44.055776338780561-9.098366912738129,26.423813298399182,5.940964109985543c.585881217240967.131725850661496.972670017630662.690949815349995.889208464690455,1.285628442502457Z"/>
      <path class="cls-16" d="M1157.889159129618747,794.857063590514372s60.333333333330302,1.33333333333394,70.333333333330302-3l1-8.33333333333394-70.166666666669698,3.33333333333394-1.166666666660603,8Z"/>
      <path class="cls-1" d="M1223.945776129678961,569.623600252841243c13.787355934540756,10.163126790410388,31.516349962041204,16.676128468997376,52.017290498919465,20.620724204615726.707495832601126.136129610210446.830768683910719,1.093618754044655.17245011922023,1.386361458961801-11.920658428878596,5.300907463523799-70.007331282999075,30.889354111965076-81.02307308042873,31.119891464033572,0,0-.633831244269459-5.417197144553029,1.382434459510478-8.081334482413695,1.945632297478369-2.57080782545836,20.3357219974896-27.705763566130372,25.438269035259509-44.402613438919616.262396405019899-.858628710224366,1.289927991248987-1.175756560834998,2.012628967519049-.643029206277788Z"/>
      <path class="cls-1" d="M1162.924721818860235,766.149491134163327l-5.232065263031473,21.693812973120657c-.104631591138968.43383598156197.196358809640515.857034126828694.641548423680433.88814097996692,7.081644307740135.494817629338286,56.832765347249733,3.702381105417771,70.952124092109443-2.785146251817423.541556534541087-.248833031079812.949283166590249-.712876243779647,1.11777025533047-1.284552251990135l17.896652908280885-60.723270677139226c.236251946889752-.801601896876491-.431452009819623-1.580706389930128-1.25977232906007-1.469954269278787l-52.919431083861127,7.075691710436331-29.524783408709482,33.395968882936359c-.810936284819036.917263390525477-1.384992273739044,2.019102482697235-1.67204359473908,3.209308903765304Z"/>
      <path class="cls-16" d="M1162.889159129618747,770.523730257180432s79.255073561051177-32.748078982455809,82.333333333330302-39.66666666666606l3.166666666669698-11-48.333333333339397,19.5-35.459060382680036,23.583118639883651-1.707606283980567,7.58354802678241Z"/>
      <path class="cls-16" d="M1195.98638135183046,621.565396923848311l.166666666669698-5.5s56.333333333339397-19,70.166666666669698-26.83333333333303l9,2-79.333333333339397,30.33333333333303Z"/>
      <path class="cls-1" d="M1240.312743496689109,724.577427861971955c-7.558573210049872,4.855998539675056-52.592619432180072,33.41006095625562-75.712177683890332,39.452654098233324-.661822632819167.172975835397665-1.319317158990089-.287281408883246-1.393699699128774-.96727925792311-.53727811814133-4.911743589373145-1.918589512610197-22.749748334021206,5.191186499359901-30.937687504583664,6.923025863508883-7.972869264960536,9.144400354818572-21.004748766428747,9.688659486870165-25.084788097197816.092360330059819-.692379341267042.731209940589906-1.174421810277636,1.421945514508479-1.070479760609487l59.483782620671263,8.951133430161462,2.073009741459828,7.704531204871273c.200695979090597.74590504938169-.102831610180147,1.534404363327667-.752706479850531,1.951915887048017Z"/>
      <path class="cls-16" d="M1178.389145566238767,710.523737038859508c-1.408447265628638,4.53704833984375,51.287475585941138,18.19818115234375,56,16.66668701171875,1.618530273441138-.5260009765625,8.236206054691138-5.118408203125,7.833374023441138-6l-62.833360460061158-17.500027126730856-1.00001356337998,6.833340115012106Z"/>
      <path class="cls-1" d="M1186.091886535458798,676.950444255310686c-.891322690009474.733581169349236-1.524040548289122,1.726988957625508-1.809096181548739,2.84562238982744-1.504194608451144,5.902856078609148-6.340128802790787,25.042259574033778-6.046558403841118,25.982305785129938.336941587040201,1.078925747931862,51.952148379870778,22.902758874743995,69.082650586880845,17.074255745590563.933628764349123-.317658998471416,1.639581670990083-1.091643939067581,1.947288280549401-2.028599941982066l10.926220990220827-33.269965699209024c.27716486017016-.843957430383853-.087911601071028-1.765461753610907-.867865908419844-2.190615587467619l-50.203933182139735-27.366211668513643-23.028706181701637,18.95320897662441Z"/>
      <path class="cls-16" d="M1184.222492462949049,684.357063590514372l17.933028136350913-8.16354265908376c2.738361493429693-1.246567545515973,5.896813139788719-1.152933542995925,8.562666385440025.241978922680573,9.574863104029646,5.010064197186693,33.383792554388492,16.564561773950118,47.004305478209062,15.254897069736217l3.333333333330302-10.33333333333303-51.5-19.16666666666697-24.5,13.83333333333303-.833333333330302,8.33333333333394Z"/>
      <path class="cls-1" d="M1208.402639174898468,666.40784903219901s16.946984224230619,15.356604224840339,51.099529831781183,19.551090459588522c.664697130789136.08163558281467,1.294625008898947-.346802053189094,1.460932380270606-.995515011502903,1.703569195158707-6.64508977094556,10.263054014299996-40.606742939059586,10.036552033299813-51.215650714517324-.017040277740307-.798133129607777-.891583004360655-1.282423774478957-1.591057723031554-.897661534107101l-61.005956522320048,33.557736800538805Z"/>
      <path class="cls-16" d="M1213.722492462949049,669.190396923847402s43.166666666669698-17.66666666666606,56-29.83333333333303l.333333333330302-10.5-61.833333333330302,35.16666666666606"/>
      <path class="cls-1" d="M1277.060348249799972,591.242096573468189c.524475912299749-.239816970953143,1.096742077319504.199637956198785,1.00872274466019.769585110957451-1.081338273541405,7.001935298914759-6.105686053220779,39.189659526775358-7.216598884380801,40.044192944923452-1.24671069131.958991487540516-81.95061639935011,45.85597774136204-86.130463112500365,46.022013566712303-3.774824070320392.149947132770649,7.742798010911429-45.095428093364717,10.010331688050428-53.865292224792938.237227158020687-.917494617627199.903874239420475-1.652858758120601,1.79394542502996-1.978199168176616,9.512247379539986-3.476933657831978,64.292538462539596-23.565852379260832,80.534062139140588-30.992300229623652Z"/>
    </g>
  </g>
</svg>